<svg xmlns="http://www.w3.org/2000/svg" viewBox="0 0 247.14 276.21"><defs><style>.a{fill:#2f4223;}.b{fill:#84b115;}.c{fill:#030303;}.d{fill:#010101;}.e{fill:#020202;}.f{fill:#84b014;}.g{fill:#85b115;}.h{fill:#83b012;}.i{fill:#85b116;}.j{fill:#b9c2aa;}.k{fill:#a3ae95;}.l{fill:#d7e5b2;}.m{fill:#b7d176;}.n{fill:#eff5e0;}</style></defs><path class="a" d="M165.46,44c-2.87,2-5.68,4.07-8.65,5.9a36.91,36.91,0,0,1-11.15,4.48,26.24,26.24,0,0,1-16-1.31c-3.14-1.27-6.15-2.85-9.19-4.36-1.78-.88-3.49-1.91-5.25-2.83a17.62,17.62,0,0,0-6.32-2.07A8.27,8.27,0,0,0,101,47.22a18,18,0,0,0-3,6.89A51.65,51.65,0,0,0,97,70c1.28,17.42,7.36,33.12,17.4,47.32a57.25,57.25,0,0,0,18,16.72,41.11,41.11,0,0,0,21.73,5.5c8.68-.14,16.84-2.48,24.79-5.73,1.53-.63,3-1.33,4.54-2a4.13,4.13,0,0,1,.94-.19l0,0c-.89.82-1.74,1.68-2.66,2.46a58.33,58.33,0,0,1-24.95,12.63,47.22,47.22,0,0,1-35.07-5.61,69.74,69.74,0,0,1-21.62-20A98.81,98.81,0,0,1,84,84.86a76.08,76.08,0,0,1-2-18.77c.16-6.89,1-13.65,3.72-20.06a32.94,32.94,0,0,1,1.73-3.53Q94,31.07,107.22,31.56a21.16,21.16,0,0,1,11,3.5c2.52,1.63,4.92,3.46,7.33,5.27a56.73,56.73,0,0,0,8.58,5.73,24.59,24.59,0,0,0,13.58,2.35c5.56-.52,10.81-2.25,16-4.09a10.52,10.52,0,0,1,1.78-.31Zm-71-6.85a20.77,20.77,0,0,0-4.93,6.44A52.29,52.29,0,0,0,84.65,64a85.49,85.49,0,0,0,2.87,23.18,93.07,93.07,0,0,0,15,32.73A65.19,65.19,0,0,0,129,141.65a42.12,42.12,0,0,0,20.07,3.92c1.79-.12,3.58-.28,5.36-.53a46.53,46.53,0,0,0,19.11-7l1.55-.94-.18-.29-1.75.82a63.71,63.71,0,0,1-11.93,4.61,46,46,0,0,1-23,.71,54.3,54.3,0,0,1-21-10.38A71.16,71.16,0,0,1,98,108.84a105.14,105.14,0,0,1-9.62-28,68.64,68.64,0,0,1-.94-23.31c1-7.21,3.08-14,7.37-20L96.3,35.9,96,35.64Z" transform="translate(-27.75 -7.08)"/><path class="b" d="M135.54,42.35c1.56-.21,3.14-.38,4.69-.65A47.91,47.91,0,0,0,158,34.61c4.48-2.85,8.53-6.26,12.7-9.52C173.37,23,176.14,20.9,179,19a20.66,20.66,0,0,1,23-.06,34.74,34.74,0,0,1,13,15.37,51.32,51.32,0,0,1,3.74,13.42,70.47,70.47,0,0,1,.55,19c-2.18,20-10,37.3-24.71,51.21a59,59,0,0,1-29.17,15.28,53.16,53.16,0,0,1-13.08,1c.71-.31,1.14-.51,1.58-.68q34.5-14,47.78-48.73a64.4,64.4,0,0,0,3.91-27.61,58,58,0,0,0-4.07-18,21.51,21.51,0,0,0-5-7.64,10.43,10.43,0,0,0-8.6-3.13,14.12,14.12,0,0,0-5.08,1.69c-4.78,2.5-9.52,5.06-14.35,7.45a61,61,0,0,1-16,5.56A34.71,34.71,0,0,1,135.54,42.35Zm30.66,88.84,3.89-1.25A58.78,58.78,0,0,0,181,125.26a62.92,62.92,0,0,0,21.44-18.05c9.86-13.33,14.65-28.43,15.29-44.91a87.54,87.54,0,0,0-1.15-17.41,31.89,31.89,0,0,0-4.3-12,30.63,30.63,0,0,0-14-12.52,24.67,24.67,0,0,0-7.93-1.7A17.9,17.9,0,0,0,181.86,20a36.93,36.93,0,0,0-7.76,4.58c-4,3-8,6.15-12,9.24a1.47,1.47,0,0,0-.27.37,3.87,3.87,0,0,0,1.67-.59l10-5.89c2.47-1.45,4.92-2.94,7.43-4.31a15.26,15.26,0,0,1,7-1.89,20,20,0,0,1,14.5,5.77,32.65,32.65,0,0,1,9,15.24,63.9,63.9,0,0,1,2.26,14.2A84.13,84.13,0,0,1,211.12,84c-2.64,9.71-7,18.54-13.85,26a101.85,101.85,0,0,1-17.39,14.33,66.07,66.07,0,0,1-10.15,5.37l-3.49,1.17L161.86,132l.1.36Zm-4.66-96.75s-.07-.09-.1-.1-.08,0-.11.08.06.09.1.09S161.5,34.46,161.54,34.44Z" transform="translate(-27.75 -7.08)"/><path class="c" d="M143.32,197.43l-8.21-1.15c1.08-5.1,3.13-9.43,7.77-12.12a23.5,23.5,0,0,1,8.21-2.82,38.75,38.75,0,0,1,15.32.42,22.1,22.1,0,0,1,3.14,1.11c4.72,2,6.94,5.72,7.42,10.62.2,2.08.22,4.17.24,6.26.06,7.13.06,14.27.12,21.41a22.08,22.08,0,0,0,2.27,10.56,1.33,1.33,0,0,1,0,.47h-8.76c-.32-.9-.71-1.84-1-2.8s-.44-2-.7-3.18c-.47.34-.87.62-1.26.93a26.83,26.83,0,0,1-10.34,5.45,25.35,25.35,0,0,1-14.64-.37c-5-1.76-8.21-5.26-9.09-10.58a13.75,13.75,0,0,1,5.45-14,20.28,20.28,0,0,1,9.52-3.72c4.56-.68,9.13-1.31,13.67-2.06,2-.33,4-.93,6-1.41a19.51,19.51,0,0,0-.31-6.17,7.07,7.07,0,0,0-3.49-4.62,13.05,13.05,0,0,0-5.24-1.64,24.87,24.87,0,0,0-8.25.38,8.79,8.79,0,0,0-6.31,5.12C144.33,194.74,143.88,196,143.32,197.43Zm25.21,9.79a5.08,5.08,0,0,0-.51.08,69.3,69.3,0,0,1-12.15,2.81q-3.87.63-7.68,1.56a7,7,0,0,0-4.26,3.08A7.46,7.46,0,0,0,148.17,226a16.86,16.86,0,0,0,11.92-.76,12.71,12.71,0,0,0,7.71-8.36C168.69,213.73,168.58,210.49,168.53,207.22Z" transform="translate(-27.75 -7.08)"/><path class="d" d="M232.67,182.07h8.41v37.61l.27.12c2.62-4.14,5.15-8.34,7.71-12.51l7.71-12.53,7.8-12.69h9.19v50.11h-8.42V194.8l-.31-.11q-11.56,18.7-23.19,37.47h-9.17Z" transform="translate(-27.75 -7.08)"/><path class="e" d="M74.93,232.15v-7c.55,0,1.06,0,1.58,0,1.55-.07,3.11-.07,4.64-.26A2.91,2.91,0,0,0,84,221.81c.13-2.23.24-4.46.24-6.69q0-15.68,0-31.33V182.1h39.42v50.34h-8.38V189.08H92.79v1.53c0,9.72,0,19.43-.07,29.14a35.62,35.62,0,0,1-.49,5.65A8,8,0,0,1,87,231.69a9.75,9.75,0,0,1-3,.73A42.08,42.08,0,0,1,74.93,232.15Z" transform="translate(-27.75 -7.08)"/><path class="c" d="M27.75,232.14V182.08H67.28v50.06H58.8v-43H36.24v43Z" transform="translate(-27.75 -7.08)"/><path class="e" d="M199.81,232.17V189.05h-16v-7h40.67v6.87h-16.1v43.23Z" transform="translate(-27.75 -7.08)"/><path class="f" d="M246.42,282.61h-4.36c-.06-6.71,0-13.41-.29-20.15q-3.69,10.08-7.39,20.15h-4l-7-21-.26,0v21h-4.31V256.5h6.83c2.24,6.81,4.5,13.65,6.87,20.83,2.61-7.17,5.09-14,7.59-20.84h6.34Z" transform="translate(-27.75 -7.08)"/><path class="b" d="M156.84,13.3c-1.78,0-3.48-.09-5.16,0a48.88,48.88,0,0,0-12.17,2,17.16,17.16,0,0,0-5.67,2.91,10.72,10.72,0,0,0-4,7.93,28.09,28.09,0,0,0,1.3,9.33,9.31,9.31,0,0,1,.34,1.7,22.14,22.14,0,0,1-4.5-7.88,14.5,14.5,0,0,1,6-17.2,29.48,29.48,0,0,1,12-4.35,65.55,65.55,0,0,1,17.42-.25,2.22,2.22,0,0,1,.4.16c.78,4.33.2,8.33-3.22,11.54a27.5,27.5,0,0,1-7.3,4.47c-2.06,1-4.14,1.92-6.16,3A18.58,18.58,0,0,0,138.7,33c-.07.11-.2.19-.49.21.15-.52.27-1.06.46-1.57A14.93,14.93,0,0,1,143,25.37c2.07-1.76,4.3-3.32,6.48-4.94,1.71-1.27,3.51-2.44,5.17-3.77A5.25,5.25,0,0,0,156.84,13.3Z" transform="translate(-27.75 -7.08)"/><path class="g" d="M74.71,266.09c0-.51.05-.85.05-1.18,0-3.19-1.16-4.72-4.29-5.19a17.54,17.54,0,0,0-4.34.07,4.63,4.63,0,0,0-3.92,3.26c-.17.45-.33.9-.53,1.44l-4.28-.59c.56-3,1.9-5.29,4.6-6.62a14.07,14.07,0,0,1,5-1.34,18,18,0,0,1,7.48.65,6.3,6.3,0,0,1,4.66,5.72c.11,1,.14,2,.15,3.05,0,2.33,0,4.66,0,7,.06,3.43-.32,6.9,1.27,10.24H76L75,279.75c-.43.3-.86.57-1.27.87A13.57,13.57,0,0,1,62.3,282.9,7,7,0,0,1,56.66,277a7.46,7.46,0,0,1,3.82-7.71,14.12,14.12,0,0,1,5-1.49c2.45-.37,4.89-.75,7.33-1.16C73.41,266.49,74,266.27,74.71,266.09Zm0,3.74-6.48,1.35c-1.38.28-2.79.44-4.12.85a3.75,3.75,0,0,0-2.78,3.69,3.79,3.79,0,0,0,2.85,3.63,10.5,10.5,0,0,0,3.74.28c2.92-.35,5.27-1.73,6.36-4.63A12.51,12.51,0,0,0,74.72,269.83Z" transform="translate(-27.75 -7.08)"/><path class="g" d="M207.11,266v-1.13c0-3.16-1.19-4.69-4.33-5.15a16.34,16.34,0,0,0-4.19,0,4.68,4.68,0,0,0-4,3.32c-.16.41-.3.82-.51,1.38l-4.21-.53a11,11,0,0,1,.15-1.16,8.55,8.55,0,0,1,6.71-6.36,19.83,19.83,0,0,1,8.67-.24c4.24.82,6.17,3.12,6.28,7.48.07,2.62,0,5.24,0,7.86,0,1.31,0,2.62,0,3.93a15.33,15.33,0,0,0,1.3,7.16l-2.38.06h-2.3l-.93-2.92c-.46.32-.89.6-1.3.9a13.62,13.62,0,0,1-11.48,2.26,7,7,0,0,1-5.61-6,7.45,7.45,0,0,1,3.86-7.69,14.48,14.48,0,0,1,5-1.49c2.77-.44,5.54-.93,8.31-1.41A6.43,6.43,0,0,0,207.11,266Zm0,3.81a5.07,5.07,0,0,0-.65.05c-1.84.42-3.68.86-5.53,1.25-1.37.29-2.78.44-4.13.8a3.83,3.83,0,0,0,0,7.52,10.09,10.09,0,0,0,3.46.21c3-.4,5.43-1.81,6.46-4.89A13.58,13.58,0,0,0,207.07,269.81Z" transform="translate(-27.75 -7.08)"/><path class="f" d="M253.36,256.5h4.33v19.22l.29.14c.27-.41.56-.8.81-1.21,3.46-5.63,6.92-11.24,10.33-16.89a2.24,2.24,0,0,1,2.41-1.36,27.68,27.68,0,0,0,3,0c.35,1.06.48,23.31.16,26.13h-4.37v-19l-.26-.1c-.29.41-.59.81-.85,1.23-3.47,5.61-7,11.22-10.38,16.85a2,2,0,0,1-2.08,1.16c-1.1-.09-2.22,0-3.41,0Z" transform="translate(-27.75 -7.08)"/><path class="f" d="M134.57,256.5h4.36v19l.3.06a.24.24,0,0,0,.12,0,.8.8,0,0,0,.2-.21l11.61-18.87h4.76v26.1h-4.36V263.75l-.31-.06a.3.3,0,0,0-.13,0,.32.32,0,0,0-.1.1c-.09.11-.18.23-.26.35l-11.37,18.31s-.07.06-.15.14h-4.67Z" transform="translate(-27.75 -7.08)"/><path class="h" d="M183.71,256.51v26h-4.36V271.1h-12.1a15.57,15.57,0,0,0-.14,3.68c0,1.31,0,2.62,0,3.93v3.85h-4.36V256.5h4.32v10.62c1.09.34,10,.43,12.25.14V256.51Z" transform="translate(-27.75 -7.08)"/><path class="g" d="M107,264.2l-4.11.58c-.14-.34-.29-.63-.39-.94-1.78-5.68-8.54-5.18-11.09-1.83a9.15,9.15,0,0,0-1.54,3.09,17.45,17.45,0,0,0,0,9.21,6.71,6.71,0,0,0,7.94,5.16,5.7,5.7,0,0,0,4.55-3.65c.35-.84.56-1.74.88-2.76l4.27.57c-.16.76-.27,1.45-.48,2.12A10.32,10.32,0,0,1,97,283.26,11.37,11.37,0,0,1,88,279.81a11.12,11.12,0,0,1-2.74-5.23,21.14,21.14,0,0,1,.18-10.51c1.62-5.91,6.21-8,10.72-8.21a14.77,14.77,0,0,1,3,.22,9.31,9.31,0,0,1,7.79,7.47A4.61,4.61,0,0,1,107,264.2Z" transform="translate(-27.75 -7.08)"/><path class="f" d="M46.89,256.47h4.24c.3,1.06.39,23.87.11,26.1H46.9V272.34l-2,.45a18.22,18.22,0,0,1-7.63.53,8.3,8.3,0,0,1-6.83-6.7,16.24,16.24,0,0,1-.33-3c0-2.32,0-4.64,0-7.07h4.42c0,.48.05,1,.06,1.51.06,2.23,0,4.47.18,6.69a4.94,4.94,0,0,0,4.69,4.88,16.66,16.66,0,0,0,6.85-1.05c.61-.19.6-.68.6-1.18,0-2.28,0-4.56,0-6.84Z" transform="translate(-27.75 -7.08)"/><path class="i" d="M117.28,282.59v-22.4H109v-3.55c1-.28,18.22-.4,21.1-.12v3.56h-8.27v22.51Z" transform="translate(-27.75 -7.08)"/><path class="a" d="M165.47,44l0-.16,0,.14Z" transform="translate(-27.75 -7.08)"/><path class="a" d="M184.36,131.68v-.22a1.29,1.29,0,0,0,0,.19Z" transform="translate(-27.75 -7.08)"/><path class="j" d="M94.85,37.54l-.39-.4L96,35.64l.28.26Z" transform="translate(-27.75 -7.08)"/><path class="k" d="M173.52,138.05l-.38-.41,1.75-.82.18.29Z" transform="translate(-27.75 -7.08)"/><path class="l" d="M169.73,129.6l.36.34-3.88,1.24,0-.41Z" transform="translate(-27.75 -7.08)"/><path class="m" d="M166.24,130.77l0,.41L162,132.34l-.1-.36Z" transform="translate(-27.75 -7.08)"/><path class="n" d="M161.54,34.44s-.08.08-.11.07-.07,0-.1-.09.07-.08.11-.08S161.5,34.4,161.54,34.44Z" transform="translate(-27.75 -7.08)"/></svg>