<svg width="52" height="20" viewBox="0 0 52 20" fill="none" xmlns="http://www.w3.org/2000/svg">
<path d="M25.5364 9.78156V15.3899H23.7332V1.53989H28.5175C29.6717 1.51656 30.7871 1.94823 31.6151 2.73823C32.4533 3.48323 32.9265 4.54823 32.9096 5.66156C32.9333 6.77989 32.4618 7.85489 31.6151 8.60156C30.7786 9.38823 29.7461 9.78156 28.5175 9.77989L25.5364 9.78156ZM25.5364 3.24489V8.07989H28.5614C29.2323 8.09989 29.8796 7.83989 30.346 7.36323C31.294 6.45489 31.3143 4.95989 30.3933 4.02489C30.3781 4.00823 30.3612 3.99323 30.346 3.97822C29.8846 3.49156 29.2357 3.22489 28.5614 3.24323L25.5364 3.24489Z" fill="black"/>
<path d="M37.0662 5.60294C38.3996 5.60294 39.4524 5.9546 40.223 6.65794C40.9936 7.36127 41.3806 8.3246 41.379 9.54794V15.3879H39.6535V14.0729H39.5758C38.8288 15.1563 37.8351 15.6979 36.5947 15.6979C35.5368 15.6979 34.6513 15.3879 33.9381 14.7696C33.2453 14.1946 32.8532 13.3413 32.8684 12.4496C32.8684 11.4696 33.2436 10.6896 33.9956 10.1096C34.7476 9.53127 35.7498 9.2396 37.0054 9.2396C38.0768 9.2396 38.959 9.43294 39.6518 9.8196V9.41294C39.6552 8.8046 39.3831 8.22627 38.9066 7.83793C38.43 7.41294 37.8081 7.18127 37.1659 7.1896C36.1587 7.1896 35.3611 7.6096 34.773 8.44794L33.1844 7.46127C34.0598 6.22294 35.3526 5.60294 37.0662 5.60294ZM34.7324 12.4879C34.7307 12.9479 34.9521 13.3796 35.3307 13.6479C35.7295 13.9579 36.2246 14.1213 36.7316 14.1113C37.4921 14.1096 38.2221 13.8113 38.7612 13.2796C39.3595 12.7246 39.6569 12.0746 39.6569 11.3263C39.0942 10.8846 38.31 10.6629 37.3045 10.6629C36.5711 10.6629 35.961 10.8379 35.4709 11.1863C34.9775 11.5413 34.7324 11.9713 34.7324 12.4879Z" fill="black"/>
<path d="M51.283 5.9129L45.26 19.5662H43.3977L45.6335 14.7896L41.6723 5.91457H43.6326L46.4954 12.7212H46.5342L49.3193 5.91457L51.283 5.9129Z" fill="black"/>
<path d="M17.3436 8.57146C17.3436 8.02979 17.298 7.48813 17.205 6.95312H9.59692V10.0181H13.9536C13.7728 11.0065 13.1914 11.8798 12.3431 12.4365V14.4248H14.9439C16.4665 13.0398 17.3436 10.9931 17.3436 8.57146Z" fill="#4285F4"/>
<path d="M9.59727 16.347C11.7739 16.347 13.6075 15.642 14.9442 14.427L12.3434 12.4387C11.6201 12.922 10.6873 13.1987 9.59727 13.1987C7.49329 13.1987 5.70702 11.8004 5.06822 9.91537H2.38966V11.9654C3.75852 14.6504 6.54861 16.347 9.59727 16.347Z" fill="#34A853"/>
<path d="M5.06796 9.91343C4.72997 8.9251 4.72997 7.8551 5.06796 6.86843V4.81844H2.3894C1.24362 7.06677 1.24362 9.7151 2.3894 11.9634L5.06796 9.91343Z" fill="#FBBC04"/>
<path d="M9.59749 3.58362C10.7483 3.56529 11.8603 3.99362 12.6918 4.77695L14.9935 2.50695C13.5334 1.15529 11.5984 0.411953 9.5958 0.435287C6.54545 0.435287 3.75705 2.13196 2.38819 4.81862L5.06675 6.86862C5.70724 4.98362 7.49351 3.58362 9.59749 3.58362Z" fill="#EA4335"/>
</svg>
