<svg xmlns="http://www.w3.org/2000/svg" viewBox="0 0 3052.74 801.7"><path d="M517.27,812.28c-16.76,0-36.49-6.08-55.58-14.74-20.42-9.26-40.68-18.91-61.31-27.71-29.28-12.5-59.86-17.07-91.7-14.19-24.69,2.23-49.45,4.36-74.22,5-25,.59-49.26-4.37-69.67-20C140.55,722,126.38,697.23,123,666.7c-4.32-39.35,9.95-72.8,33.84-102.84a183.9,183.9,0,0,1,50.07-44c30.68-18.22,56.38-42.3,81.45-67.26,18.17-18.09,36-36.58,57.09-51.47,21.75-15.36,45.45-24.51,72.5-21,38.51,5.07,70.29,22,89.77,56.67,11,19.62,20.12,40.44,28.83,61.24,13.76,32.88,30.67,63.68,52.74,91.83,20.4,26,34.34,55.47,39,88.49,6.27,44.58-4.45,83.36-41.56,111.91C568.25,804.57,543.38,812.6,517.27,812.28Z" transform="translate(-87.29 -31.25)"/><path d="M956.42,31.25h270.92V366.61h-76.86V103.27H1033.1V366.72H956.42Z" transform="translate(-87.29 -31.25)"/><path d="M2614.54,611c21.2,0,42-.07,62.84.14,1.59,0,3.47,1.64,4.67,3Q2712.1,648,2742,682a31,31,0,0,1,1.78,2.54c8-9.8,15.61-19,23.16-28.25,11.39-13.93,22.82-27.83,34.09-41.85a8.07,8.07,0,0,1,7.09-3.47c18,.18,36,.09,54,.09h4.64v215.6h-71.58V723l-1.21-.69-52.06,59.58-55-60.21v105h-72.31Z" transform="translate(-87.29 -31.25)"/><path d="M1924.88,721.41,1985,633.09c4.31-6.33,8.52-12.73,13-18.94,1-1.4,3-3,4.51-3,23-.19,45.94-.13,69.31-.13V826.68h-71.59V715c-1.65,2.12-2.56,3.15-3.33,4.28q-35.29,51.78-70.5,103.62c-2,2.9-3.9,4.19-7.55,4.16-22.32-.19-44.63-.1-67.33-.1V611.33h72v109.9Z" transform="translate(-87.29 -31.25)"/><path d="M3140,611V826.68h-71.78V715c-1.66,2.12-2.56,3.15-3.34,4.29q-35.28,51.76-70.49,103.61c-2,2.91-3.9,4.19-7.56,4.16-22.31-.19-44.63-.1-67.32-.1V611.32h72V721.23l1.07.28c1-1.4,2.09-2.78,3.07-4.22q34.71-51,69.34-102c2.07-3.06,4.12-4.43,8-4.39C3095.16,611.12,3117.3,611,3140,611Z" transform="translate(-87.29 -31.25)"/><path d="M1284.16,263.15c.65-43.77,15.69-76.13,49.06-98.79,17.63-12,37.62-17.24,58.68-18.7,28.11-1.95,55.36,1.31,79.75,16.49,29,18,46.66,43.94,51.36,78.12,3.18,23.19,1.61,46-8.49,67.33-15.53,32.87-41.09,53.83-76.82,61.6-29.28,6.37-58.32,5.44-86.23-6.11-34.59-14.32-55.73-40.52-64.19-76.79C1285.21,277.45,1284.81,268.21,1284.16,263.15Zm163.11-.66c.08-12.72-1.61-19.86-5.9-28.11-13.39-25.76-51.52-29.51-69.6-6.84-12.3,15.43-13.89,39.61-3.76,57.25,12.62,22,44.52,27.55,63.68,11.27A43.46,43.46,0,0,0,1447.27,262.49Z" transform="translate(-87.29 -31.25)"/><path d="M1845,389.13c5.26,2.17,9.87,4.54,14.75,6,9.28,2.74,17,.09,22-8.11,3.56-5.75,6.19-12.12,8.7-18.43.64-1.59-.43-4.13-1.25-6q-45.87-102.94-91.83-205.83c-.74-1.65-1.4-3.33-2.31-5.5,1.6-.1,2.83-.22,4.06-.23h78.49c2.29,0,4.31-.34,5.46,2.81,12.6,34.47,25.47,68.85,38.06,103.32,2.21,6.05,3.5,12.43,5.4,19.34,7.77-43,23.06-83.37,33.51-125.21h82a13.12,13.12,0,0,1-.48,2.71c-29.16,74.74-58.19,149.53-87.64,224.15-8.12,20.59-17.76,40.55-31,58.48-11,14.87-25.15,24.74-44,26.24-19.27,1.54-36.25-4.78-51.8-15.93-4.23-3-4.64-5.42-2.53-10.08C1831.75,421.1,1838.27,405.1,1845,389.13Z" transform="translate(-87.29 -31.25)"/><path d="M2124.53,611.15h71.93v73.66h69.35V611.34h71.92V826.61h-71.6V753.17h-69.34v73.5h-72.26Z" transform="translate(-87.29 -31.25)"/><path d="M2068.45,151.22h211V366.71h-72V218.58h-66.85V366.77h-72.18Z" transform="translate(-87.29 -31.25)"/><path d="M655,248c-4,58.23-25.17,103.39-72.68,133.62-19.51,12.41-41.17,17.31-64,11-27.42-7.55-43.07-27.27-51.14-53.38-9.07-29.38-6.27-58.6,3.93-87.16,11.51-32.21,30.36-59.12,59.52-77.86,19.87-12.78,41.59-19.18,65.08-13.51,28.22,6.82,44.76,26.56,52.94,53.31C652.32,226,653.34,238.71,655,248Z" transform="translate(-87.29 -31.25)"/><path d="M1637.75,267.37v99.32h-72.23V151.28h72.08v96.64l1,.24c.93-1.47,1.9-2.91,2.78-4.4q26-44.34,52-88.73c1.7-2.92,3.48-4.14,7-4.12,27,.17,54,.1,81,.1H1786c-1.33,2.17-2.27,3.83-3.34,5.41-21.11,30.94-42.17,61.93-63.45,92.76-2.41,3.49-2.24,5.69.16,9q37.26,52,74.23,104.14c.87,1.21,1.68,2.46,3,4.36-2,.11-3.56.27-5.08.27-27.83,0-55.67-.05-83.5.1-3.43,0-5.32-1.13-7.15-3.93q-29.46-45.19-59.16-90.21C1640.73,271.47,1639.66,270.06,1637.75,267.37Z" transform="translate(-87.29 -31.25)"/><path d="M2332.54,151.15h72V247.9l1,.28c.93-1.45,1.92-2.87,2.79-4.35,17.26-29.42,34.57-58.82,51.68-88.33,2-3.49,4.3-4.61,8.24-4.58,28,.17,56,.09,84.71.09-1.29,2.11-2.21,3.77-3.27,5.34q-31.66,46.43-63.44,92.77c-2.34,3.39-2.42,5.61,0,9q37.29,51.94,74.24,104.13c.93,1.31,1.76,2.68,3.1,4.71h-5.07c-27.83,0-55.66-.06-83.5.08a7.44,7.44,0,0,1-7.19-3.85Q2438.45,318,2408.74,273c-1-1.48-2-2.91-3.93-5.58v99.22h-72.27Z" transform="translate(-87.29 -31.25)"/><path d="M431,235.65c-1,36.5-8.89,67.82-31.56,93.81-16.24,18.62-36.37,29.45-61.88,27.49-18.67-1.44-33.87-10.25-46.74-23.31-17.34-17.59-27.29-39.15-32.2-63.08-7.15-34.83-3.57-68.5,12.33-100.53a102.64,102.64,0,0,1,25.16-32.59c29.9-25.67,69.22-24.26,97.29,3.49,20.6,20.36,31.22,45.54,35.5,73.71C430.11,222.52,430.51,230.52,431,235.65Z" transform="translate(-87.29 -31.25)"/><path d="M2763.69,366.74h-62.57V347.91c-7.94,9.58-17,15.4-27.8,18.3-18.88,5.08-37.88,6-56.42-.89-29.26-10.81-42.45-37.23-40.42-70.07,2.59-41.91,33.52-61.24,64.72-64.36,15.3-1.53,30.23-.89,44.58,5.1,3.31,1.38,6.38,3.32,9.62,5,3.26-21-6.88-36.74-31.34-35.56-16.16.78-31.36,5.37-46.37,10.9l-6.33,2.34c-5.15-15.1-10.2-29.84-15.21-44.6-2.69-7.9-2.74-8,4.63-11.87,27.17-14.12,56.14-18.85,86.49-16.5,13.21,1,26,3.59,37.93,9.53,18.05,9,28.91,24,33.46,43.09a178.69,178.69,0,0,1,5,38.44c.6,42.13.23,84.29.22,126.43C2763.84,364.21,2763.76,365.19,2763.69,366.74Zm-67.72-74c.89-4.72.18-8.42-5-10.37-9.38-3.57-19-5-28.84-3.28-8.32,1.41-13.31,7.3-13.44,15-.12,7.35,4.28,13,12.33,14.67,9.68,2,19.17,1.08,28-3.8C2693.88,302.31,2697.54,298.94,2696,292.77Z" transform="translate(-87.29 -31.25)"/><path d="M1202.36,678.7c-5.15-15.09-10.19-29.84-15.21-44.59-2.69-7.91-2.74-8.05,4.62-11.88,27.17-14.12,56.14-18.85,86.49-16.5,13.21,1,26,3.59,37.93,9.53,18,9,28.92,24,33.47,43.09a178.6,178.6,0,0,1,5,38.43c.6,42.14.23,84.29.22,126.43,0,1-.08,2-.15,3.37h-62.56V807.91c-8,9.57-17,15.4-27.8,18.3-18.88,5.08-37.88,6-56.42-.89-29.26-10.8-42.46-37.21-40.44-70.06,2.59-41.92,33.53-61.25,64.73-64.37,15.29-1.53,30.22-.9,44.57,5.1,3.31,1.38,6.39,3.31,9.62,5,3.29-20.94-6.86-36.73-31.32-35.55-16.16.78-31.36,5.36-46.37,10.9Zm61.83,58.77c-.14.25-.27.51-.4.76-3.3.25-6.64.27-9.9.78-8.75,1.35-14.14,7.3-14.17,15.34,0,7.75,5.15,13.74,14.08,14.56a62.31,62.31,0,0,0,18.69-1c12-2.61,15.24-7.39,14.54-19.46-.09-1.59-1.41-4-2.72-4.47C1277.7,741.51,1270.91,739.58,1264.19,737.47Z" transform="translate(-87.29 -31.25)"/><path d="M2566.67,826.79h-62.42V807.61c-10.25,12.86-22.92,18.49-37.18,20.79-18.54,3-36.9,2.75-54.07-6.06-25.13-12.88-35.32-37.64-33.51-67.15,2.56-41.8,33.48-61.2,64.77-64.31,15.31-1.52,30.23-.84,44.58,5.13,3.3,1.37,6.37,3.32,9.61,5,3.09-21-6.77-36.58-30.95-35.61-16.33.66-31.71,5.32-46.86,10.95l-6.21,2.31c-.9-2.59-1.75-5-2.58-7.42-4.57-13.35-9-26.76-13.79-40-1.44-4-.49-5.69,3.13-7.66,28.06-15.26,58-20.29,89.63-17.79,12.38,1,24.37,3.36,35.65,8.6,19,8.81,30.47,24.17,35.2,44a178.06,178.06,0,0,1,4.95,38.44c.6,42.13.23,84.29.22,126.43C2566.84,824.26,2566.75,825.24,2566.67,826.79ZM2499.86,752c-.79-2.52-.81-6.4-2.48-7.34-11.6-6.51-24-8.65-36.81-3.84-6.23,2.35-9.08,7.46-8.84,14.2.22,6.17,3.36,10.71,9.95,12.88,10.08,3.33,20,2.14,29.46-2.46C2496.55,762.82,2500.73,759.2,2499.86,752Z" transform="translate(-87.29 -31.25)"/><path d="M1054.45,826.67V762.55c-7.23,2-13.89,4.4-20.75,5.7-21.72,4.14-43.39,4.4-64.45-3.42-21.45-8-33.09-24.64-37.9-46.1a177.42,177.42,0,0,1-4-34.09c-.6-23.32-.19-46.66-.18-70,0-1,.1-1.95.17-3.28h76.9c0,2,0,4,0,5.91.19,21.16,0,42.33.71,63.46.56,15.78,9.24,23.23,24.89,22.48,6.28-.3,12.53-1.34,18.77-2.24,4.12-.6,6-2.67,5.91-7.39-.28-25.33-.13-50.66-.13-76v-6.25h72.07V826.67Z" transform="translate(-87.29 -31.25)"/><path d="M1593,636.05l-33,56.44c-3.46-2.79-6.52-5.5-9.82-7.88-14.36-10.35-30.3-14.3-47.69-10.66-21.9,4.59-36.12,25.09-35.28,47.41,1.18,31.59,35.59,53.24,68.33,40,10.72-4.33,19.52-11.28,27.92-19.72,1,1.34,1.89,2.42,2.64,3.6,9.67,15.16,19.21,30.39,29,45.43,2,3,1.47,4.73-.64,7.26-16.27,19.59-37.55,29.52-62.32,33.13-22.23,3.24-44.26,2.56-65.7-4.22-38.55-12.19-63.86-37.52-72.78-77.42-7.09-31.72-4.69-62.74,12.75-91,18.79-30.47,46.39-48.12,82-52.2,25.82-3,51.16-.42,75.38,9.76A87.11,87.11,0,0,1,1593,636.05Z" transform="translate(-87.29 -31.25)"/><path d="M769.08,442.6c-.66,26.64-12.1,53.7-32.39,77.11-16.85,19.45-37.24,33.73-62.64,39.62-26.5,6.15-50.7,2-70.38-18.21-13-13.42-18.66-30.17-19.52-48.47C581.48,436,624.82,378.74,680.08,365.5c35.06-8.4,67.42,6.1,81.7,36.61C766.6,412.4,769,424.26,769.08,442.6Z" transform="translate(-87.29 -31.25)"/><path d="M252.56,380c-.36,26.2-5.06,47.15-17.43,66-22.16,33.74-61.4,42.19-95.34,20.22-22.91-14.84-37.21-36.37-45.33-61.95-9.61-30.22-10.37-60.51,2.66-90.12,8.31-18.89,20.86-34.19,40.57-41.93,23.5-9.22,45.53-4.68,65.59,9.63,26.31,18.77,40.35,45.35,46.57,76.42C251.53,366.69,252,375.38,252.56,380Z" transform="translate(-87.29 -31.25)"/><path d="M1618.66,683.19V611.25h196.68v71.56h-62.25V826.72h-71.82V683.19Z" transform="translate(-87.29 -31.25)"/></svg>