<svg xmlns="http://www.w3.org/2000/svg" viewBox="0 0 289.19 260.56"><defs><style>.a{fill:#fcdb01;}.b{fill:#12af10;}</style></defs><path class="a" d="M51.91,209.77l55.53-32.27C126,166.71,144.61,155.94,164,144.69c-12.12-18.59-23.83-36.57-35.57-54.53s-23.51-35.9-35.25-53.81C142.08.39,225.62,6.48,270.05,68.68a130.16,130.16,0,0,1-38.82,187.77C169.21,293.93,84,272.07,51.91,209.77Z" transform="translate(-5.4 -14.28)"/><path class="b" d="M63.77,29.19a11.61,11.61,0,0,1,2.16,2q34.62,52.55,69.2,105.16c-1,1.14-1.53,2.14-2.36,2.62q-54.34,31.7-108.72,63.29C-10.59,151.47,3.25,67.09,63.77,29.19Z" transform="translate(-5.4 -14.28)"/></svg>