<svg width="54" height="22" viewBox="0 0 54 22" fill="none" xmlns="http://www.w3.org/2000/svg">
<path d="M26.5186 10.7597V16.9289H24.6461V1.69388H29.6143C30.8129 1.66821 31.9712 2.14304 32.8311 3.01204C33.7016 3.83154 34.1929 5.00304 34.1754 6.22771C34.2 7.45787 33.7103 8.64037 32.8311 9.46171C31.9624 10.327 30.8901 10.7597 29.6143 10.7579L26.5186 10.7597ZM26.5186 3.56938V8.88788H29.6599C30.3566 8.90988 31.0288 8.62387 31.5131 8.09954C32.4977 7.10037 32.5187 5.45588 31.5623 4.42738C31.5465 4.40904 31.5289 4.39254 31.5131 4.37604C31.034 3.84071 30.3601 3.54737 29.6599 3.56754L26.5186 3.56938Z" fill="black"/>
<path d="M38.4918 6.16323C39.8765 6.16323 40.9698 6.55007 41.7701 7.32373C42.5703 8.0974 42.9722 9.15707 42.9705 10.5027V16.9267H41.1787V15.4802H41.0979C40.3222 16.6719 39.2903 17.2677 38.0022 17.2677C36.9036 17.2677 35.984 16.9267 35.2435 16.2466C34.5239 15.6141 34.1168 14.6754 34.1326 13.6946C34.1326 12.6166 34.5222 11.7586 35.3031 11.1206C36.0841 10.4844 37.1248 10.1636 38.4287 10.1636C39.5413 10.1636 40.4574 10.3762 41.1769 10.8016V10.3542C41.1804 9.68507 40.8979 9.0489 40.403 8.62173C39.9081 8.15423 39.2623 7.8994 38.5954 7.90856C37.5494 7.90856 36.7211 8.37057 36.1104 9.29273L34.4607 8.2074C35.3698 6.84523 36.7123 6.16323 38.4918 6.16323ZM36.0683 13.7367C36.0665 14.2427 36.2964 14.7176 36.6895 15.0127C37.1037 15.3537 37.6179 15.5334 38.1444 15.5224C38.9341 15.5206 39.6922 15.1924 40.2521 14.6076C40.8733 13.9971 41.1822 13.2821 41.1822 12.4589C40.5978 11.9731 39.7835 11.7292 38.7393 11.7292C37.9777 11.7292 37.3441 11.9217 36.8352 12.3049C36.3227 12.6954 36.0683 13.1684 36.0683 13.7367Z" fill="black"/>
<path d="M53.2554 6.5042L47.0008 21.5229H45.0668L47.3886 16.2685L43.2751 6.50603H45.3108L48.2837 13.9934H48.324L51.2162 6.50603L53.2554 6.5042Z" fill="black"/>
<g clip-path="url(#clip0_305_1774)">
<path d="M9.62261 1.00007C9.41879 1.084 9.19884 1.07117 8.9866 1.10269C6.83993 1.42229 4.96307 2.31291 3.37323 3.78592C1.59094 5.43669 0.478752 7.46936 0.128672 9.87257C-0.358506 13.2188 0.536671 16.1766 2.83436 18.6696C4.53161 20.5113 6.65115 21.6057 9.13433 21.9095C12.3902 22.3076 15.2616 21.3953 17.6759 19.1611C19.5091 17.4645 20.6026 15.3523 20.908 12.8758C21.3094 9.61968 20.3999 6.74697 18.1686 4.33056C16.4695 2.4903 14.3478 1.43072 11.8701 1.08033C11.6938 1.05541 11.5116 1.06861 11.3415 1.00043H9.62224L9.62261 1.00007ZM1.64629 8.56669C1.79879 8.0129 2.03926 7.49611 2.31859 6.99693C2.84499 6.05609 3.4986 5.21751 4.31899 4.51345C4.33036 4.49915 4.33916 4.48266 4.35272 4.47093C6.6944 2.4969 9.38287 1.73089 12.3785 2.36752C15.8317 3.10165 18.1495 5.21568 19.3493 8.53078C19.8794 9.99499 19.96 11.5145 19.7108 13.0473C19.5458 14.0614 19.2181 15.0246 18.7166 15.9251C18.7016 15.9519 18.6865 15.9783 18.6715 16.005C18.6382 16.0637 18.6052 16.1227 18.5718 16.1813C18.2437 16.774 17.8372 17.3098 17.3804 17.8079C16.9244 18.3053 16.424 18.7528 15.8668 19.1347C15.5516 19.3509 15.2231 19.5459 14.8881 19.7303C14.8767 19.7387 14.8654 19.7468 14.854 19.7552C14.7924 19.7838 14.7312 19.812 14.6696 19.8406C14.3415 20.0396 13.9838 20.1741 13.6241 20.2998C12.6487 20.641 11.6468 20.8382 10.6091 20.8247C9.79343 20.8599 8.9921 20.7558 8.20579 20.5512C4.58 19.6064 1.92233 16.7139 1.29292 13.0374C1.14738 12.2007 1.12796 11.3584 1.2152 10.5154C1.27055 9.98033 1.35487 9.44779 1.53192 8.9354C1.56271 8.82582 1.59314 8.7166 1.62393 8.60701C1.63126 8.59345 1.63896 8.57989 1.64629 8.56669Z" fill="#73BF45"/>
<path d="M9.56445 13.5981V15H4.27393C4.33122 14.4701 4.50309 13.9688 4.78955 13.4961C5.07601 13.0199 5.64176 12.3896 6.48682 11.6055C7.16715 10.9717 7.58431 10.542 7.73828 10.3164C7.94596 10.0049 8.0498 9.69694 8.0498 9.39258C8.0498 9.05599 7.9585 8.79818 7.77588 8.61914C7.59684 8.43652 7.34798 8.34521 7.0293 8.34521C6.71419 8.34521 6.46354 8.4401 6.27734 8.62988C6.09115 8.81966 5.98372 9.13477 5.95508 9.5752L4.45117 9.4248C4.54069 8.59408 4.82178 7.99788 5.29443 7.63623C5.76709 7.27458 6.35791 7.09375 7.06689 7.09375C7.84391 7.09375 8.45443 7.30322 8.89844 7.72217C9.34245 8.14111 9.56445 8.66211 9.56445 9.28516C9.56445 9.63965 9.5 9.97803 9.37109 10.3003C9.24577 10.619 9.04525 10.9538 8.76953 11.3047C8.58691 11.5374 8.25749 11.8722 7.78125 12.3091C7.30501 12.7459 7.00244 13.036 6.87354 13.1792C6.74821 13.3224 6.64616 13.4621 6.56738 13.5981H9.56445ZM13.5498 15V13.4155H10.3271V12.0942L13.7432 7.09375H15.0107V12.0889H15.9883V13.4155H15.0107V15H13.5498ZM13.5498 12.0889V9.39795L11.7397 12.0889H13.5498Z" fill="black"/>
</g>
<defs>
<clipPath id="clip0_305_1774">
<rect width="21" height="21" fill="white" transform="matrix(1 0 0 -1 0 22)"/>
</clipPath>
</defs>
</svg>
