<svg xmlns="http://www.w3.org/2000/svg" xmlns:xlink="http://www.w3.org/1999/xlink" viewBox="0 0 30.87 30"><defs><style>.a{fill:url(#a);}</style><linearGradient id="a" x1="-202.6" y1="479.69" x2="-202.13" y2="480.27" gradientTransform="matrix(130.79, 0, 0, -30, 26476.33, 14416.5)" gradientUnits="userSpaceOnUse"><stop offset="0" stop-color="#ed7d27"/><stop offset="1" stop-color="#e43421"/></linearGradient></defs><path class="a" d="M29.56,18.53a4,4,0,0,0-4-4,3.91,3.91,0,0,0-2,.53V7.8H21.5V22.2h1.29v-.75a4,4,0,0,0,6.78-2.92m-2.07,0a1.95,1.95,0,1,1-1.95-2,1.95,1.95,0,0,1,1.95,2m-7.41,1.65a2.43,2.43,0,0,0-2.47-2.39H16c-.18,0-.56-.09-.56-.44s.38-.47.56-.47h3.2V15.16H15.8a2.32,2.32,0,1,0,0,4.63h1.6a.57.57,0,0,1,.62.51v0a.55.55,0,0,1-.58.53H14.06v1.72h3.56a2.44,2.44,0,0,0,2.47-2.39m-9.74,2.38h2.06V15.17H10.35Zm-2.95,0H9.46V17H7.4Zm-2.95,0H6.52V18.84H4.45Zm-2.95,0H3.57V20.67H1.5ZM27.39,30H3.48A3.48,3.48,0,0,1,0,26.52v-23A3.48,3.48,0,0,1,3.48,0H27.39a3.48,3.48,0,0,1,3.48,3.48v23A3.48,3.48,0,0,1,27.39,30Z"/></svg>