<svg width="1281" height="356" viewBox="0 0 1281 356" fill="none" xmlns="http://www.w3.org/2000/svg">
<g clip-path="url(#clip0_126_4)">
<path d="M773.372 356C1053.73 356 1281 347.926 1281 337.967C1281 328.007 1053.73 319.933 773.372 319.933C493.018 319.933 265.745 328.007 265.745 337.967C265.745 347.926 493.018 356 773.372 356Z" fill="#72F6DC"/>
<path d="M686.832 206.311C686.832 354.398 603.824 341.677 501.433 341.677C399.043 341.677 316.034 349.042 316.034 206.311C316.034 103.91 399.043 45.7676 501.433 45.7676C603.824 45.7676 686.832 103.917 686.832 206.311Z" fill="#1A272E"/>
<path opacity="0.28" d="M512.484 59.8934C512.484 59.8934 358.238 45.7675 346.27 233.348C346.27 233.348 334.209 345.098 501.434 341.677C501.434 341.677 644.309 347.144 651.316 254.395C657.805 168.506 650.755 68.9902 512.484 59.8934Z" fill="#72F6DC"/>
<path d="M597.144 290.978C650.006 238.114 650.006 152.405 597.144 99.5408C544.282 46.6769 458.575 46.6769 405.713 99.5408C352.85 152.405 352.85 238.114 405.713 290.978C458.575 343.842 544.282 343.842 597.144 290.978Z" fill="#72F6DC"/>
<path d="M589.583 283.417C638.27 234.729 638.27 155.79 589.583 107.102C540.896 58.4139 461.96 58.4139 413.273 107.102C364.587 155.79 364.587 234.729 413.273 283.417C461.96 332.105 540.896 332.105 589.583 283.417Z" fill="#61D7C0"/>
<path d="M501.279 88.1387H523.509C526.812 88.1387 529.092 91.4606 527.897 94.5421L515.824 125.758L505.667 152.026C504.114 156.038 498.438 156.038 496.891 152.026L486.735 125.758L474.662 94.5421C473.466 91.4606 475.746 88.1387 479.05 88.1387H501.279Z" fill="#1A272E"/>
<path d="M501.279 301.432H479.05C475.746 301.432 473.466 298.11 474.662 295.028L486.735 263.812L496.891 237.545C498.444 233.533 504.12 233.533 505.667 237.545L515.824 263.812L527.897 295.028C529.092 298.11 526.812 301.432 523.509 301.432H501.279Z" fill="#1A272E"/>
<path d="M576.688 119.373L592.41 135.095C594.746 137.431 594.012 141.388 590.986 142.725L560.375 156.26L534.614 167.649C530.682 169.387 526.67 165.375 528.408 161.443L539.797 135.681L553.331 105.069C554.668 102.043 558.625 101.309 560.961 103.645L576.682 119.367L576.688 119.373Z" fill="#1A272E"/>
<path d="M425.87 270.191L410.148 254.469C407.812 252.133 408.546 248.176 411.572 246.839L442.183 233.305L467.944 221.915C471.876 220.177 475.888 224.19 474.15 228.122L462.761 253.883L449.227 284.496C447.89 287.522 443.933 288.255 441.597 285.919L425.876 270.197L425.87 270.191Z" fill="#1A272E"/>
<path d="M607.923 194.785V217.016C607.923 220.319 604.601 222.6 601.519 221.404L570.304 209.33L544.038 199.174C540.026 197.62 540.026 191.944 544.038 190.397L570.304 180.241L601.519 168.167C604.601 166.971 607.923 169.252 607.923 172.555V194.785Z" fill="#1A272E"/>
<path d="M394.636 194.785V172.555C394.636 169.252 397.958 166.971 401.039 168.167L432.255 180.241L458.521 190.397C462.533 191.95 462.533 197.627 458.521 199.174L432.255 209.33L401.039 221.404C397.958 222.6 394.636 220.319 394.636 217.016V194.785Z" fill="#1A272E"/>
<path d="M576.689 270.191L560.967 285.913C558.632 288.249 554.675 287.516 553.338 284.49L539.804 253.877L528.415 228.116C526.677 224.183 530.689 220.171 534.621 221.909L560.382 233.299L590.993 246.833C594.019 248.17 594.753 252.127 592.417 254.463L576.695 270.185L576.689 270.191Z" fill="#1A272E"/>
<path d="M425.87 119.374L441.592 103.651C443.927 101.316 447.884 102.049 449.221 105.075L462.755 135.687L474.144 161.449C475.882 165.381 471.87 169.393 467.938 167.655L442.177 156.266L411.566 142.732C408.54 141.394 407.806 137.438 410.142 135.102L425.864 119.38L425.87 119.374Z" fill="#1A272E"/>
<path d="M527.443 201.394C530.836 187.017 521.932 172.61 507.555 169.217C493.178 165.824 478.773 174.728 475.379 189.106C471.986 203.483 480.89 217.889 495.267 221.282C509.644 224.676 524.05 215.771 527.443 201.394Z" fill="#1A272E"/>
<path d="M501.427 206.31C507.53 206.31 512.477 201.363 512.477 195.26C512.477 189.157 507.53 184.209 501.427 184.209C495.324 184.209 490.377 189.157 490.377 195.26C490.377 201.363 495.324 206.31 501.427 206.31Z" fill="white"/>
<path opacity="0.28" d="M399.024 83.9663C399.024 83.9663 320.626 144.642 334.856 228.923C334.856 228.923 304.491 142.978 399.024 83.9663Z" fill="#72F6DC"/>
<path opacity="0.28" d="M641.677 114.998C641.677 114.998 670.741 162.935 668.701 246.568C668.701 246.568 682.981 158.855 641.677 114.998Z" fill="#72F6DC"/>
<path d="M862.698 272.453H717.573V199.266L867.671 0H939.623V197.799H989.346V272.459H939.623V341.954H862.698V272.459V272.453ZM862.698 120.735L805.987 197.793H862.698V120.735Z" fill="white"/>
<path d="M145.124 272.453H0L10.1996 199.266L160.298 0H222.05V197.799H271.772V272.459H222.05V341.954H145.124V272.459V272.453ZM145.124 120.735L88.4133 197.793H145.124V120.735Z" fill="white"/>
<path d="M1067.07 61.4463H1058.41V148.106H1067.07V61.4463Z" fill="#BDBDD8"/>
<path d="M1108.03 53.5698H1016.19V61.4463H1108.03V53.5698Z" fill="#1A272E"/>
<path d="M1018.25 51.3818H1016.25C1015.6 51.3818 1015.06 51.9144 1015.06 52.5713V62.4508C1015.06 63.1077 1015.6 63.6403 1016.25 63.6403H1018.25C1018.91 63.6403 1019.44 63.1077 1019.44 62.4508V52.5713C1019.44 51.9144 1018.91 51.3818 1018.25 51.3818Z" fill="#1A272E"/>
<path d="M1109.03 51.3818H1107.03C1106.38 51.3818 1105.84 51.9144 1105.84 52.5713V62.4508C1105.84 63.1077 1106.38 63.6403 1107.03 63.6403H1109.03C1109.69 63.6403 1110.22 63.1077 1110.22 62.4508V52.5713C1110.22 51.9144 1109.69 51.3818 1109.03 51.3818Z" fill="#1A272E"/>
<path d="M1072.79 52.189H1052.38V62.8327H1072.79V52.189Z" fill="#BDBDD8"/>
<path opacity="0.33" d="M1058.41 62.833H1067.07L1058.41 67.6526V62.833Z" fill="#1A272E"/>
<path d="M1057.07 135.564H1068.4C1075.51 135.564 1081.28 141.332 1081.28 148.438V325.56H1044.2V148.438C1044.2 141.332 1049.96 135.564 1057.07 135.564Z" fill="#EA4230"/>
<mask id="mask0_126_4" style="mask-type:luminance" maskUnits="userSpaceOnUse" x="1044" y="135" width="38" height="191">
<path d="M1057.07 135.564H1068.4C1075.51 135.564 1081.28 141.332 1081.28 148.438V325.56H1044.2V148.438C1044.2 141.332 1049.96 135.564 1057.07 135.564Z" fill="white"/>
</mask>
<g mask="url(#mask0_126_4)">
<path d="M1088.1 130.079H1062.59V332.71H1088.1V130.079Z" fill="#C1271B"/>
</g>
<path d="M1094.72 340.678H1031.46C1031.46 331.877 1038.6 324.74 1047.4 324.74H1078.78C1087.58 324.74 1094.71 331.877 1094.71 340.678H1094.72Z" fill="#1A272E"/>
<path d="M1098.11 339.766H1027.89C1027.26 339.766 1026.74 340.285 1026.74 340.925V343.057C1026.74 343.697 1027.26 344.216 1027.89 344.216H1098.11C1098.75 344.216 1099.27 343.697 1099.27 343.057V340.925C1099.27 340.285 1098.75 339.766 1098.11 339.766Z" fill="#1A272E"/>
<path d="M1071.47 130.079H1054C1052.36 130.079 1051.03 131.409 1051.03 133.049V134.713C1051.03 136.354 1052.36 137.684 1054 137.684H1071.47C1073.11 137.684 1074.44 136.354 1074.44 134.713V133.049C1074.44 131.409 1073.11 130.079 1071.47 130.079Z" fill="#1A272E"/>
<path opacity="0.32" d="M1053.09 240.762C1051.06 240.762 1049.41 239.11 1049.41 237.076V212.005C1049.41 209.971 1051.06 208.319 1053.09 208.319C1055.13 208.319 1056.78 209.971 1056.78 212.005V237.076C1056.78 239.11 1055.13 240.762 1053.09 240.762Z" fill="white"/>
<path opacity="0.32" d="M1053.09 252.805C1051.06 252.805 1049.41 251.153 1049.41 249.119V246.555C1049.41 244.522 1051.06 242.87 1053.09 242.87C1055.13 242.87 1056.78 244.522 1056.78 246.555V249.119C1056.78 251.153 1055.13 252.805 1053.09 252.805Z" fill="white"/>
<path d="M1093.8 181.344C1096.58 164.209 1084.95 148.063 1067.81 145.282C1050.68 142.501 1034.53 154.136 1031.75 171.272C1028.97 188.407 1040.61 204.552 1057.74 207.334C1074.87 210.115 1091.02 198.479 1093.8 181.344Z" fill="#1A272E"/>
<path d="M1073.28 201.751C1087.34 195.926 1094.02 179.804 1088.2 165.741C1082.37 151.678 1066.25 144.999 1052.19 150.825C1038.12 156.65 1031.45 172.772 1037.27 186.835C1043.1 200.898 1059.22 207.577 1073.28 201.751Z" fill="white"/>
<mask id="mask1_126_4" style="mask-type:luminance" maskUnits="userSpaceOnUse" x="1035" y="148" width="56" height="56">
<path d="M1073.28 201.751C1087.34 195.926 1094.02 179.804 1088.2 165.741C1082.37 151.678 1066.25 144.999 1052.19 150.825C1038.12 156.65 1031.45 172.772 1037.27 186.835C1043.1 200.898 1059.22 207.577 1073.28 201.751Z" fill="white"/>
</mask>
<g mask="url(#mask1_126_4)">
<path d="M1079.66 152.364C1079.66 152.364 1080.67 189.442 1046.34 200.591C1046.34 200.591 1070.97 216.387 1090.29 195.216C1109.62 174.046 1079.65 152.364 1079.65 152.364H1079.66Z" fill="#BDBDD8"/>
</g>
<path d="M1063 180.629C1065.39 180.629 1067.34 178.686 1067.34 176.29C1067.34 173.893 1065.39 171.951 1063 171.951C1060.6 171.951 1058.66 173.893 1058.66 176.29C1058.66 178.686 1060.6 180.629 1063 180.629Z" fill="#1A272E"/>
<path d="M1063.78 152.365H1062.22V159.822H1063.78V152.365Z" fill="#1A272E"/>
<path d="M1063.78 193.134H1062.22V200.591H1063.78V193.134Z" fill="#1A272E"/>
<path d="M1087.11 177.257V175.698H1079.66V177.257H1087.11Z" fill="#1A272E"/>
<path d="M1046.34 177.257V175.698H1038.88V177.257H1046.34Z" fill="#1A272E"/>
<path d="M1080.6 159.981L1079.5 158.879L1074.23 164.152L1075.33 165.255L1080.6 159.981Z" fill="#1A272E"/>
<path d="M1051.77 188.812L1050.67 187.71L1045.4 192.983L1046.5 194.086L1051.77 188.812Z" fill="#1A272E"/>
<path d="M1079.5 194.08L1080.6 192.977L1075.33 187.704L1074.23 188.806L1079.5 194.08Z" fill="#1A272E"/>
<path d="M1050.67 165.249L1051.77 164.146L1046.5 158.873L1045.4 159.975L1050.67 165.249Z" fill="#1A272E"/>
<path d="M1073.06 166.416L1063.66 173.812L1063 176.481L1065.67 175.821L1073.06 166.416Z" fill="#F1BF46"/>
<path d="M507.418 307.958H495.443V319.933H507.418V307.958Z" fill="#1A272E"/>
<path d="M875.258 326.121C850.951 326.121 827.988 319.385 805.062 305.53C784.78 293.278 767.037 277.315 748.246 260.416C711.959 227.776 674.439 194.027 617.851 190.021C587.258 187.852 562.231 195.537 543.459 212.868C506.586 246.901 505.6 307.391 505.594 307.995L497.28 307.922C497.28 307.262 497.471 291.602 502.494 271.294C507.159 252.435 517.063 225.934 537.789 206.791C558.317 187.821 585.453 179.39 618.449 181.726C677.884 185.935 716.489 220.658 753.818 254.235C790.166 286.93 824.494 317.807 875.27 317.807C934.28 317.807 960.793 305.727 982.092 296.014C998.455 288.557 1012.59 282.117 1035.58 283.916L1034.93 292.206C1014.07 290.572 1001.49 296.31 985.543 303.583C963.511 313.622 936.086 326.121 875.27 326.121H875.258Z" fill="#EA4230"/>
<path d="M1044.05 279.251H1026.43V296.871H1044.05V279.251Z" fill="#1A272E"/>
</g>
<defs>
<clipPath id="clip0_126_4">
<rect width="1281" height="356" fill="white"/>
</clipPath>
</defs>
</svg>
