<svg width="194" height="136" viewBox="0 0 194 136" fill="none" xmlns="http://www.w3.org/2000/svg">
<path d="M0.579102 74.7635C0.579102 72.7139 2.25557 71.0522 4.3236 71.0522H189.676C191.744 71.0522 193.421 72.7139 193.421 74.7635V108.165C193.421 110.215 191.744 111.877 189.676 111.877H4.32359C2.25557 111.877 0.579102 110.215 0.579102 108.165V74.7635Z" fill="#28B8A6"/>
<g filter="url(#filter0_d_33_3880)">
<path d="M18.3452 105.977V80.5578H8.06934V76.9501H32.8599V80.5578H22.584V105.977H18.3452Z" fill="white"/>
<path d="M31.4794 105.977L45.0521 76.9501H49.2909L62.9064 105.977H58.4107L46.2938 79.2723H48.0064L35.8894 105.977H31.4794ZM37.2596 98.7204L38.4156 95.403H55.2852L56.5268 98.7204H37.2596Z" fill="white"/>
<path d="M79.1668 106.309C75.2278 106.309 72.1307 105.217 69.8757 103.033C67.6208 100.849 66.4933 97.656 66.4933 93.454V76.9501H70.7749V93.2882C70.7749 96.5226 71.5028 98.8862 72.9585 100.379C74.4428 101.872 76.5265 102.618 79.2097 102.618C81.9213 102.618 84.0051 101.872 85.4608 100.379C86.9451 98.8862 87.6873 96.5226 87.6873 93.2882V76.9501H91.8404V93.454C91.8404 97.656 90.7129 100.849 88.4579 103.033C86.2315 105.217 83.1345 106.309 79.1668 106.309Z" fill="white"/>
<path d="M100.618 105.977V76.9501H112.307C114.933 76.9501 117.174 77.351 119.029 78.1527C120.885 78.9544 122.312 80.1155 123.311 81.6359C124.31 83.1564 124.809 84.9671 124.809 87.0681C124.809 89.1691 124.31 90.9798 123.311 92.5003C122.312 93.9931 120.885 95.1404 119.029 95.9421C117.174 96.7438 114.933 97.1446 112.307 97.1446H102.973L104.9 95.2371V105.977H100.618ZM120.656 105.977L113.035 95.4445H117.616L125.323 105.977H120.656ZM104.9 95.6518L102.973 93.6199H112.179C114.919 93.6199 116.988 93.0532 118.387 91.9198C119.814 90.7587 120.528 89.1415 120.528 87.0681C120.528 84.9948 119.814 83.3914 118.387 82.2579C116.988 81.1245 114.919 80.5578 112.179 80.5578H102.973L104.9 78.4844V95.6518Z" fill="white"/>
<path d="M144.144 106.309C140.205 106.309 137.108 105.217 134.853 103.033C132.598 100.849 131.47 97.656 131.47 93.454V76.9501H135.752V93.2882C135.752 96.5226 136.48 98.8862 137.935 100.379C139.42 101.872 141.503 102.618 144.186 102.618C146.898 102.618 148.982 101.872 150.438 100.379C151.922 98.8862 152.664 96.5226 152.664 93.2882V76.9501H156.817V93.454C156.817 97.656 155.69 100.849 153.435 103.033C151.208 105.217 148.111 106.309 144.144 106.309Z" fill="white"/>
<path d="M174.33 106.309C172.046 106.309 169.863 105.977 167.779 105.314C165.695 104.623 164.054 103.738 162.855 102.66L164.439 99.4253C165.581 100.393 167.037 101.195 168.806 101.83C170.576 102.466 172.417 102.784 174.33 102.784C176.071 102.784 177.484 102.591 178.568 102.204C179.653 101.817 180.452 101.291 180.966 100.628C181.48 99.9367 181.737 99.1627 181.737 98.3057C181.737 97.3105 181.394 96.5088 180.709 95.9006C180.053 95.2924 179.182 94.8086 178.098 94.4492C177.041 94.0622 175.871 93.7305 174.587 93.454C173.302 93.1776 172.003 92.8597 170.69 92.5003C169.406 92.1133 168.221 91.6295 167.137 91.0489C166.08 90.4684 165.224 89.6944 164.568 88.7268C163.911 87.7316 163.583 86.4599 163.583 84.9118C163.583 83.419 163.982 82.0506 164.782 80.8066C165.609 79.5349 166.865 78.5259 168.55 77.7795C170.262 77.0054 172.432 76.6184 175.058 76.6184C176.799 76.6184 178.526 76.8396 180.238 77.2819C181.951 77.7242 183.435 78.36 184.691 79.1894L183.278 82.5067C181.994 81.6774 180.638 81.083 179.211 80.7236C177.784 80.3366 176.399 80.1431 175.058 80.1431C173.373 80.1431 171.989 80.3504 170.904 80.7651C169.82 81.1798 169.02 81.7327 168.507 82.4238C168.021 83.1149 167.779 83.889 167.779 84.746C167.779 85.7688 168.107 86.5843 168.764 87.1925C169.449 87.8007 170.319 88.2845 171.375 88.6439C172.46 89.0032 173.645 89.335 174.929 89.6391C176.214 89.9155 177.498 90.2334 178.783 90.5928C180.096 90.9522 181.28 91.4222 182.336 92.0027C183.421 92.5832 184.292 93.3573 184.948 94.3248C185.605 95.2924 185.933 96.5364 185.933 98.0569C185.933 99.5221 185.519 100.89 184.691 102.162C183.863 103.406 182.579 104.415 180.838 105.189C179.125 105.936 176.956 106.309 174.33 106.309Z" fill="white"/>
</g>
<path d="M91.5697 4.05195C94.4 -0.791731 101.476 -0.791728 104.306 4.05195L134.99 56.5618C137.82 61.4055 134.282 67.4601 128.621 67.4601H67.2545C61.5939 67.4601 58.0559 61.4055 60.8863 56.5618L91.5697 4.05195Z" fill="white"/>
<path fill-rule="evenodd" clip-rule="evenodd" d="M104.669 3.84177L135.352 56.3516C138.347 61.4766 134.602 67.8789 128.618 67.8789H67.2513C61.2673 67.8789 57.5225 61.4766 60.5173 56.3516L91.2006 3.84177C94.1938 -1.28059 101.676 -1.28059 104.669 3.84177ZM104.303 4.05176C101.473 -0.791912 94.3968 -0.791915 91.5665 4.05176L60.8831 56.5616C58.0527 61.4053 61.5907 67.4599 67.2513 67.4599H128.618C134.279 67.4599 137.817 61.4053 134.986 56.5616L104.303 4.05176Z" fill="#D9D9D9"/>
<path d="M92.7313 4.71347C95.047 0.750459 100.836 0.750459 103.152 4.71347L133.835 57.2233C136.151 61.1863 133.257 66.1401 128.625 66.1401H67.2583C62.6269 66.1401 59.7322 61.1863 62.0479 57.2233L92.7313 4.71347Z" fill="#DA251D"/>
<g filter="url(#filter1_d_33_3880)">
<path d="M97.9365 10.3274L126.304 58.8742H69.5688L97.9365 10.3274Z" fill="white"/>
</g>
<g filter="url(#filter2_d_33_3880)">
<path d="M80.1979 57.5596C82.7484 58.4873 84.9975 58.7314 86.9452 58.292C88.8929 57.8525 90.632 56.3633 92.1623 53.8243L94.5274 49.9426L95.4317 48.9173L112.404 14.3481H121.308L100.162 55.7286C98.446 59.1953 96.4055 61.8319 94.0404 63.6385C91.6754 65.4451 89.1248 66.446 86.3888 66.6413C83.6991 66.8854 80.8935 66.3483 77.9719 65.03L80.1979 57.5596ZM95.223 57.1201L73.52 14.3481H83.189L100.162 49.7962L95.223 57.1201Z" fill="#212121"/>
</g>
<path d="M0.579102 135.844L9.2944 117.6H11.2826L19.9979 135.844H17.8735L9.86634 118.721H10.6834L2.67622 135.844H0.579102ZM4.01075 130.97L4.60993 129.406H15.6947L16.2939 130.97H4.01075Z" fill="#28B8A6"/>
<path d="M23.6512 135.844V117.6H31.5767C33.5921 117.6 35.1718 118 36.3156 118.799C37.4777 119.581 38.0587 120.736 38.0587 122.265C38.0587 123.777 37.5049 124.924 36.3974 125.705C35.2898 126.47 33.8372 126.852 32.0397 126.852L32.5027 126.201C34.6271 126.201 36.243 126.6 37.3506 127.399C38.4582 128.199 39.0119 129.372 39.0119 130.918C39.0119 132.482 38.4309 133.698 37.2689 134.567C36.125 135.418 34.4001 135.844 32.0942 135.844H23.6512ZM25.6394 134.306H32.0942C33.7101 134.306 34.9357 134.019 35.7709 133.446C36.6062 132.873 37.0238 131.986 37.0238 130.788C37.0238 129.606 36.6062 128.737 35.7709 128.181C34.9357 127.625 33.7101 127.347 32.0942 127.347H25.6394V134.306ZM25.6394 125.862H31.4678C32.9385 125.862 34.0642 125.584 34.8449 125.028C35.6438 124.454 36.0433 123.612 36.0433 122.5C36.0433 121.388 35.6438 120.554 34.8449 119.998C34.0642 119.424 32.9385 119.138 31.4678 119.138H25.6394V125.862Z" fill="#28B8A6"/>
<path d="M47.5708 135.844V118.747L48.1155 119.268H40.871V117.6H56.2589V119.268H49.0415L49.559 118.747V135.844H47.5708Z" fill="#28B8A6"/>
<path d="M67.8918 136C66.4574 136 65.1229 135.774 63.8882 135.322C62.6717 134.853 61.6095 134.202 60.7017 133.368C59.812 132.516 59.1129 131.535 58.6045 130.423C58.1143 129.293 57.8692 128.06 57.8692 126.722C57.8692 125.384 58.1143 124.159 58.6045 123.047C59.1129 121.918 59.812 120.936 60.7017 120.102C61.6095 119.251 62.6717 118.599 63.8882 118.147C65.1047 117.678 66.4392 117.444 67.8918 117.444C69.3262 117.444 70.6516 117.678 71.8681 118.147C73.0846 118.599 74.1377 119.242 75.0274 120.076C75.9353 120.91 76.6343 121.892 77.1245 123.021C77.6329 124.15 77.8871 125.384 77.8871 126.722C77.8871 128.06 77.6329 129.293 77.1245 130.423C76.6343 131.552 75.9353 132.534 75.0274 133.368C74.1377 134.202 73.0846 134.853 71.8681 135.322C70.6516 135.774 69.3262 136 67.8918 136ZM67.8918 134.28C69.0357 134.28 70.0888 134.098 71.0511 133.733C72.0315 133.35 72.8758 132.82 73.584 132.143C74.3102 131.448 74.8731 130.649 75.2726 129.745C75.672 128.824 75.8717 127.816 75.8717 126.722C75.8717 125.627 75.672 124.628 75.2726 123.725C74.8731 122.804 74.3102 122.005 73.584 121.327C72.8758 120.632 72.0315 120.102 71.0511 119.737C70.0888 119.355 69.0357 119.164 67.8918 119.164C66.7479 119.164 65.6857 119.355 64.7053 119.737C63.7248 120.102 62.8714 120.632 62.1451 121.327C61.437 122.005 60.8742 122.804 60.4565 123.725C60.0571 124.628 59.8574 125.627 59.8574 126.722C59.8574 127.799 60.0571 128.798 60.4565 129.719C60.8742 130.64 61.437 131.448 62.1451 132.143C62.8714 132.82 63.7248 133.35 64.7053 133.733C65.6857 134.098 66.7479 134.28 67.8918 134.28Z" fill="#28B8A6"/>
<path d="M93.8902 134.176L93.4 134.697V117.6H95.3882V134.697L94.8435 134.176H104.621L104.076 134.697V117.6H106.064V135.844H82.6965V117.6H84.6847V134.697L84.1672 134.176H93.8902Z" fill="#28B8A6"/>
<path d="M125.531 135.844L118.205 126.748L119.839 125.81L127.846 135.844H125.531ZM112.485 135.844V117.6H114.446V135.844H112.485ZM113.847 127.478V125.784H119.811V127.478H113.847ZM120.002 126.93L118.15 126.618L125.258 117.6H127.437L120.002 126.93Z" fill="#28B8A6"/>
<path d="M139.278 136C137.844 136 136.509 135.774 135.274 135.322C134.058 134.853 132.996 134.202 132.088 133.368C131.198 132.516 130.499 131.535 129.991 130.423C129.501 129.293 129.255 128.06 129.255 126.722C129.255 125.384 129.501 124.159 129.991 123.047C130.499 121.918 131.198 120.936 132.088 120.102C132.996 119.251 134.058 118.599 135.274 118.147C136.491 117.678 137.826 117.444 139.278 117.444C140.712 117.444 142.038 117.678 143.254 118.147C144.471 118.599 145.524 119.242 146.414 120.076C147.322 120.91 148.021 121.892 148.511 123.021C149.019 124.15 149.273 125.384 149.273 126.722C149.273 128.06 149.019 129.293 148.511 130.423C148.021 131.552 147.322 132.534 146.414 133.368C145.524 134.202 144.471 134.853 143.254 135.322C142.038 135.774 140.712 136 139.278 136ZM139.278 134.28C140.422 134.28 141.475 134.098 142.437 133.733C143.418 133.35 144.262 132.82 144.97 132.143C145.697 131.448 146.259 130.649 146.659 129.745C147.058 128.824 147.258 127.816 147.258 126.722C147.258 125.627 147.058 124.628 146.659 123.725C146.259 122.804 145.697 122.005 144.97 121.327C144.262 120.632 143.418 120.102 142.437 119.737C141.475 119.355 140.422 119.164 139.278 119.164C138.134 119.164 137.072 119.355 136.092 119.737C135.111 120.102 134.258 120.632 133.531 121.327C132.823 122.005 132.26 122.804 131.843 123.725C131.443 124.628 131.244 125.627 131.244 126.722C131.244 127.799 131.443 128.798 131.843 129.719C132.26 130.64 132.823 131.448 133.531 132.143C134.258 132.82 135.111 133.35 136.092 133.733C137.072 134.098 138.134 134.28 139.278 134.28Z" fill="#28B8A6"/>
<path d="M152.162 136C151.908 136 151.663 135.983 151.426 135.948C151.19 135.931 150.927 135.887 150.637 135.818L150.8 134.098C151.109 134.167 151.408 134.202 151.699 134.202C152.516 134.202 153.17 133.898 153.66 133.29C154.168 132.664 154.549 131.708 154.804 130.423C155.058 129.12 155.221 127.452 155.294 125.419L155.566 117.6H168.503V135.844H166.515V118.747L167.032 119.268H156.846L157.337 118.721L157.091 125.367C157.019 127.191 156.883 128.772 156.683 130.11C156.483 131.43 156.193 132.534 155.811 133.42C155.43 134.289 154.94 134.94 154.341 135.375C153.741 135.792 153.015 136 152.162 136Z" fill="#28B8A6"/>
<path d="M172.13 135.844L180.845 117.6H182.833L191.548 135.844H189.424L181.417 118.721H182.234L174.227 135.844H172.13ZM175.561 130.97L176.16 129.406H187.245L187.844 130.97H175.561Z" fill="#28B8A6"/>
<defs>
<filter id="filter0_d_33_3880" x="4.06934" y="76.6184" width="185.863" height="37.6904" filterUnits="userSpaceOnUse" color-interpolation-filters="sRGB">
<feFlood flood-opacity="0" result="BackgroundImageFix"/>
<feColorMatrix in="SourceAlpha" type="matrix" values="0 0 0 0 0 0 0 0 0 0 0 0 0 0 0 0 0 0 127 0" result="hardAlpha"/>
<feOffset dy="4"/>
<feGaussianBlur stdDeviation="2"/>
<feComposite in2="hardAlpha" operator="out"/>
<feColorMatrix type="matrix" values="0 0 0 0 0 0 0 0 0 0 0 0 0 0 0 0 0 0 0.25 0"/>
<feBlend mode="normal" in2="BackgroundImageFix" result="effect1_dropShadow_33_3880"/>
<feBlend mode="normal" in="SourceGraphic" in2="effect1_dropShadow_33_3880" result="shape"/>
</filter>
<filter id="filter1_d_33_3880" x="65.5688" y="10.3274" width="64.7354" height="56.5469" filterUnits="userSpaceOnUse" color-interpolation-filters="sRGB">
<feFlood flood-opacity="0" result="BackgroundImageFix"/>
<feColorMatrix in="SourceAlpha" type="matrix" values="0 0 0 0 0 0 0 0 0 0 0 0 0 0 0 0 0 0 127 0" result="hardAlpha"/>
<feOffset dy="4"/>
<feGaussianBlur stdDeviation="2"/>
<feComposite in2="hardAlpha" operator="out"/>
<feColorMatrix type="matrix" values="0 0 0 0 0 0 0 0 0 0 0 0 0 0 0 0 0 0 0.25 0"/>
<feBlend mode="normal" in2="BackgroundImageFix" result="effect1_dropShadow_33_3880"/>
<feBlend mode="normal" in="SourceGraphic" in2="effect1_dropShadow_33_3880" result="shape"/>
</filter>
<filter id="filter2_d_33_3880" x="69.52" y="14.3481" width="55.7881" height="60.3503" filterUnits="userSpaceOnUse" color-interpolation-filters="sRGB">
<feFlood flood-opacity="0" result="BackgroundImageFix"/>
<feColorMatrix in="SourceAlpha" type="matrix" values="0 0 0 0 0 0 0 0 0 0 0 0 0 0 0 0 0 0 127 0" result="hardAlpha"/>
<feOffset dy="4"/>
<feGaussianBlur stdDeviation="2"/>
<feComposite in2="hardAlpha" operator="out"/>
<feColorMatrix type="matrix" values="0 0 0 0 0 0 0 0 0 0 0 0 0 0 0 0 0 0 0.25 0"/>
<feBlend mode="normal" in2="BackgroundImageFix" result="effect1_dropShadow_33_3880"/>
<feBlend mode="normal" in="SourceGraphic" in2="effect1_dropShadow_33_3880" result="shape"/>
</filter>
</defs>
</svg>
