<svg width="1503" height="625" viewBox="0 0 1503 625" fill="none" xmlns="http://www.w3.org/2000/svg">
<g opacity="0.3" clip-path="url(#clip0_33_63)">
<path d="M1416.48 599.515L1470.62 624.462L1268.26 699.339L1214.08 674.356L1416.48 599.515Z" fill="white"/>
<path d="M1320.12 555.081L1374.27 580.028L1171.87 654.905L1117.72 629.922L1320.12 555.081Z" fill="white"/>
<path d="M1223.74 510.646L1277.92 535.593L1075.52 610.471L1021.37 585.488L1223.74 510.646Z" fill="white"/>
<path d="M1127.38 466.213L1181.53 491.196L979.13 566.037L924.983 541.054L1127.38 466.213Z" fill="white"/>
<path d="M1031.03 421.778L1085.18 446.761L882.778 521.603L828.631 496.62L1031.03 421.778Z" fill="white"/>
<path d="M934.643 377.344L988.79 402.327L786.426 477.169L732.243 452.186L934.643 377.344Z" fill="white"/>
<path d="M838.291 332.911L892.438 357.894L690.038 432.736L635.891 407.789L838.291 332.911Z" fill="white"/>
<path d="M741.903 288.477L796.086 313.46L593.686 388.302L539.539 363.354L741.903 288.477Z" fill="white"/>
<path d="M645.551 244.043L699.698 269.026L497.334 343.868L443.151 318.921L645.551 244.043Z" fill="white"/>
<path d="M549.199 199.644L603.346 224.592L400.946 299.433L346.799 274.486L549.199 199.644Z" fill="white"/>
<path d="M452.812 155.21L506.994 180.157L304.594 255.035L250.447 230.052L452.812 155.21Z" fill="white"/>
<path d="M356.46 110.777L410.606 135.725L208.206 210.602L154.06 185.619L356.46 110.777Z" fill="white"/>
<path d="M260.108 66.3431L314.254 91.2904L111.854 166.168L57.7075 141.185L260.108 66.3431Z" fill="white"/>
<path d="M163.719 21.9095L217.866 46.8925L15.5018 121.734L-38.6807 96.7512L163.719 21.9095Z" fill="white"/>
<path d="M67.3673 -22.5248L121.514 2.45814L-80.8859 77.2998L-135.033 52.3169L67.3673 -22.5248Z" fill="white"/>
</g>
<defs>
<clipPath id="clip0_33_63">
<rect width="1503" height="625" fill="white" transform="matrix(-1 0 0 1 1503 0)"/>
</clipPath>
</defs>
</svg>
