<svg width="901" height="357" viewBox="0 0 901 357" fill="none" xmlns="http://www.w3.org/2000/svg">
<g opacity="0.3" clip-path="url(#clip0_33_4688)">
<path d="M-6.25051 356.41L-40.7139 372.271L88.0249 419.854L122.466 403.993L-6.25051 356.41Z" fill="white"/>
<path d="M55.0349 328.16L20.5942 344.021L149.31 391.627L183.774 375.743L55.0349 328.16Z" fill="white"/>
<path d="M116.321 299.91L81.8804 315.771L210.619 363.376L245.06 347.493L116.321 299.91Z" fill="white"/>
<path d="M177.629 271.659L143.166 287.52L271.905 335.126L306.346 319.242L177.629 271.659Z" fill="white"/>
<path d="M238.915 243.409L204.475 259.293L333.213 306.876L367.654 290.992L238.915 243.409Z" fill="white"/>
<path d="M300.201 215.159L265.76 231.042L394.499 278.625L428.94 262.742L300.201 215.159Z" fill="white"/>
<path d="M361.51 186.908L327.069 202.792L455.785 250.375L490.248 234.491L361.51 186.908Z" fill="white"/>
<path d="M422.796 158.659L388.355 174.542L517.094 222.125L551.534 206.264L422.796 158.659Z" fill="white"/>
<path d="M484.104 130.408L449.641 146.292L578.379 193.875L612.82 178.014L484.104 130.408Z" fill="white"/>
<path d="M545.39 102.158L510.949 118.042L639.665 165.625L674.129 149.764L545.39 102.158Z" fill="white"/>
<path d="M606.676 73.9302L572.235 89.7911L700.974 137.374L735.414 121.513L606.676 73.9302Z" fill="white"/>
<path d="M667.984 45.6797L633.521 61.5407L762.259 109.146L796.7 93.2626L667.984 45.6797Z" fill="white"/>
<path d="M729.27 17.4302L694.829 33.2912L823.568 80.8968L858.009 65.0131L729.27 17.4302Z" fill="white"/>
<path d="M790.556 -10.8203L756.115 5.04066L884.854 52.6463L919.295 36.7626L790.556 -10.8203Z" fill="white"/>
<path d="M851.865 -39.0703L817.424 -23.1866L946.14 24.3963L980.603 8.51261L851.865 -39.0703Z" fill="white"/>
</g>
<defs>
<clipPath id="clip0_33_4688">
<rect width="901" height="357" fill="white"/>
</clipPath>
</defs>
</svg>
