<svg width="115" height="36" viewBox="0 0 115 36" fill="none" xmlns="http://www.w3.org/2000/svg">
<path d="M37 3.23535C37 2.41312 37.6665 1.74658 38.4888 1.74658H112.183C113.005 1.74658 113.671 2.41312 113.671 3.23535V16.6342C113.671 17.4564 113.005 18.123 112.183 18.123H38.4888C37.6665 18.123 37 17.4564 37 16.6342V3.23535Z" fill="#25B095"/>
<g filter="url(#filter0_d_33_3633)">
<path d="M44.0621 15.7565V5.55974H39.9766V4.11257H49.833V5.55974H45.7474V15.7565H44.0621Z" fill="white"/>
<path d="M49.2841 15.7565L54.6804 4.11257H56.3657L61.7791 15.7565H59.9917L55.1741 5.04408H55.855L51.0375 15.7565H49.2841ZM51.5822 12.8455L52.0419 11.5148H58.749L59.2426 12.8455H51.5822Z" fill="white"/>
<path d="M68.244 15.8896C66.6779 15.8896 65.4466 15.4516 64.55 14.5755C63.6535 13.6994 63.2052 12.4186 63.2052 10.733V4.11257H64.9075V10.6665C64.9075 11.9639 65.1969 12.9121 65.7757 13.5109C66.3658 14.1097 67.1943 14.4092 68.2611 14.4092C69.3392 14.4092 70.1677 14.1097 70.7464 13.5109C71.3366 12.9121 71.6316 11.9639 71.6316 10.6665V4.11257H73.2829V10.733C73.2829 12.4186 72.8346 13.6994 71.9381 14.5755C71.0529 15.4516 69.8215 15.8896 68.244 15.8896Z" fill="white"/>
<path d="M76.7729 15.7565V4.11257H81.4202C82.4643 4.11257 83.3552 4.27336 84.0929 4.59496C84.8305 4.91655 85.398 5.38231 85.7952 5.99223C86.1924 6.60216 86.391 7.32852 86.391 8.17132C86.391 9.01412 86.1924 9.74048 85.7952 10.3504C85.398 10.9492 84.8305 11.4095 84.0929 11.731C83.3552 12.0526 82.4643 12.2134 81.4202 12.2134H77.7092L78.4752 11.4483V15.7565H76.7729ZM84.7397 15.7565L81.7096 11.5314H83.5311L86.5953 15.7565H84.7397ZM78.4752 11.6146L77.7092 10.7995H81.3692C82.4586 10.7995 83.2814 10.5722 83.8375 10.1175C84.4049 9.65177 84.6887 9.00303 84.6887 8.17132C84.6887 7.33961 84.4049 6.69642 83.8375 6.24175C83.2814 5.78708 82.4586 5.55974 81.3692 5.55974H77.7092L78.4752 4.72803V11.6146Z" fill="white"/>
<path d="M94.078 15.8896C92.5119 15.8896 91.2805 15.4516 90.384 14.5755C89.4874 13.6994 89.0391 12.4186 89.0391 10.733V4.11257H90.7415V10.6665C90.7415 11.9639 91.0309 12.9121 91.6096 13.5109C92.1998 14.1097 93.0282 14.4092 94.095 14.4092C95.1732 14.4092 96.0016 14.1097 96.5804 13.5109C97.1705 12.9121 97.4656 11.9639 97.4656 10.6665V4.11257H99.1169V10.733C99.1169 12.4186 98.6686 13.6994 97.772 14.5755C96.8868 15.4516 95.6555 15.8896 94.078 15.8896Z" fill="white"/>
<path d="M106.08 15.8896C105.172 15.8896 104.304 15.7565 103.475 15.4904C102.647 15.2131 101.994 14.8583 101.517 14.4258L102.147 13.1283C102.601 13.5165 103.18 13.838 103.884 14.0931C104.587 14.3482 105.319 14.4757 106.08 14.4757C106.772 14.4757 107.334 14.3981 107.765 14.2428C108.196 14.0876 108.514 13.8769 108.718 13.6107C108.922 13.3335 109.025 13.023 109.025 12.6792C109.025 12.28 108.888 11.9584 108.616 11.7144C108.355 11.4704 108.009 11.2764 107.578 11.1322C107.158 10.977 106.692 10.8439 106.182 10.733C105.671 10.6221 105.155 10.4946 104.633 10.3504C104.122 10.1952 103.651 10.0011 103.22 9.76821C102.8 9.53533 102.459 9.22482 102.198 8.83669C101.937 8.43747 101.807 7.92735 101.807 7.30634C101.807 6.70751 101.966 6.15858 102.283 5.65955C102.613 5.14943 103.112 4.74467 103.781 4.44525C104.462 4.13475 105.325 3.97949 106.369 3.97949C107.061 3.97949 107.748 4.06821 108.429 4.24564C109.11 4.42307 109.7 4.67813 110.199 5.01081L109.637 6.34155C109.127 6.00887 108.588 5.77044 108.02 5.62628C107.453 5.47103 106.902 5.3934 106.369 5.3934C105.699 5.3934 105.149 5.47657 104.718 5.64292C104.286 5.80926 103.969 6.03105 103.764 6.30829C103.572 6.58552 103.475 6.89603 103.475 7.2398C103.475 7.65011 103.606 7.97725 103.867 8.22122C104.139 8.46519 104.485 8.65926 104.905 8.80342C105.336 8.94758 105.807 9.08066 106.318 9.20264C106.829 9.31354 107.339 9.44107 107.85 9.58523C108.372 9.72939 108.843 9.91791 109.263 10.1508C109.694 10.3837 110.04 10.6942 110.301 11.0823C110.562 11.4704 110.693 11.9695 110.693 12.5794C110.693 13.1671 110.528 13.7161 110.199 14.2262C109.87 14.7252 109.359 15.13 108.667 15.4405C107.986 15.7399 107.124 15.8896 106.08 15.8896Z" fill="white"/>
</g>
<path d="M13.5164 3.12C14.62 1.21456 17.3788 1.21456 18.4824 3.12L30.4459 23.7767C31.5494 25.6822 30.17 28.064 27.9629 28.064H4.03593C1.82883 28.064 0.449399 25.6822 1.55295 23.7767L13.5164 3.12Z" fill="white"/>
<path fill-rule="evenodd" clip-rule="evenodd" d="M18.6256 3.03767L30.5891 23.6944C31.7567 25.7105 30.2967 28.2291 27.9635 28.2291H4.03653C1.70334 28.2291 0.243268 25.7105 1.41091 23.6944L13.3744 3.03767C14.5414 1.0226 17.4586 1.0226 18.6256 3.03767ZM18.483 3.12028C17.3794 1.21484 14.6206 1.21484 13.517 3.12028L1.55354 23.777C0.449994 25.6825 1.82943 28.0643 4.03653 28.0643H27.9635C30.1706 28.0643 31.55 25.6825 30.4465 23.777L18.483 3.12028Z" fill="#D9D9D9"/>
<path d="M13.9707 3.3797C14.8736 1.8207 17.1309 1.8207 18.0338 3.3797L29.9972 24.0364C30.9001 25.5954 29.7715 27.5442 27.9657 27.5442H4.03876C2.23296 27.5442 1.10433 25.5954 2.00723 24.0364L13.9707 3.3797Z" fill="#E86D67"/>
<g filter="url(#filter1_d_33_3633)">
<path d="M16.0025 5.58838L27.063 24.6861H4.94189L16.0025 5.58838Z" fill="white"/>
</g>
<g filter="url(#filter2_d_33_3633)">
<path d="M9.08563 24.1693C10.0801 24.5342 10.957 24.6302 11.7164 24.4574C12.4759 24.2845 13.1539 23.6987 13.7506 22.6999L14.6727 21.1729L15.0253 20.7695L21.643 7.17041H25.1146L16.8696 23.449C16.2006 24.8127 15.405 25.8499 14.4829 26.5606C13.5607 27.2713 12.5663 27.6651 11.4995 27.7419C10.4508 27.8379 9.35684 27.6267 8.21773 27.108L9.08563 24.1693ZM14.9439 23.9964L6.48193 7.17041H10.2519L16.8696 21.1152L14.9439 23.9964Z" fill="#212121"/>
</g>
<path d="M37 27.7375L40.4651 20.4192H41.2556L44.7207 27.7375H43.876L40.6925 20.8687H41.0173L37.8338 27.7375H37ZM38.3644 25.7825L38.6026 25.1552H43.0098L43.248 25.7825H38.3644Z" fill="#25B095"/>
<path d="M46.1732 27.7375V20.4192H49.3243C50.1256 20.4192 50.7536 20.5795 51.2084 20.9001C51.6704 21.2137 51.9014 21.6772 51.9014 22.2906C51.9014 22.897 51.6812 23.357 51.2409 23.6706C50.8005 23.9773 50.223 24.1306 49.5083 24.1306L49.6924 23.8693C50.537 23.8693 51.1795 24.0296 51.6199 24.3502C52.0602 24.6708 52.2804 25.1413 52.2804 25.7616C52.2804 26.3889 52.0494 26.8768 51.5874 27.2253C51.1326 27.5668 50.4468 27.7375 49.53 27.7375H46.1732ZM46.9637 27.1207H49.53C50.1725 27.1207 50.6598 27.0057 50.9918 26.7757C51.3239 26.5457 51.4899 26.1902 51.4899 25.7093C51.4899 25.2354 51.3239 24.8869 50.9918 24.6638C50.6598 24.4408 50.1725 24.3293 49.53 24.3293H46.9637V27.1207ZM46.9637 23.7333H49.2809C49.8657 23.7333 50.3133 23.6218 50.6237 23.3988C50.9413 23.1688 51.1001 22.8307 51.1001 22.3847C51.1001 21.9386 50.9413 21.6041 50.6237 21.381C50.3133 21.151 49.8657 21.036 49.2809 21.036H46.9637V23.7333Z" fill="#25B095"/>
<path d="M55.6833 27.7375V20.8792L55.8999 21.0883H53.0195V20.4192H59.1376V21.0883H56.2681L56.4738 20.8792V27.7375H55.6833Z" fill="#25B095"/>
<path d="M63.7627 27.8003C63.1924 27.8003 62.6618 27.7097 62.1709 27.5284C61.6872 27.3403 61.2649 27.0789 60.904 26.7443C60.5502 26.4028 60.2723 26.009 60.0702 25.5629C59.8753 25.1099 59.7778 24.615 59.7778 24.0784C59.7778 23.5417 59.8753 23.0503 60.0702 22.6042C60.2723 22.1512 60.5502 21.7574 60.904 21.4228C61.2649 21.0813 61.6872 20.8199 62.1709 20.6387C62.6546 20.4505 63.1852 20.3564 63.7627 20.3564C64.333 20.3564 64.86 20.4505 65.3436 20.6387C65.8273 20.8199 66.246 21.0778 66.5997 21.4124C66.9607 21.7469 67.2386 22.1407 67.4335 22.5938C67.6356 23.0468 67.7367 23.5417 67.7367 24.0784C67.7367 24.615 67.6356 25.1099 67.4335 25.5629C67.2386 26.016 66.9607 26.4098 66.5997 26.7443C66.246 27.0789 65.8273 27.3403 65.3436 27.5284C64.86 27.7097 64.333 27.8003 63.7627 27.8003ZM63.7627 27.1102C64.2175 27.1102 64.6362 27.0371 65.0188 26.8907C65.4086 26.7374 65.7443 26.5248 66.0258 26.253C66.3146 25.9742 66.5384 25.6535 66.6972 25.2911C66.856 24.9217 66.9354 24.5175 66.9354 24.0784C66.9354 23.6393 66.856 23.2385 66.6972 22.8761C66.5384 22.5066 66.3146 22.186 66.0258 21.9142C65.7443 21.6354 65.4086 21.4228 65.0188 21.2765C64.6362 21.1231 64.2175 21.0465 63.7627 21.0465C63.3079 21.0465 62.8856 21.1231 62.4958 21.2765C62.1059 21.4228 61.7666 21.6354 61.4779 21.9142C61.1963 22.186 60.9726 22.5066 60.8065 22.8761C60.6477 23.2385 60.5683 23.6393 60.5683 24.0784C60.5683 24.5105 60.6477 24.9113 60.8065 25.2807C60.9726 25.6501 61.1963 25.9742 61.4779 26.253C61.7666 26.5248 62.1059 26.7374 62.4958 26.8907C62.8856 27.0371 63.3079 27.1102 63.7627 27.1102Z" fill="#25B095"/>
<path d="M74.0993 27.0684L73.9044 27.2775V20.4192H74.6949V27.2775L74.4783 27.0684H78.3657L78.1492 27.2775V20.4192H78.9396V27.7375H69.6488V20.4192H70.4393V27.2775L70.2336 27.0684H74.0993Z" fill="#25B095"/>
<path d="M86.6792 27.7375L83.7664 24.0888L84.4161 23.7124L87.5996 27.7375H86.6792ZM81.4924 27.7375V20.4192H82.2721V27.7375H81.4924ZM82.0338 24.3815V23.702H84.4053V24.3815H82.0338ZM84.4811 24.162L83.7447 24.0365L86.571 20.4192H87.4372L84.4811 24.162Z" fill="#25B095"/>
<path d="M92.145 27.8003C91.5747 27.8003 91.0441 27.7097 90.5532 27.5284C90.0695 27.3403 89.6472 27.0789 89.2863 26.7443C88.9325 26.4028 88.6546 26.009 88.4525 25.5629C88.2576 25.1099 88.1601 24.615 88.1601 24.0784C88.1601 23.5417 88.2576 23.0503 88.4525 22.6042C88.6546 22.1512 88.9325 21.7574 89.2863 21.4228C89.6472 21.0813 90.0695 20.8199 90.5532 20.6387C91.0369 20.4505 91.5674 20.3564 92.145 20.3564C92.7153 20.3564 93.2422 20.4505 93.7259 20.6387C94.2096 20.8199 94.6283 21.0778 94.982 21.4124C95.343 21.7469 95.6209 22.1407 95.8158 22.5938C96.0179 23.0468 96.119 23.5417 96.119 24.0784C96.119 24.615 96.0179 25.1099 95.8158 25.5629C95.6209 26.016 95.343 26.4098 94.982 26.7443C94.6283 27.0789 94.2096 27.3403 93.7259 27.5284C93.2422 27.7097 92.7153 27.8003 92.145 27.8003ZM92.145 27.1102C92.5998 27.1102 93.0185 27.0371 93.4011 26.8907C93.7909 26.7374 94.1266 26.5248 94.4081 26.253C94.6969 25.9742 94.9206 25.6535 95.0795 25.2911C95.2383 24.9217 95.3177 24.5175 95.3177 24.0784C95.3177 23.6393 95.2383 23.2385 95.0795 22.8761C94.9206 22.5066 94.6969 22.186 94.4081 21.9142C94.1266 21.6354 93.7909 21.4228 93.4011 21.2765C93.0185 21.1231 92.5998 21.0465 92.145 21.0465C91.6902 21.0465 91.2679 21.1231 90.878 21.2765C90.4882 21.4228 90.1489 21.6354 89.8602 21.9142C89.5786 22.186 89.3548 22.5066 89.1888 22.8761C89.03 23.2385 88.9506 23.6393 88.9506 24.0784C88.9506 24.5105 89.03 24.9113 89.1888 25.2807C89.3548 25.6501 89.5786 25.9742 89.8602 26.253C90.1489 26.5248 90.4882 26.7374 90.878 26.8907C91.2679 27.0371 91.6902 27.1102 92.145 27.1102Z" fill="#25B095"/>
<path d="M97.2674 27.8003C97.1663 27.8003 97.0689 27.7933 96.975 27.7794C96.8812 27.7724 96.7765 27.755 96.661 27.7271L96.726 27.0371C96.8487 27.0649 96.9678 27.0789 97.0833 27.0789C97.4082 27.0789 97.668 26.9569 97.863 26.713C98.0651 26.462 98.2167 26.0787 98.3177 25.5629C98.4188 25.0402 98.4838 24.3711 98.5127 23.5556L98.6209 20.4192H103.764V27.7375H102.974V20.8792L103.18 21.0883H99.1299L99.3248 20.8687L99.2273 23.5347C99.1985 24.2665 99.1443 24.9008 99.0649 25.4375C98.9855 25.9672 98.87 26.4098 98.7184 26.7652C98.5668 27.1137 98.3719 27.3751 98.1337 27.5493C97.8954 27.7166 97.6067 27.8003 97.2674 27.8003Z" fill="#25B095"/>
<path d="M105.206 27.7375L108.671 20.4192H109.462L112.927 27.7375H112.082L108.899 20.8687H109.224L106.04 27.7375H105.206ZM106.571 25.7825L106.809 25.1552H111.216L111.454 25.7825H106.571Z" fill="#25B095"/>
<defs>
<filter id="filter0_d_33_3633" x="35.9766" y="3.97949" width="78.7163" height="19.9102" filterUnits="userSpaceOnUse" color-interpolation-filters="sRGB">
<feFlood flood-opacity="0" result="BackgroundImageFix"/>
<feColorMatrix in="SourceAlpha" type="matrix" values="0 0 0 0 0 0 0 0 0 0 0 0 0 0 0 0 0 0 127 0" result="hardAlpha"/>
<feOffset dy="4"/>
<feGaussianBlur stdDeviation="2"/>
<feComposite in2="hardAlpha" operator="out"/>
<feColorMatrix type="matrix" values="0 0 0 0 0 0 0 0 0 0 0 0 0 0 0 0 0 0 0.25 0"/>
<feBlend mode="normal" in2="BackgroundImageFix" result="effect1_dropShadow_33_3633"/>
<feBlend mode="normal" in="SourceGraphic" in2="effect1_dropShadow_33_3633" result="shape"/>
</filter>
<filter id="filter1_d_33_3633" x="0.941895" y="5.58838" width="30.1211" height="27.0977" filterUnits="userSpaceOnUse" color-interpolation-filters="sRGB">
<feFlood flood-opacity="0" result="BackgroundImageFix"/>
<feColorMatrix in="SourceAlpha" type="matrix" values="0 0 0 0 0 0 0 0 0 0 0 0 0 0 0 0 0 0 127 0" result="hardAlpha"/>
<feOffset dy="4"/>
<feGaussianBlur stdDeviation="2"/>
<feComposite in2="hardAlpha" operator="out"/>
<feColorMatrix type="matrix" values="0 0 0 0 0 0 0 0 0 0 0 0 0 0 0 0 0 0 0.25 0"/>
<feBlend mode="normal" in2="BackgroundImageFix" result="effect1_dropShadow_33_3633"/>
<feBlend mode="normal" in="SourceGraphic" in2="effect1_dropShadow_33_3633" result="shape"/>
</filter>
<filter id="filter2_d_33_3633" x="2.48193" y="7.17041" width="26.6328" height="28.5942" filterUnits="userSpaceOnUse" color-interpolation-filters="sRGB">
<feFlood flood-opacity="0" result="BackgroundImageFix"/>
<feColorMatrix in="SourceAlpha" type="matrix" values="0 0 0 0 0 0 0 0 0 0 0 0 0 0 0 0 0 0 127 0" result="hardAlpha"/>
<feOffset dy="4"/>
<feGaussianBlur stdDeviation="2"/>
<feComposite in2="hardAlpha" operator="out"/>
<feColorMatrix type="matrix" values="0 0 0 0 0 0 0 0 0 0 0 0 0 0 0 0 0 0 0.25 0"/>
<feBlend mode="normal" in2="BackgroundImageFix" result="effect1_dropShadow_33_3633"/>
<feBlend mode="normal" in="SourceGraphic" in2="effect1_dropShadow_33_3633" result="shape"/>
</filter>
</defs>
</svg>
