<svg width="143" height="60" viewBox="0 0 143 60" fill="none" xmlns="http://www.w3.org/2000/svg">
<g clip-path="url(#clip0_413_2)">
<path opacity="0.8" d="M70.4047 49.2829C70.4245 49.2552 70.4442 49.2314 70.46 49.2037C70.464 49.1958 70.4718 49.1879 70.4758 49.18C70.5587 49.0533 70.6377 48.9187 70.7088 48.7801C70.7206 48.7524 70.7325 48.7247 70.7483 48.6969C70.8114 48.5742 70.8667 48.4475 70.922 48.3129C70.9457 48.2575 70.9654 48.1981 70.9852 48.1387C71.0247 48.0279 71.0641 47.917 71.0997 47.8022C71.1194 47.7349 71.1392 47.6636 71.1589 47.5924C71.1905 47.4815 71.2181 47.3667 71.2418 47.2479C71.2576 47.1727 71.2734 47.0975 71.2892 47.0183C71.3129 46.8956 71.3327 46.7728 71.3485 46.6422C71.3603 46.563 71.3721 46.4878 71.38 46.4046C71.3958 46.2621 71.4077 46.1156 71.4195 45.9691C71.4235 45.8979 71.4314 45.8306 71.4353 45.7553C71.4472 45.5336 71.4551 45.304 71.4551 45.0665C71.4551 43.1859 70.9891 41.725 70.0533 40.6877C69.232 39.785 68.154 39.2743 66.8154 39.1595C66.6258 39.1437 66.4284 39.1357 66.227 39.1357H46.0572C47.6722 39.1357 48.9477 39.6544 49.8835 40.6877C50.8193 41.725 51.2853 43.1819 51.2853 45.0665C51.2853 45.304 51.2774 45.5336 51.2655 45.7553C51.2655 45.8266 51.2537 45.8979 51.2497 45.9691C51.2379 46.1156 51.226 46.2621 51.2102 46.4046C51.2024 46.4838 51.1905 46.563 51.1787 46.6382C51.1589 46.7649 51.1431 46.8916 51.1194 47.0143C51.1036 47.0935 51.0878 47.1687 51.072 47.244C51.0484 47.3627 51.0207 47.4775 50.9891 47.5884C50.9694 47.6597 50.9536 47.7309 50.9299 47.7982C50.8944 47.913 50.8549 48.0239 50.8154 48.1348C50.7956 48.1941 50.7759 48.2535 50.7522 48.309C50.6969 48.4436 50.6416 48.5703 50.5785 48.693C50.5666 48.7207 50.5548 48.7484 50.539 48.7761C50.46 48.9226 50.3771 49.0651 50.2902 49.1997C50.2705 49.2275 50.2507 49.2512 50.2349 49.2789C50.1639 49.3779 50.0928 49.4769 50.0138 49.5679C49.9822 49.6036 49.9506 49.6392 49.919 49.6748C49.844 49.758 49.765 49.8411 49.6821 49.9163C49.6545 49.9441 49.6268 49.9718 49.5952 49.9995C49.4847 50.0985 49.3702 50.1895 49.2478 50.2766C49.2241 50.2925 49.2004 50.3043 49.1767 50.3202C49.074 50.3875 48.9674 50.4548 48.8608 50.5142C48.8174 50.5379 48.7739 50.5577 48.7305 50.5815C48.6278 50.6329 48.5252 50.6804 48.4185 50.724C48.3751 50.7398 48.3356 50.7596 48.2922 50.7755C48.1421 50.8309 47.9921 50.8824 47.8341 50.9259C47.8144 50.9299 47.7947 50.9338 47.7749 50.9378C47.6328 50.9734 47.4867 51.0051 47.3327 51.0328C47.2813 51.0407 47.226 51.0486 47.1708 51.0566C47.0444 51.0764 46.9141 51.0922 46.7798 51.1041C46.7246 51.108 46.6693 51.1159 46.614 51.1199C46.4284 51.1318 46.2389 51.1397 46.0414 51.1397H66.2112C66.4087 51.1397 66.5982 51.1318 66.7838 51.1199C66.8391 51.1199 66.8944 51.112 66.9496 51.1041C67.0839 51.0922 67.2102 51.0764 67.3406 51.0566C67.3958 51.0486 67.4511 51.0407 67.5024 51.0328C67.6525 51.0051 67.8026 50.9734 67.9447 50.9378C67.9644 50.9338 67.9842 50.9299 68.0039 50.9259C68.1619 50.8824 68.3159 50.8309 68.462 50.7755C68.5054 50.7596 68.5449 50.7398 68.5883 50.724C68.6949 50.6804 68.7976 50.6329 68.9003 50.5815C68.9437 50.5577 68.9872 50.5379 69.0306 50.5142C69.1411 50.4548 69.2438 50.3914 69.3465 50.3202C69.3702 50.3043 69.3939 50.2925 69.4176 50.2727C69.4255 50.2687 69.4294 50.2647 69.4373 50.2608C69.5518 50.1776 69.6624 50.0905 69.765 49.9955C69.7927 49.9678 69.8203 49.9401 69.8519 49.9124C69.9348 49.8372 70.0138 49.754 70.0888 49.6709C70.1204 49.6352 70.152 49.5996 70.1836 49.564C70.2626 49.4729 70.3336 49.3739 70.4047 49.275V49.2829Z" fill="white"/>
<path opacity="0.8" d="M56.3988 55.6609C48.5725 47.2795 53.1214 31.1977 65.2793 30.4296C65.5913 30.4098 65.9032 30.3979 66.2231 30.3979H46.0533C45.7334 30.3979 45.4215 30.4098 45.1095 30.4296C45.0306 30.4336 44.9555 30.4415 44.8766 30.4455C44.5686 30.4692 44.2606 30.5009 43.9605 30.5444C43.6604 30.588 43.3642 30.6474 43.072 30.7107C42.997 30.7266 42.9259 30.7424 42.8509 30.7622C42.5626 30.8295 42.2744 30.9047 41.9901 30.9918C37.2714 32.4606 33.6426 36.776 32.6278 41.5745C32.612 41.6497 32.5962 41.7249 32.5844 41.8001C32.5251 42.0971 32.4738 42.398 32.4343 42.7068C32.4343 42.7345 32.4264 42.7622 32.4225 42.7899C32.379 43.1185 32.3474 43.4511 32.3238 43.7915C32.3198 43.8747 32.3119 43.9539 32.308 44.037C32.2882 44.3815 32.2764 44.7259 32.2764 45.0783C32.2764 49.3105 33.5952 52.842 36.2329 55.6649C38.8667 58.4837 42.1441 59.8971 46.0572 59.8971H66.227C62.3139 59.8971 59.0365 58.4837 56.4027 55.6649L56.3988 55.6609Z" fill="white"/>
<path d="M76.0474 34.6302C78.6811 37.453 80 40.937 80 45.0743C80 49.2115 78.7009 52.8381 76.1105 55.6609C73.5163 58.4798 70.2191 59.8932 66.2231 59.8932C62.227 59.8932 59.0326 58.4798 56.3988 55.6609C53.7611 52.842 52.4422 49.3105 52.4422 45.0743C52.4422 40.8381 53.7808 37.453 56.462 34.6302C59.1431 31.8074 62.3968 30.3979 66.2231 30.3979C70.0493 30.3979 73.4097 31.8113 76.0474 34.6302ZM66.2231 51.1436C69.7098 51.1436 71.4511 49.1205 71.4511 45.0743C71.4511 43.1937 70.9852 41.7328 70.0493 40.6955C69.1135 39.6622 67.8381 39.1436 66.2231 39.1436C64.6081 39.1436 63.4788 39.6622 62.5864 40.6955C61.694 41.7328 61.2478 43.1898 61.2478 45.0743C61.2478 49.1205 62.9062 51.1436 66.2231 51.1436Z" fill="#273432"/>
<path opacity="0.8" d="M27.5498 55.0394C27.8381 52.6046 29.769 50.3637 31.0878 48.495C33.4373 45.1575 35.7828 41.824 38.1323 38.4865C44.0118 30.1328 49.8953 21.7791 55.7749 13.4254C58.4482 9.62866 61.4965 5.30137 63.8736 1.91635C64.6515 0.811765 65.9546 -0.0236031 67.305 0.0555787C64.0947 0.0397423 60.8845 0.0476605 57.6742 0.0476605H50.7443C48.458 0.0476605 45.7729 -0.415553 44.0592 1.48877C44.0237 1.52836 43.9881 1.56399 43.9565 1.60358C43.846 1.73423 43.7354 1.8728 43.6288 2.02325C41.1925 5.48349 38.7561 8.94373 36.3198 12.404C31.38 19.4234 26.4403 26.439 21.4965 33.4584C17.5597 39.0486 13.6229 44.6428 9.68606 50.2331C8.54884 51.8484 7.09573 53.7052 7.12337 55.7877C7.20235 61.0453 14.1402 59.8893 17.6387 59.8893H30.2507C30.4837 59.8893 30.7206 59.8893 30.9536 59.8972C29.5084 59.6715 28.5252 58.567 27.9408 57.2288C27.613 56.4805 27.459 55.7639 27.5459 55.0354L27.5498 55.0394Z" fill="white"/>
<path d="M71.4511 4.4266C71.4511 5.46389 71.1115 6.49325 70.4324 7.53053L34.8391 57.7793C33.9862 59.1887 32.7976 59.8935 31.2655 59.8935C30.3297 59.8935 29.5242 59.5648 28.841 58.9076C27.8223 58.1514 27.309 57.0706 27.309 55.6612C27.309 54.4378 27.6485 53.357 28.3277 52.4147L63.7986 2.02344C64.7305 0.70902 65.923 0.0478516 67.3682 0.0478516C68.4738 0.0478516 69.4294 0.499188 70.2389 1.38998C71.0444 2.28474 71.4472 3.29431 71.4472 4.42265L71.4511 4.4266Z" fill="#273432"/>
<path opacity="0.8" d="M38.302 18.3901C38.918 17.2934 39.1944 15.9473 39.1747 14.6765C39.151 13.0889 38.9773 11.7151 37.5952 10.2344C36.0789 8.60717 34.5113 8.78533 32.766 8.78929C26.4323 8.79721 20.0987 8.80117 13.765 8.80908C15.3603 8.66656 16.9476 9.5336 17.8835 10.8361C20.1895 14.047 18.8312 21.4188 13.769 20.7853C20.1184 20.7932 26.4718 20.8012 32.8213 20.8091C34.0256 20.8091 35.2774 20.8012 36.3632 20.2786C37.2043 19.8708 37.8479 19.1977 38.302 18.3901Z" fill="white"/>
<path opacity="0.8" d="M20.1816 14.8703C20.1895 13.7222 20.3198 12.578 20.5765 11.4616C21.2912 8.35764 22.9575 5.46355 25.3623 3.37711C27.6565 1.38964 30.8193 -0.0118751 33.8914 0.0475112C31.2497 0.31277 28.4106 0.0475112 25.7374 0.0395931C22.9575 0.0277158 20.1777 0.0158385 17.3939 0.00396126C14.4126 -0.007916 11.3445 -0.00395695 8.58834 1.1323C5.60709 2.35962 3.24974 4.84989 1.78873 7.72419C-0.0868857 11.4141 -0.560726 15.8443 0.718642 19.7796C1.99801 23.7149 5.07007 27.0762 8.95161 28.4817C11.7828 29.5071 14.8667 29.4992 17.8756 29.4794C23.2813 29.4438 28.6831 29.4081 34.0888 29.3725C29.7808 29.519 25.5084 27.2979 22.9694 23.806C21.1017 21.2405 20.1619 18.0534 20.1816 14.8703Z" fill="white"/>
<path d="M43.7078 25.2434C41.1135 28.0227 37.8559 29.4084 33.9467 29.4084C30.0375 29.4084 26.7404 28.0227 24.0592 25.2434C21.3781 22.4681 20.0395 19.0118 20.0395 14.8706C20.0395 10.7294 21.3781 7.22563 24.0592 4.35529C26.7364 1.48495 30.0336 0.0517578 33.9467 0.0517578C37.8598 0.0517578 41.1135 1.46515 43.7078 4.28402C46.2981 7.10685 47.5972 10.6344 47.5972 14.8746C47.5972 19.1148 46.2981 22.4721 43.7078 25.2474V25.2434ZM28.845 14.8706C28.845 18.8218 30.5469 20.7974 33.9467 20.7974C35.5617 20.7974 36.8371 20.2589 37.773 19.1742C38.7088 18.0973 39.1747 16.6601 39.1747 14.8706C39.1747 12.9901 38.7088 11.5054 37.773 10.4246C36.8371 9.34374 35.5617 8.79739 33.9467 8.79739C30.5429 8.79739 28.845 10.8244 28.845 14.8706Z" fill="#273432"/>
</g>
<g clip-path="url(#clip1_413_2)">
<path opacity="0.8" d="M134.802 32.1265C134.809 32.106 134.818 32.088 134.823 32.0683C134.824 32.0627 134.827 32.0565 134.829 32.0509C134.859 31.9587 134.886 31.8621 134.907 31.7645C134.909 31.7454 134.912 31.7262 134.917 31.7064C134.936 31.6199 134.949 31.5322 134.961 31.4397C134.967 31.4014 134.969 31.3613 134.971 31.3212C134.977 31.246 134.983 31.1708 134.986 31.0937C134.987 31.0488 134.988 31.0013 134.988 30.9539C134.989 30.88 134.988 30.8042 134.982 30.7267C134.98 30.6775 134.977 30.6283 134.974 30.5766C134.968 30.4966 134.96 30.4173 134.948 30.3337C134.942 30.2827 134.937 30.2341 134.928 30.1813C134.914 30.0904 134.897 29.9977 134.88 29.9049C134.871 29.8601 134.865 29.8171 134.855 29.7699C134.825 29.6305 134.792 29.487 134.752 29.3398C134.44 28.1746 133.909 27.3469 133.157 26.8596C132.498 26.4367 131.746 26.2992 130.897 26.4503C130.777 26.4719 130.654 26.4998 130.529 26.5332L118.032 29.8817C119.033 29.6135 119.909 29.7231 120.661 30.208C121.413 30.6953 121.943 31.5206 122.256 32.6882C122.295 32.8354 122.329 32.9789 122.358 33.1183C122.37 33.1624 122.374 33.2085 122.384 33.2534C122.401 33.3461 122.418 33.4388 122.432 33.5297C122.44 33.5801 122.446 33.6311 122.451 33.6797C122.46 33.7615 122.471 33.8426 122.477 33.9226C122.48 33.9742 122.483 34.0235 122.485 34.0727C122.49 34.1502 122.492 34.2259 122.491 34.2999C122.491 34.3473 122.493 34.3941 122.489 34.4397C122.486 34.5167 122.48 34.592 122.474 34.6672C122.472 34.7073 122.469 34.7473 122.464 34.7856C122.452 34.8782 122.439 34.9659 122.42 35.0524C122.417 35.0715 122.415 35.0907 122.409 35.1105C122.385 35.2143 122.357 35.3164 122.326 35.4142C122.318 35.4347 122.31 35.4527 122.305 35.4725C122.277 35.5456 122.249 35.6187 122.216 35.6882C122.202 35.7155 122.188 35.7429 122.175 35.7702C122.142 35.8342 122.107 35.8988 122.068 35.9591C122.055 35.9809 122.043 36.0027 122.028 36.0251C121.976 36.1048 121.92 36.1802 121.859 36.2545C121.847 36.2682 121.834 36.2795 121.822 36.2932C121.769 36.352 121.714 36.4114 121.658 36.4659C121.635 36.4878 121.612 36.5073 121.589 36.5292C121.534 36.5781 121.478 36.6246 121.419 36.6693C121.395 36.6863 121.374 36.7051 121.349 36.7222C121.266 36.7814 121.181 36.8382 121.091 36.8914C121.079 36.8972 121.067 36.9029 121.056 36.9086C120.974 36.9543 120.888 36.9982 120.798 37.0409C120.767 37.0543 120.734 37.0684 120.701 37.0825C120.626 37.1157 120.548 37.1472 120.467 37.1768C120.433 37.1885 120.4 37.2025 120.367 37.2142C120.254 37.2523 120.138 37.2887 120.015 37.3215L132.512 33.9731C132.634 33.9403 132.75 33.9039 132.863 33.8658C132.897 33.8566 132.93 33.8425 132.963 33.8284C133.045 33.7988 133.12 33.768 133.198 33.7341C133.231 33.72 133.264 33.7059 133.294 33.6925C133.382 33.6504 133.47 33.6059 133.552 33.5602C133.564 33.5545 133.575 33.5487 133.587 33.543C133.678 33.4898 133.764 33.4323 133.846 33.3738C133.87 33.3567 133.891 33.3379 133.916 33.3209C133.974 33.2762 134.03 33.2297 134.085 33.1808C134.108 33.1589 134.132 33.1394 134.155 33.1175C134.213 33.0623 134.266 33.006 134.318 32.9448C134.33 32.9311 134.343 32.9198 134.354 32.9036C134.359 32.8998 134.36 32.8967 134.365 32.893C134.422 32.8224 134.476 32.7501 134.524 32.6742C134.536 32.6524 134.549 32.6307 134.564 32.6083C134.603 32.5479 134.638 32.4833 134.67 32.4193C134.684 32.392 134.698 32.3647 134.711 32.3374C134.745 32.2678 134.773 32.1947 134.8 32.1216L134.802 32.1265Z" fill="white"/>
<path opacity="0.8" d="M127.183 38.4032C120.943 34.5097 121.091 23.7908 128.496 21.2966C128.686 21.2326 128.878 21.1734 129.076 21.1203L116.579 24.4687C116.381 24.5218 116.19 24.581 116 24.645C115.952 24.6606 115.906 24.678 115.858 24.6935C115.671 24.7594 115.486 24.8301 115.307 24.9069C115.128 24.9837 114.955 25.0697 114.784 25.1574C114.74 25.1797 114.699 25.2013 114.656 25.226C114.488 25.3156 114.322 25.41 114.161 25.5112C111.481 27.2046 109.949 30.4807 110.117 33.6221C110.12 33.6713 110.122 33.7205 110.127 33.7691C110.14 33.9629 110.158 34.1578 110.185 34.3557C110.19 34.3729 110.189 34.3914 110.191 34.4092C110.219 34.62 110.255 34.8313 110.297 35.0462C110.308 35.0983 110.316 35.1487 110.327 35.2009C110.372 35.4176 110.422 35.6329 110.481 35.8512C111.183 38.4734 112.587 40.4424 114.69 41.7535C116.789 43.0627 119.055 43.3943 121.479 42.7447L133.975 39.3963C131.551 40.0459 129.286 39.7143 127.186 38.405L127.183 38.4032Z" fill="white"/>
<path d="M135.865 22.1116C137.966 23.4233 139.361 25.3629 140.048 27.9262C140.735 30.4895 140.532 32.952 139.396 35.131C138.256 37.3081 136.448 38.7312 133.972 39.3946C131.497 40.058 129.283 39.7126 127.183 38.4033C125.081 37.0948 123.678 35.1257 122.974 32.5011C122.271 29.8765 122.538 27.5571 123.731 25.363C124.923 23.169 126.705 21.7556 129.076 21.1204C131.447 20.4852 133.763 20.8031 135.865 22.1116ZM132.52 33.9736C134.68 33.3948 135.423 31.8523 134.751 29.3454C134.439 28.1803 133.908 27.3525 133.156 26.8652C132.405 26.3804 131.528 26.2708 130.528 26.5389C129.527 26.807 128.914 27.3158 128.532 28.1042C128.152 28.895 128.117 29.8717 128.43 31.0393C129.102 33.5462 130.465 34.5243 132.52 33.9736Z" fill="#273432"/>
<path opacity="0.8" d="M109.206 42.8072C108.98 41.2508 109.805 39.5419 110.312 38.1652C111.213 35.7073 112.113 33.2526 113.015 30.7948C115.27 24.6431 117.529 18.4907 119.785 12.339C120.811 9.54289 121.981 6.3558 122.892 3.86394C123.19 3.05044 123.859 2.31656 124.709 2.14143C122.717 2.66455 120.73 3.2024 118.741 3.73534L114.447 4.88579C113.031 5.26533 111.29 5.4241 110.545 6.88844C110.529 6.91887 110.513 6.94685 110.5 6.97662C110.453 7.07592 110.408 7.18013 110.367 7.29104C109.432 9.83933 108.497 12.3876 107.562 14.9359C105.666 20.105 103.771 25.2716 101.873 30.4413C100.362 34.5584 98.8514 38.6779 97.3404 42.7949C96.904 43.9845 96.3119 45.3762 96.6748 46.6618C97.5965 49.9061 101.703 48.0381 103.871 47.4573L111.685 45.3636C111.829 45.3249 111.976 45.2856 112.121 45.2518C111.188 45.3519 110.396 44.8308 109.812 44.0987C109.484 43.6895 109.27 43.2711 109.203 42.8054L109.206 42.8072Z" fill="white"/>
<path d="M128.003 4.16118C128.175 4.80384 128.136 5.49797 127.887 6.25338L114.177 43.2945C113.883 44.3094 113.263 44.9433 112.314 45.1976C111.734 45.353 111.18 45.2831 110.648 44.9894C109.891 44.69 109.394 44.1056 109.16 43.2323C108.957 42.4744 108.988 41.7484 109.252 41.0518L122.863 3.94267C123.222 2.97361 123.851 2.366 124.747 2.12608C125.432 1.94254 126.099 2.06353 126.748 2.48105C127.396 2.90168 127.813 3.46031 128 4.15939L128.003 4.16118Z" fill="#273432"/>
<path opacity="0.8" d="M109.783 18.3156C109.983 17.5339 109.931 16.654 109.708 15.8699C109.429 14.8902 109.094 14.0679 107.992 13.3799C106.782 12.6235 105.84 12.9941 104.76 13.2863C100.837 14.3427 96.9135 15.3966 92.9907 16.453C93.9554 16.0998 95.0828 16.3735 95.8789 17.0252C97.8406 18.6316 98.2229 23.4244 94.9814 23.8724C98.9166 22.8232 102.854 21.7733 106.789 20.7242C107.536 20.5242 108.31 20.3115 108.896 19.8075C109.349 19.4152 109.636 18.8914 109.783 18.3156Z" fill="white"/>
<path opacity="0.8" d="M97.9725 19.1433C97.7867 18.4307 97.6775 17.7001 97.6512 16.9658C97.5787 14.9241 98.1307 12.8544 99.2742 11.1625C100.366 9.55028 102.093 8.15687 104.006 7.68367C102.413 8.28656 100.61 8.59354 98.9525 9.03242C97.2283 9.48655 95.504 9.94068 93.7773 10.3955C91.9282 10.883 90.028 11.3948 88.509 12.5564C86.8657 13.8117 85.8186 15.7459 85.3906 17.7693C84.8411 20.3667 85.283 23.1902 86.7289 25.416C88.1749 27.6418 90.6362 29.2143 93.2744 29.4407C95.1987 29.606 97.1081 29.0891 98.969 28.5774C102.312 27.6579 105.653 26.739 108.996 25.8196C106.352 26.6255 103.336 25.9587 101.183 24.2167C99.6 22.9373 98.4887 21.1187 97.9725 19.1433Z" fill="white"/>
<path d="M114.27 21.6645C113.124 23.8171 111.336 25.2164 108.914 25.8654C106.492 26.5143 104.219 26.2032 102.097 24.9263C99.975 23.652 98.5719 21.7328 97.8844 19.1671C97.1969 16.6013 97.4446 14.2083 98.6292 11.9848C99.8114 9.76202 101.616 8.32671 104.041 7.67709C106.465 7.02746 108.716 7.363 110.791 8.67879C112.864 9.99768 114.255 11.9676 114.959 14.5946C115.663 17.2217 115.415 19.5174 114.271 21.6669L114.27 21.6645ZM103.34 17.7052C103.996 20.1532 105.378 21.0947 107.485 20.5303C108.485 20.2622 109.186 19.7169 109.586 18.8894C109.987 18.0669 110.037 17.0991 109.74 15.9904C109.428 14.8253 108.893 13.9828 108.133 13.4685C107.374 12.9542 106.493 12.8274 105.493 13.0956C103.384 13.6606 102.668 15.1984 103.34 17.7052Z" fill="#273432"/>
</g>
<defs>
<clipPath id="clip0_413_2">
<rect width="80" height="60" fill="white"/>
</clipPath>
<clipPath id="clip1_413_2">
<rect width="51.3135" height="38.4851" fill="white" transform="translate(83 13.2808) rotate(-15)"/>
</clipPath>
</defs>
</svg>
