<svg width="303" height="215" viewBox="0 0 303 215" fill="none" xmlns="http://www.w3.org/2000/svg">
<path style="mix-blend-mode:multiply" opacity="0.45" d="M299.363 103.583C303.131 105.755 303.149 109.284 299.417 111.447L123.89 213.371C120.149 215.543 114.062 215.543 110.294 213.371L2.85323 151.395C-0.914727 149.223 -0.932842 145.693 2.79889 143.53L178.326 41.6068C182.067 39.4348 188.153 39.4348 191.921 41.6068L299.354 103.583H299.363Z" fill="url(#paint0_linear_305_207)"/>
<path d="M289.454 94.9127L289.435 99.5283L176.696 34.4845L176.705 29.8779L289.454 94.9127Z" fill="#484848"/>
<path d="M176.705 29.8779L176.696 34.4845L12.7441 129.684L12.7622 125.068L176.705 29.8779Z" fill="#686868"/>
<mask id="mask0_305_207" style="mask-type:luminance" maskUnits="userSpaceOnUse" x="64" y="160" width="1" height="5">
<path d="M64.8071 164.708C64.8071 163.169 64.8071 161.631 64.8162 160.101C64.8162 161.64 64.8162 163.178 64.8071 164.708Z" fill="white"/>
</mask>
<g mask="url(#mask0_305_207)">
<path d="M65.6947 161.323V165.93C65.6857 165.486 65.3868 165.043 64.798 164.699C64.6622 164.617 64.5173 164.554 64.3633 164.491V159.884C64.5263 159.947 64.6712 160.011 64.8071 160.092C65.3958 160.427 65.6857 160.88 65.6857 161.323" fill="#464646"/>
</g>
<mask id="mask1_305_207" style="mask-type:luminance" maskUnits="userSpaceOnUse" x="60" y="160" width="1" height="4">
<path d="M60.6044 160.092C60.6044 161.26 60.6044 162.427 60.5953 163.595C60.5953 162.427 60.5953 161.26 60.5953 160.092H60.6044Z" fill="white"/>
</mask>
<g mask="url(#mask1_305_207)">
<path d="M61.2565 159.812V164.418C61.012 164.491 60.7855 164.59 60.5863 164.708C60.5772 164.708 60.5591 164.726 60.55 164.726V160.119C60.55 160.119 60.5863 160.101 60.5953 160.101C60.7946 159.984 61.012 159.893 61.2475 159.812" fill="#616161"/>
</g>
<mask id="mask2_305_207" style="mask-type:luminance" maskUnits="userSpaceOnUse" x="59" y="159" width="6" height="7">
<path d="M60.5954 164.708C60.0157 165.043 59.7258 165.477 59.7258 165.92V161.314C59.7439 160.879 60.0247 160.436 60.6044 160.101C60.6044 161.64 60.6044 163.169 60.5954 164.708C60.5954 163.169 60.5954 161.64 60.6044 160.101C61.7638 159.431 63.6478 159.431 64.8162 160.101C64.8162 161.64 64.8162 163.178 64.8071 164.708C63.6387 164.038 61.7547 164.038 60.5954 164.708Z" fill="white"/>
</mask>
<g mask="url(#mask2_305_207)">
<path d="M65.6948 161.323V165.929C65.6857 165.486 65.3868 165.042 64.7981 164.699C64.6622 164.617 64.5173 164.554 64.3633 164.49V159.884C64.5264 159.947 64.6713 160.011 64.8072 160.092C65.3959 160.427 65.6858 160.879 65.6858 161.323" fill="#464646"/>
<path d="M64.3905 159.893V164.499C64.2637 164.454 64.1369 164.409 64.0191 164.373V159.766C64.155 159.802 64.2818 159.839 64.3905 159.884" fill="#494949"/>
<path d="M64.0282 159.766V164.373C63.9104 164.346 63.8108 164.318 63.7021 164.3V159.694C63.8198 159.712 63.9285 159.739 64.0282 159.766Z" fill="#4C4C4C"/>
<path d="M63.7112 159.694V164.3C63.6025 164.282 63.5028 164.264 63.4032 164.246V159.639C63.5119 159.658 63.6115 159.667 63.7112 159.694Z" fill="#4E4E4E"/>
<path d="M63.4213 159.639V164.246C63.3126 164.237 63.213 164.219 63.1224 164.21V159.603C63.2311 159.603 63.3308 159.621 63.4213 159.639Z" fill="#515151"/>
<path d="M63.1315 159.612V164.219C63.0228 164.219 62.9232 164.21 62.8235 164.201V159.594C62.9322 159.594 63.0319 159.594 63.1315 159.612Z" fill="#545454"/>
<path d="M62.8416 159.594V164.201C62.7239 164.201 62.6242 164.201 62.5246 164.201V159.594C62.6423 159.594 62.742 159.594 62.8416 159.594Z" fill="#565656"/>
<path d="M62.5337 159.594V164.201C62.4069 164.201 62.2982 164.21 62.1895 164.219V159.612C62.3163 159.603 62.425 159.594 62.5337 159.594Z" fill="#595959"/>
<path d="M62.1986 159.612V164.219C62.0536 164.228 61.9268 164.246 61.8091 164.273V159.667C61.9449 159.649 62.0718 159.63 62.1986 159.612Z" fill="#5C5C5C"/>
<path d="M61.8272 159.667V164.273C61.6189 164.31 61.4286 164.355 61.2475 164.409V159.803C61.4377 159.748 61.6279 159.694 61.8272 159.658" fill="#5E5E5E"/>
<path d="M61.2565 159.812V164.418C61.012 164.49 60.7855 164.59 60.5863 164.708C60.5772 164.708 60.5591 164.726 60.55 164.726V160.119C60.55 160.119 60.5863 160.101 60.5953 160.101C60.7946 159.983 61.012 159.893 61.2475 159.812" fill="#616161"/>
<path d="M60.5682 160.119V164.726C60.4142 164.816 60.2874 164.907 60.1787 165.006V160.4C60.2965 160.3 60.4233 160.21 60.5682 160.119Z" fill="#5E5E5E"/>
<path d="M60.1878 160.4V165.006C60.1063 165.07 60.0429 165.133 59.9885 165.205V160.599C60.0519 160.526 60.1153 160.463 60.1878 160.4Z" fill="#5C5C5C"/>
<path d="M60.0066 160.599V165.205C59.9432 165.26 59.907 165.323 59.8707 165.386V160.78C59.916 160.717 59.9613 160.662 60.0066 160.599Z" fill="#595959"/>
<path d="M59.8889 160.771V165.377C59.8436 165.432 59.8164 165.486 59.7983 165.549V160.943C59.8345 160.888 59.8617 160.825 59.8889 160.771Z" fill="#565656"/>
<path d="M59.8074 160.943V165.549C59.7711 165.603 59.753 165.658 59.744 165.721V161.115C59.7711 161.06 59.7802 161.006 59.8074 160.943Z" fill="#545454"/>
<path d="M59.7621 161.115V165.721C59.7349 165.776 59.7349 165.839 59.7258 165.893V161.287C59.7439 161.232 59.7439 161.169 59.7621 161.115Z" fill="#515151"/>
<path d="M59.7349 161.278V165.884C59.7349 165.884 59.7258 165.902 59.7258 165.911V161.305C59.7258 161.305 59.7349 161.287 59.7349 161.278Z" fill="#4E4E4E"/>
</g>
<mask id="mask3_305_207" style="mask-type:luminance" maskUnits="userSpaceOnUse" x="64" y="160" width="2" height="6">
<path d="M65.6857 165.939C65.6857 165.495 65.3959 165.052 64.8071 164.708C64.8071 163.169 64.8071 161.631 64.8162 160.101C65.4049 160.436 65.6948 160.889 65.6948 161.332C65.6948 162.717 65.6857 164.563 65.6857 165.939Z" fill="white"/>
</mask>
<g mask="url(#mask3_305_207)">
<path d="M65.6947 161.323V165.93C65.6857 165.486 65.3868 165.043 64.798 164.699C64.6622 164.617 64.5173 164.554 64.3633 164.491V159.884C64.5263 159.947 64.6712 160.011 64.8071 160.092C65.3958 160.427 65.6857 160.88 65.6857 161.323" fill="#464646"/>
</g>
<mask id="mask4_305_207" style="mask-type:luminance" maskUnits="userSpaceOnUse" x="59" y="161" width="7" height="7">
<path d="M65.6948 161.323V165.93C65.6767 166.364 65.3959 166.807 64.8162 167.142C63.6568 167.812 61.7728 167.812 60.6044 167.142C60.0157 166.807 59.7258 166.355 59.7258 165.911V161.305C59.7349 161.748 60.0338 162.192 60.6225 162.536C61.791 163.205 63.6749 163.205 64.8343 162.536C65.414 162.201 65.7038 161.766 65.7038 161.323H65.6948Z" fill="white"/>
</mask>
<g mask="url(#mask4_305_207)">
<path d="M65.6948 161.323V165.93C65.6948 165.93 65.6857 165.948 65.6857 165.957V161.35C65.6857 161.35 65.6948 161.332 65.6948 161.323Z" fill="#737373"/>
<path d="M65.6948 161.35V165.957C65.6767 166.011 65.6767 166.074 65.6586 166.129V161.522C65.6857 161.468 65.6857 161.404 65.6948 161.35Z" fill="#777777"/>
<path d="M65.6767 161.522V166.129C65.6495 166.183 65.6405 166.237 65.6133 166.301V161.694C65.6495 161.64 65.6676 161.586 65.6767 161.522Z" fill="#7B7B7B"/>
<path d="M65.6314 161.685V166.292C65.5952 166.346 65.568 166.409 65.5408 166.464V161.857C65.5861 161.803 65.6133 161.748 65.6314 161.685Z" fill="#7F7F7F"/>
<path d="M65.5499 161.857V166.464C65.5046 166.527 65.4593 166.581 65.414 166.644V162.038C65.4774 161.984 65.5136 161.92 65.5499 161.857Z" fill="#838383"/>
<path d="M65.4321 162.038V166.645C65.3687 166.717 65.3053 166.78 65.2328 166.844V162.237C65.3144 162.174 65.3778 162.11 65.4321 162.038Z" fill="#878787"/>
<path d="M65.251 162.237V166.844C65.1332 166.943 65.0064 167.034 64.8615 167.124V162.518C65.0155 162.427 65.1423 162.337 65.251 162.237Z" fill="#8B8B8B"/>
<path d="M64.8705 162.518V167.124C64.8705 167.124 64.8343 167.142 64.8252 167.142C64.626 167.26 64.4086 167.35 64.1731 167.432V162.825C64.4177 162.753 64.6441 162.653 64.8434 162.536C64.8524 162.536 64.8705 162.518 64.8796 162.518" fill="#8F8F8F"/>
<path d="M64.1822 162.825V167.432C63.992 167.486 63.8017 167.541 63.6025 167.577V162.97C63.8108 162.934 64.001 162.889 64.1822 162.825Z" fill="#8B8B8B"/>
<path d="M63.6115 162.961V167.568C63.4757 167.586 63.3489 167.604 63.222 167.622V163.015C63.367 163.006 63.4938 162.988 63.6115 162.961Z" fill="#878787"/>
<path d="M63.2311 163.015V167.622C63.1043 167.631 62.9956 167.64 62.8869 167.64V163.033C63.0137 163.033 63.1224 163.024 63.2311 163.015Z" fill="#838383"/>
<path d="M62.905 163.042V167.649C62.7873 167.649 62.6876 167.649 62.588 167.649V163.042C62.7058 163.042 62.8054 163.042 62.905 163.042Z" fill="#7F7F7F"/>
<path d="M62.5971 163.043V167.649C62.4884 167.649 62.3888 167.649 62.2891 167.631V163.024C62.3978 163.024 62.4974 163.033 62.5971 163.043Z" fill="#7B7B7B"/>
<path d="M62.3073 163.024V167.631C62.1986 167.631 62.0989 167.613 62.0084 167.595V162.988C62.1171 162.997 62.2167 163.015 62.3073 163.024Z" fill="#777777"/>
<path d="M62.0174 162.988V167.595C61.9087 167.577 61.8091 167.568 61.7095 167.541V162.934C61.8182 162.952 61.9178 162.97 62.0174 162.988Z" fill="#737373"/>
<path d="M61.7185 162.943V167.55C61.6007 167.531 61.492 167.504 61.3924 167.477V162.871C61.5101 162.898 61.6098 162.925 61.7185 162.943Z" fill="#6F6F6F"/>
<path d="M61.4105 162.862V167.468C61.2747 167.432 61.1479 167.396 61.0392 167.35V162.744C61.166 162.789 61.2928 162.834 61.4105 162.871" fill="#6B6B6B"/>
<path d="M61.0482 162.744V167.35C60.8852 167.287 60.7403 167.224 60.6044 167.142C60.0157 166.807 59.7258 166.355 59.7258 165.911V161.305C59.7349 161.748 60.0338 162.192 60.6225 162.536C60.7584 162.617 60.9033 162.681 61.0573 162.744" fill="#676767"/>
</g>
<path d="M64.8162 160.101C65.9847 160.771 65.9937 161.866 64.8343 162.536C63.675 163.205 61.791 163.205 60.6226 162.536C59.4541 161.866 59.4451 160.771 60.6044 160.101C61.7638 159.431 63.6478 159.431 64.8162 160.101Z" fill="white"/>
<path d="M289.454 94.9126L289.435 99.5282L125.493 194.718L125.502 190.112L289.454 94.9126Z" fill="#999999"/>
<path d="M289.454 94.9127L125.502 190.112L12.7622 125.068L176.705 29.8779L289.454 94.9127Z" fill="url(#paint1_radial_305_207)"/>
<path d="M125.502 190.112L125.493 194.718L12.7441 129.683L12.7622 125.068L125.502 190.112Z" fill="#6A6A6A"/>
<path d="M299.363 86.0887C303.131 88.2607 303.149 91.7903 299.417 93.9533L123.89 195.877C120.149 198.049 114.062 198.049 110.294 195.877L2.85323 133.901C-0.914727 131.729 -0.932842 128.199 2.79889 126.036L178.326 24.1129C182.067 21.9409 188.153 21.9409 191.921 24.1129L299.354 86.0887H299.363ZM125.511 190.112L289.454 94.9126L176.705 29.8689L12.7622 125.068L125.511 190.112ZM60.6226 162.536C61.791 163.205 63.675 163.205 64.8343 162.536C65.9937 161.866 65.9847 160.771 64.8253 160.101C63.6569 159.432 61.7729 159.432 60.6135 160.101C59.4541 160.771 59.4632 161.866 60.6316 162.536" fill="#B34F6B"/>
<path d="M302.179 90.3332C302.179 90.4328 302.161 90.5324 302.143 90.6319C302.125 90.7134 302.107 90.7948 302.08 90.8763C302.053 90.9758 302.035 91.0663 301.998 91.1659C301.971 91.2473 301.935 91.3197 301.899 91.4012C301.853 91.5007 301.808 91.6003 301.763 91.6998C301.727 91.7722 301.681 91.8446 301.636 91.917C301.564 92.0256 301.491 92.1433 301.41 92.2519C301.364 92.3153 301.31 92.3786 301.256 92.4419C301.129 92.5868 300.993 92.7406 300.848 92.8763C300.794 92.9306 300.748 92.985 300.685 93.0302C300.594 93.1117 300.495 93.1931 300.386 93.2746C300.295 93.347 300.214 93.4194 300.114 93.4827C300.006 93.5642 299.888 93.6366 299.77 93.709C299.652 93.7904 299.535 93.8719 299.408 93.9443L123.881 195.868C123.591 196.031 123.292 196.184 122.975 196.329C122.884 196.374 122.794 196.411 122.703 196.447C122.459 196.546 122.205 196.646 121.951 196.727C121.861 196.755 121.77 196.791 121.671 196.827C121.508 196.881 121.345 196.927 121.182 196.972C121.055 197.008 120.928 197.044 120.801 197.071C120.629 197.117 120.448 197.153 120.267 197.189C120.149 197.216 120.031 197.243 119.904 197.261C119.542 197.325 119.18 197.379 118.808 197.415C118.691 197.424 118.582 197.433 118.464 197.442C118.247 197.46 118.03 197.479 117.812 197.488C117.676 197.488 117.531 197.488 117.396 197.497C117.223 197.497 117.042 197.497 116.87 197.497C116.725 197.497 116.58 197.497 116.426 197.488C116.263 197.488 116.1 197.47 115.937 197.46C115.792 197.451 115.638 197.433 115.493 197.424C115.33 197.406 115.176 197.388 115.013 197.37C114.868 197.352 114.724 197.334 114.579 197.307C114.407 197.279 114.234 197.252 114.071 197.216C113.936 197.189 113.809 197.162 113.673 197.135C113.474 197.089 113.274 197.044 113.075 196.99C112.966 196.963 112.858 196.936 112.749 196.899C112.396 196.8 112.052 196.682 111.716 196.546C111.671 196.528 111.626 196.51 111.581 196.492C111.128 196.311 110.684 196.103 110.276 195.868L2.85319 133.901C0.951094 132.806 0.00910407 131.367 0.00910407 129.937V134.543C-0.00901111 135.973 0.942036 137.412 2.83507 138.507L110.267 200.483C110.675 200.719 111.119 200.927 111.571 201.108C111.599 201.117 111.626 201.135 111.653 201.144C111.671 201.144 111.689 201.153 111.707 201.162C112.042 201.289 112.387 201.406 112.74 201.515C112.767 201.515 112.794 201.533 112.821 201.542C112.903 201.569 112.984 201.578 113.066 201.605C113.265 201.66 113.465 201.705 113.664 201.75C113.718 201.759 113.772 201.777 113.827 201.786C113.908 201.805 113.99 201.814 114.062 201.832C114.234 201.868 114.397 201.895 114.57 201.922C114.642 201.931 114.705 201.949 114.778 201.958C114.85 201.967 114.932 201.977 115.004 201.986C115.167 202.004 115.321 202.022 115.484 202.04C115.566 202.04 115.638 202.058 115.72 202.067C115.792 202.067 115.865 202.067 115.937 202.076C116.1 202.085 116.263 202.094 116.426 202.103C116.508 202.103 116.589 202.112 116.671 202.112C116.734 202.112 116.798 202.112 116.87 202.112C117.042 202.112 117.223 202.112 117.396 202.112C117.486 202.112 117.568 202.112 117.658 202.112C117.713 202.112 117.758 202.112 117.812 202.103C118.03 202.094 118.247 202.076 118.464 202.058C118.555 202.058 118.636 202.058 118.727 202.04C118.754 202.04 118.781 202.04 118.808 202.031C119.18 201.995 119.542 201.94 119.904 201.877C119.923 201.877 119.941 201.877 119.959 201.877C120.067 201.859 120.167 201.832 120.267 201.814C120.439 201.777 120.62 201.741 120.792 201.705C120.919 201.678 121.046 201.642 121.173 201.605C121.336 201.56 121.508 201.515 121.662 201.461C121.698 201.452 121.734 201.443 121.77 201.434C121.825 201.415 121.879 201.388 121.942 201.37C122.196 201.28 122.45 201.189 122.694 201.081C122.785 201.044 122.875 201.008 122.966 200.963C123.283 200.818 123.582 200.673 123.872 200.501L299.399 98.578C299.399 98.578 299.48 98.5327 299.517 98.5056C299.607 98.4513 299.68 98.397 299.761 98.3427C299.879 98.2703 299.997 98.1888 300.105 98.1164C300.196 98.044 300.286 97.9716 300.377 97.9083C300.477 97.8268 300.576 97.7454 300.676 97.6639C300.694 97.6458 300.721 97.6277 300.739 97.6187C300.776 97.5825 300.803 97.5463 300.839 97.5101C300.984 97.3653 301.12 97.2205 301.247 97.0756C301.274 97.0394 301.31 97.0123 301.337 96.9761C301.364 96.9399 301.382 96.9127 301.401 96.8765C301.482 96.7679 301.554 96.6503 301.627 96.5417C301.654 96.4964 301.699 96.4512 301.718 96.3969C301.736 96.3697 301.736 96.3516 301.754 96.3245C301.808 96.2249 301.853 96.1254 301.89 96.0258C301.917 95.9715 301.953 95.9082 301.971 95.8539C301.971 95.8358 301.98 95.8177 301.989 95.7905C302.025 95.691 302.044 95.6005 302.071 95.5009C302.089 95.4376 302.116 95.3742 302.125 95.3108C302.125 95.2927 302.125 95.2746 302.125 95.2565C302.143 95.157 302.152 95.0575 302.161 94.9579C302.161 94.8946 302.179 94.8312 302.179 94.7588C302.179 94.7316 302.179 94.7045 302.179 94.6773V90.0708C302.189 90.1613 302.179 90.2609 302.17 90.3514L302.179 90.3332Z" fill="#484848"/>
<path d="M60.6226 162.536C61.791 163.205 63.675 163.205 64.8343 162.536C65.9937 161.866 65.9847 160.771 64.8253 160.101C63.6569 159.432 61.7729 159.432 60.6135 160.101C59.4541 160.771 59.4632 161.866 60.6316 162.536M299.363 86.0887C303.131 88.2607 303.149 91.7903 299.417 93.9533L123.89 195.877C120.149 198.049 114.062 198.049 110.294 195.877L2.85323 133.901C-0.914727 131.729 -0.932842 128.199 2.79889 126.036L178.326 24.1129C182.067 21.9409 188.153 21.9409 191.921 24.1129L299.354 86.0887H299.363ZM125.511 190.112L289.454 94.9126L176.705 29.8689L12.7622 125.068L125.511 190.112Z" stroke="url(#paint2_linear_305_207)" stroke-width="0.26" stroke-miterlimit="10"/>
<path d="M126.906 147.91L126.888 156.689L110.566 166.165L110.584 157.395L126.906 147.91Z" fill="#F68AA9"/>
<path d="M110.584 157.395L110.566 166.165L54.6445 133.91L54.6717 125.131L110.584 157.395Z" fill="#E2688A"/>
<path d="M126.906 147.91L110.584 157.395L54.6717 125.131L70.9935 115.656L126.906 147.91Z" fill="#B34F6B"/>
<path d="M202.202 74.5314C207.22 77.4275 207.247 82.1155 202.265 85.0116C197.283 87.9076 189.177 87.9076 184.159 85.0116C179.141 82.1155 179.114 77.4275 184.096 74.5314C189.077 71.6354 197.184 71.6354 202.202 74.5314Z" fill="url(#paint3_linear_305_207)"/>
<path d="M183.597 85.3283C189.865 88.9394 189.893 94.8039 183.67 98.415L180.264 100.388L157.575 87.3013L160.981 85.3283C167.212 81.7083 177.33 81.7083 183.597 85.3283Z" fill="url(#paint4_linear_305_207)"/>
<path d="M211.73 71.7802C226.259 80.1607 226.331 93.7903 211.902 102.171C197.474 110.551 173.915 110.551 159.387 102.171C144.858 93.7903 144.786 80.1607 159.214 71.7802C173.643 63.3998 197.202 63.3998 211.73 71.7802ZM160.156 101.727C174.25 109.864 197.12 109.864 211.133 101.727C225.136 93.5912 225.063 80.3598 210.97 72.2237C196.867 64.0876 174.005 64.0876 160.002 72.2237C145.99 80.3598 146.063 93.5912 160.165 101.727" fill="url(#paint5_linear_305_207)"/>
<g opacity="0.75">
<path d="M201.368 17.0355C231.168 34.2309 231.331 62.205 201.731 79.3914C193.081 84.4142 182.366 88.1791 170.745 90.2878L170.401 89.6453C181.831 87.5728 192.383 83.8531 200.897 78.9117C230.045 61.9878 229.891 34.439 200.553 17.5152C171.216 0.591284 123.618 0.591284 94.4707 17.5152C65.3144 34.4481 65.4683 61.9878 94.8059 78.9117L93.9816 79.3914C64.1821 62.196 64.0191 34.2218 93.6284 17.0355C123.229 -0.15083 171.56 -0.15083 201.368 17.0355Z" fill="white"/>
<path d="M193.588 21.5517C219.067 36.2492 219.203 60.1689 193.887 74.8664C168.571 89.5639 127.241 89.5639 101.762 74.8664C90.8658 68.5765 84.127 60.2503 82.7864 51.4083L87.7862 51.164C89.0271 59.3272 95.2497 67.0199 105.304 72.8211C128.817 86.3873 166.959 86.3873 190.327 72.8211C213.687 59.2548 213.56 37.1814 190.046 23.6151C166.533 10.0489 128.391 10.0489 105.032 23.6151L101.472 21.5607C126.788 6.86322 168.118 6.86322 193.597 21.5607L193.588 21.5517Z" fill="white"/>
<path d="M205.218 14.8002C189.748 5.87666 169.223 0.962402 147.412 0.962402C125.611 0.962402 105.132 5.87666 89.7608 14.8002C121.58 -3.44505 173.181 -3.436 205.01 14.9178C236.829 33.2716 237.001 63.1373 205.381 81.5001C173.77 99.854 122.16 99.863 90.3405 81.5001C76.736 73.6536 68.3124 63.2459 66.6458 52.1956C68.0316 63.2911 76.4824 73.7441 90.1322 81.6178C105.603 90.5413 126.127 95.4555 147.947 95.4555C169.748 95.4555 190.228 90.5413 205.598 81.6178C220.969 72.6943 229.393 60.8295 229.32 48.2044C229.239 35.5885 220.688 23.7237 205.218 14.7911V14.8002Z" fill="white"/>
<path d="M176.252 31.6155C192.112 40.7652 192.193 55.6528 176.442 64.7935C160.691 73.9433 134.967 73.9433 119.107 64.7935C103.248 55.6438 103.166 40.7562 118.917 31.6155C134.668 22.4657 160.392 22.4657 176.252 31.6155ZM119.542 64.5401C135.157 73.5451 160.482 73.5541 175.998 64.5401C191.505 55.5352 191.423 40.8738 175.817 31.8689C160.202 22.8639 134.868 22.8639 119.361 31.8689C103.845 40.8829 103.936 55.5352 119.542 64.5401Z" fill="white"/>
<path d="M171.261 34.5205L167.719 36.5749C156.597 30.1583 138.554 30.1583 127.504 36.5749C116.444 42.9915 116.508 53.4354 127.631 59.852C138.753 66.2686 156.796 66.2686 167.846 59.852L171.406 61.9064C158.399 69.4543 137.177 69.4633 124.089 61.9064C111.001 54.3586 110.928 42.0684 123.935 34.5205C136.942 26.9727 158.164 26.9727 171.252 34.5205H171.261Z" fill="white"/>
<path d="M188.38 24.8188L182.927 27.9864L182.483 27.733L187.945 24.5654L188.38 24.8188Z" fill="white"/>
<path d="M180.726 21.0722L176.306 24.7465L175.799 24.5384L180.219 20.873L180.726 21.0722Z" fill="white"/>
<path d="M172.067 18.1578L168.825 22.2123L168.254 22.0584L171.506 17.9949L172.067 18.1578Z" fill="white"/>
<path d="M162.665 16.1398L160.682 20.4658L160.084 20.3753L162.068 16.0493L162.665 16.1398Z" fill="white"/>
<path d="M152.811 15.0989L152.159 19.5697L151.534 19.5335L152.195 15.0718L152.811 15.0989Z" fill="white"/>
<path d="M142.793 15.0718L143.481 19.5335L142.865 19.5607L142.177 15.0989L142.793 15.0718Z" fill="white"/>
<path d="M132.929 16.0493L134.949 20.3753L134.351 20.4658L132.331 16.1398L132.929 16.0493Z" fill="white"/>
<path d="M123.509 17.9949L126.797 22.0584L126.236 22.2123L122.948 18.1578L123.509 17.9949Z" fill="white"/>
<path d="M114.823 20.873L119.289 24.5384L118.781 24.7465L114.325 21.0722L114.823 20.873Z" fill="white"/>
<path d="M112.631 27.742L112.196 27.9954L106.708 24.8279L107.142 24.5745L112.631 27.742Z" fill="white"/>
<path d="M107.043 31.5612L106.68 31.8599L100.34 29.2806L100.693 28.991L107.043 31.5612Z" fill="white"/>
<path d="M102.686 35.8873L102.423 36.2131L95.4037 34.3217L95.6663 33.9958L102.686 35.8873Z" fill="white"/>
<path d="M99.697 40.5933L99.543 40.9372L92.0614 39.7787L92.2154 39.4258L99.697 40.5933Z" fill="white"/>
<path d="M98.1662 45.5256L98.1119 45.8786L90.4039 45.4894L90.4582 45.1274L98.1662 45.5256Z" fill="white"/>
<path d="M98.139 50.5396L98.2025 50.9016L90.4944 51.2817L90.4401 50.9287L98.139 50.5396Z" fill="white"/>
<path d="M99.6245 55.481L99.7875 55.8339L92.315 56.9833L92.152 56.6394L99.6245 55.481Z" fill="white"/>
<path d="M102.559 60.2051L102.831 60.5309L95.8203 62.4224L95.5576 62.0966L102.559 60.2051Z" fill="white"/>
<path d="M106.88 64.5583L107.224 64.857L100.911 67.4272L100.548 67.1286L106.88 64.5583Z" fill="white"/>
<path d="M112.858 68.676L107.405 71.8436L106.97 71.5902L112.414 68.4226L112.858 68.676Z" fill="white"/>
<path d="M119.551 71.8798L115.131 75.5451L114.624 75.337L119.044 71.6716L119.551 71.8798Z" fill="white"/>
<path d="M127.096 74.3596L123.854 78.4141L123.283 78.2693L126.535 74.2058L127.096 74.3596Z" fill="white"/>
<path d="M135.275 76.0429L133.283 80.3689L132.694 80.2784L134.659 75.9524L135.275 76.0429Z" fill="white"/>
<path d="M143.817 76.8846L143.164 81.3463L142.548 81.3101L143.192 76.8484L143.817 76.8846Z" fill="white"/>
<path d="M152.476 76.8574L153.182 81.3101L152.557 81.3463L151.86 76.8846L152.476 76.8574Z" fill="white"/>
<path d="M160.999 75.9524L163.028 80.2784L162.43 80.3689L160.401 76.0429L160.999 75.9524Z" fill="white"/>
<path d="M169.114 74.2058L172.402 78.2693L171.841 78.4141L168.553 74.3596L169.114 74.2058Z" fill="white"/>
<path d="M176.569 71.6716L181.034 75.337L180.527 75.5451L176.062 71.8798L176.569 71.6716Z" fill="white"/>
<path d="M188.643 71.5902L188.208 71.8436L182.719 68.676L183.154 68.4226L188.643 71.5902Z" fill="white"/>
<path d="M195.019 67.1286L194.666 67.4272L188.307 64.857L188.661 64.5583L195.019 67.1286Z" fill="white"/>
<path d="M199.946 62.0966L199.684 62.4224L192.664 60.5309L192.936 60.2051L199.946 62.0966Z" fill="white"/>
<path d="M203.289 56.6394L203.135 56.9833L195.653 55.8339L195.807 55.481L203.289 56.6394Z" fill="white"/>
<path d="M204.946 50.9287L204.892 51.2817L197.184 50.9016L197.238 50.5396L204.946 50.9287Z" fill="white"/>
<path d="M204.856 45.1274L204.91 45.4894L197.211 45.8786L197.148 45.5256L204.856 45.1274Z" fill="white"/>
<path d="M203.035 39.4258L203.198 39.7787L195.735 40.9372L195.562 40.5842L203.035 39.4258Z" fill="white"/>
<path d="M199.53 33.9958L199.792 34.3217L192.791 36.2131L192.528 35.8873L199.53 33.9958Z" fill="white"/>
<path d="M194.448 28.991L194.811 29.2806L188.479 31.8508L188.126 31.5612L194.448 28.991Z" fill="white"/>
</g>
<defs>
<linearGradient id="paint0_linear_305_207" x1="0.00914768" y1="127.484" x2="302.198" y2="127.484" gradientUnits="userSpaceOnUse">
<stop stop-color="#E2688A"/>
<stop offset="1" stop-color="#F68AA9"/>
</linearGradient>
<radialGradient id="paint1_radial_305_207" cx="0" cy="0" r="1" gradientUnits="userSpaceOnUse" gradientTransform="translate(171.596 96.7528) scale(143.554 97.5369)">
<stop stop-color="white"/>
<stop offset="1" stop-color="#FFCEDC"/>
</radialGradient>
<linearGradient id="paint2_linear_305_207" x1="-0.108601" y1="109.99" x2="302.324" y2="109.99" gradientUnits="userSpaceOnUse">
<stop stop-color="#4795D6" stop-opacity="0"/>
<stop offset="0.3" stop-color="#A8CDEB" stop-opacity="0.53"/>
<stop offset="0.56" stop-color="white"/>
<stop offset="1" stop-color="#3D63A8" stop-opacity="0"/>
</linearGradient>
<linearGradient id="paint3_linear_305_207" x1="157.575" y1="86.3781" x2="205.988" y2="86.3781" gradientUnits="userSpaceOnUse">
<stop stop-color="#2D5AC9"/>
<stop offset="0.16" stop-color="#2851AE"/>
<stop offset="0.39" stop-color="#23478F"/>
<stop offset="0.61" stop-color="#1F4078"/>
<stop offset="0.82" stop-color="#1D3C6A"/>
<stop offset="1" stop-color="#1D3B66"/>
</linearGradient>
<linearGradient id="paint4_linear_305_207" x1="157.575" y1="86.3782" x2="205.988" y2="86.3782" gradientUnits="userSpaceOnUse">
<stop stop-color="#2D5AC9"/>
<stop offset="0.16" stop-color="#2851AE"/>
<stop offset="0.39" stop-color="#23478F"/>
<stop offset="0.61" stop-color="#1F4078"/>
<stop offset="0.82" stop-color="#1D3C6A"/>
<stop offset="1" stop-color="#1D3B66"/>
</linearGradient>
<linearGradient id="paint5_linear_305_207" x1="148.445" y1="86.9755" x2="222.681" y2="86.9755" gradientUnits="userSpaceOnUse">
<stop stop-color="#2D5AC9"/>
<stop offset="0.16" stop-color="#2851AE"/>
<stop offset="0.39" stop-color="#23478F"/>
<stop offset="0.61" stop-color="#1F4078"/>
<stop offset="0.82" stop-color="#1D3C6A"/>
<stop offset="1" stop-color="#1D3B66"/>
</linearGradient>
</defs>
</svg>
