<svg xmlns="http://www.w3.org/2000/svg" viewBox="0 0 74.52 97.51"><defs><style>.a{fill:#63ba47;}.b{fill:#07873f;}.c{fill:#fefefe;}</style></defs><path class="a" d="M38.29,35.82c1.13,2.35,3,1,4.4.64a31.05,31.05,0,0,1,13.05-.2c15.2,3,22.47,13.68,20.45,31.11A45.16,45.16,0,0,1,62,95.75c-4.68,4.39-10.08,6.17-16.37,3.53a12.7,12.7,0,0,0-9.56-.08c-6.41,2.27-12.56,1.25-17.65-3.12-12.23-10.49-18-24-16.06-40C3.71,45,12.37,37.73,24,36.82A93.5,93.5,0,0,1,34.35,37c1.35,0,2.89.7,3.48-1.28l.25-.07Z" transform="translate(-2 -3)"/><path class="b" d="M25.75,12c4.05,3.5,7.86,7.18,9.67,12.41,1.6,4.61.66,5.95-4.17,6-10.9,0-16.4-3.94-19.76-14.3A33.32,33.32,0,0,1,10.43,12C8.3.82,7.25,3.23,18.24,3.19A42.21,42.21,0,0,1,31.65,5c6.74,2.24,9.81,8,8,15.6-3.69-4.25-7.42-8.08-12.78-9.57-.93-.6-1.87-1.06-2.89-.19Z" transform="translate(-2 -3)"/><path class="b" d="M38.29,35.82l-.21-.16-.25.07c-.48-7.5,3.05-13.07,8.65-17.54,1.38-1.1,3.23-1.83,4.61-.1,1.52,1.9-.44,2.81-1.62,3.6C44.2,25.2,40.89,30.23,38.29,35.82Z" transform="translate(-2 -3)"/><path class="c" d="M25.75,12l-1.81-1.2c1-.87,2-.41,2.89.19Z" transform="translate(-2 -3)"/></svg>