<svg width="44" height="21" viewBox="0 0 44 21" fill="none" xmlns="http://www.w3.org/2000/svg">
<g clip-path="url(#clip0_305_1877)">
<path d="M8.78625 1.80176C8.05145 1.83776 7.14555 2.31628 6.62635 2.98828C6.15115 3.56878 5.74452 4.51005 5.84718 5.39355C6.67732 5.46705 7.5094 4.95185 8.02713 4.29785C8.53753 3.62435 8.87278 2.72276 8.78625 1.80176ZM15.8417 3.60059V17.1006H17.93V12.6006H20.7917C23.417 12.6006 25.3006 10.7331 25.3006 8.10059C25.3006 5.46809 23.4506 3.60059 20.8605 3.60059H15.8417ZM17.93 5.39941H20.3506C22.1516 5.39941 23.2094 6.39509 23.2094 8.10059C23.2094 9.80609 22.1604 10.7988 20.3506 10.7988H17.93V5.39941ZM8.69171 5.85059C7.48171 5.85059 6.61524 6.52441 6.05057 6.52441C5.4771 6.52441 4.62 5.85645 3.63 5.85645C2.42 5.85645 1.23552 6.6341 0.610725 7.7666C-0.672608 10.0301 0.277998 13.3821 1.5188 15.2256C2.12746 16.1376 2.86057 17.1006 3.85057 17.1006C4.75844 17.0661 5.06382 16.5381 6.15942 16.5381C7.26236 16.5381 7.59 17.1006 8.58 17.1006C9.57 17.1006 10.1699 16.1727 10.7771 15.2607C11.4709 14.2257 11.7535 13.2156 11.7711 13.1631C11.755 13.1466 9.85228 12.3998 9.83468 10.1543C9.81855 8.2763 11.3327 7.38108 11.4016 7.33008C10.5465 6.03108 9.13057 5.85059 8.80057 5.85059H8.69171ZM30.0959 7.20117C27.9061 7.20117 26.2888 8.45709 26.2287 10.1836H28.0849C28.2375 9.36309 28.9987 8.82422 30.0386 8.82422C31.2999 8.82422 32.0123 9.414 32.0123 10.5V11.25L29.4342 11.3906C27.0391 11.5361 25.7446 12.5166 25.7446 14.2266C25.7446 15.9531 27.0818 17.1006 28.9987 17.1006C30.2938 17.1006 31.4968 16.4409 32.0409 15.3984H32.0839V16.998H33.9917V10.3652C33.9902 8.43923 32.4557 7.20117 30.0959 7.20117ZM34.7594 7.20117L38.2886 17.0537L38.0995 17.6543C37.7813 18.6698 37.2631 19.0605 36.3435 19.0605C36.1866 19.0605 35.8898 19.0448 35.7534 19.0283V20.6514C35.8913 20.6829 36.3744 20.7012 36.524 20.7012C38.5539 20.7012 39.5094 19.9188 40.3454 17.5488L44.0006 7.20117H41.8836L39.4316 15.1963H39.3886L36.9365 7.20117H34.7594ZM32.0123 12.6006L32.0037 13.3828C32.0037 14.6308 30.9479 15.5186 29.5516 15.5186C28.4531 15.5186 27.7527 14.9898 27.7527 14.1768C27.7527 13.3383 28.4272 12.8514 29.7149 12.7734L32.0123 12.6006Z" fill="black"/>
</g>
<defs>
<clipPath id="clip0_305_1877">
<rect width="44" height="21" fill="white"/>
</clipPath>
</defs>
</svg>
