<svg xmlns="http://www.w3.org/2000/svg" viewBox="0 0 1023.61 1023.24"><defs><style>.a{fill:#26cec6;}.b{fill:#44d3ce;}.c{fill:#fcef24;}</style></defs><path class="a" d="M873,1023.74H153.64a18.57,18.57,0,0,0-3.53-1.19c-39.06-5.39-72.52-22-100.15-50.16C21,942.89,5.35,906.88,1.15,866.29-.85,847.05.9,827.42,1,808a673.9,673.9,0,0,0,109.5,18.69,764.6,764.6,0,0,0,174.28-4.54,627.54,627.54,0,0,0,176.72-52.17q193.38-90,283.85-283.19c29.38-63.09,45.73-129.57,50.84-198.91,4.45-60.47.75-120.36-12.11-179.65-8-37-20-72.68-35-107.41C784.36.73,819.65.92,854.93.51a149.81,149.81,0,0,1,50.42,7.78c64.42,21.91,103.11,66.85,117.52,133.08,0,1.83-.06,3.66-.06,5.49V877.49c0,1.83,0,3.66.06,5.49-.37,1.79-.67,3.6-1.12,5.37-17.33,68.49-59.63,112.6-128.14,131C886.82,1021.17,879.84,1022.29,873,1023.74Z" transform="translate(-0.2 -0.49)"/><path class="b" d="M1023.8,882.86a7.4,7.4,0,0,0-.93.12c0-1.83-.06-3.66-.06-5.49V146.86c0-1.83,0-3.66.06-5.49a7.4,7.4,0,0,0,.93.12Z" transform="translate(-0.2 -0.49)"/><path class="c" d="M379.5.78c1.83-.06,3.66-.16,5.49-.16q179.29,0,358.6,0c1.82,0,3.65.11,5.48.16C764,35.51,776,71.2,784,108.19c12.86,59.29,16.56,119.18,12.11,179.65-5.11,69.34-21.46,135.82-50.84,198.91q-90.1,193.47-283.85,283.19a627.54,627.54,0,0,1-176.72,52.17,764.6,764.6,0,0,1-174.28,4.54A673.9,673.9,0,0,1,1,808c-.06-1.66-.17-3.32-.17-5V500.88c0-1.82.11-3.65.16-5.48.44.24.88.47,1.3.74,77,49.14,160.41,63.7,249.12,43.84,138.5-31,235.36-147.62,242.32-280.17,4-75.41-15.31-143.51-60.72-204C417.5,35.14,399.28,17.2,379.5.78Z" transform="translate(-0.2 -0.49)"/><path class="a" d="M379.5.78c19.78,16.42,38,34.36,53.47,55,45.41,60.54,64.69,128.64,60.72,204.05C486.73,392.36,389.87,509,251.37,540c-88.71,19.86-172.16,5.3-249.12-43.84-.42-.27-.86-.5-1.3-.74,0-2.16-.15-4.32-.15-6.48q0-158.05,0-316.11c0-31.11,7.75-60.25,23.59-86.91C52.72,38.21,94.58,10.16,149.55,2A116,116,0,0,1,166.29.67Q269.65.53,373,.62C375.18.62,377.34.72,379.5.78Z" transform="translate(-0.2 -0.49)"/></svg>