<svg width="59" height="18" viewBox="0 0 59 18" fill="none" xmlns="http://www.w3.org/2000/svg">
<g clip-path="url(#clip0_305_1783)">
<path fill-rule="evenodd" clip-rule="evenodd" d="M24.0456 0.41943L21.1805 17.7124H25.7644L28.6298 0.41943H24.0456ZM17.3238 0.41943L12.9534 12.3133L12.4364 9.75217L12.4368 9.75301L12.3228 9.17897C11.7939 8.05943 10.5689 5.93163 8.2557 4.11574C7.57183 3.57899 6.88245 3.12091 6.21603 2.72962L10.188 17.7124H14.9641L22.2575 0.41943H17.3238ZM35.2139 5.22029C35.2139 3.26517 39.6782 3.51639 41.6399 4.57801L42.294 0.863959C42.294 0.863959 40.2752 0.109924 38.1709 0.109924C35.896 0.109924 30.4939 1.087 30.4939 5.83462C30.4939 10.3027 36.8343 10.3582 36.8343 12.704C36.8343 15.0498 31.1476 14.6306 29.271 13.1508L28.5889 17.0329C28.5889 17.0329 30.6357 18.01 33.7637 18.01C36.8914 18.01 41.6113 16.4186 41.6113 12.0897C41.6113 7.59368 35.2139 7.17493 35.2139 5.22029ZM53.9195 0.41943H50.234C48.5321 0.41943 48.1177 1.70817 48.1177 1.70817L41.2816 17.7124H46.0595L47.0153 15.1439H52.8429L53.3805 17.7124H57.5895L53.9195 0.41943ZM48.3363 11.5952L50.7451 5.12375L52.1001 11.5952H48.3363Z" fill="#005BAC"/>
<path fill-rule="evenodd" clip-rule="evenodd" d="M10.9569 2.04748C10.9569 2.04748 10.7671 0.486771 8.74152 0.486771H1.38222L1.29602 0.780086C1.29602 0.780086 4.83348 1.48831 8.22724 4.1417C11.4704 6.6777 12.5284 9.83894 12.5284 9.83894L10.9569 2.04748Z" fill="#F6AC1D"/>
</g>
<defs>
<clipPath id="clip0_305_1783">
<rect width="59" height="18" fill="white"/>
</clipPath>
</defs>
</svg>
