<svg width="626" height="649" viewBox="0 0 626 649" fill="none" xmlns="http://www.w3.org/2000/svg">
<path d="M323.624 206.557C323.146 203.893 324.813 202.941 326.965 202.589C329.486 202.181 332.023 202.572 334.554 202.71C334.791 203.023 335.028 203.332 335.264 203.64C336.558 205.902 338.368 207.675 340.493 209.15L340.482 209.139C340.509 209.409 340.46 209.717 340.575 209.943C341.467 211.665 340.911 213.141 339.37 213.884C337.554 214.754 337.835 212.645 337.185 211.869C336.893 211.522 336.679 211.049 336.172 211.082C335.595 211.121 335.578 211.665 335.479 212.1C335.352 212.634 335.121 213.152 335.077 213.691C334.197 223.913 333.641 234.102 338.952 243.52C339.227 243.944 339.502 244.362 339.777 244.786C340.185 245.942 340.586 247.109 342.116 247.153L342.105 247.131C341.951 248.16 342.177 248.893 343.426 248.821C343.542 248.926 343.635 249.047 343.718 249.179C343.822 251.006 344.356 252.487 346.514 252.663L346.497 252.641C346.508 253.093 346.393 253.599 346.552 253.995C349.436 261.25 350.19 268.973 351.593 276.553C351.764 277.461 351.511 278.914 353.123 279.063L353.112 279.052C353.096 279.547 353.25 279.955 353.778 280.081C356.084 280.615 357.064 279.074 356.194 276.184C354.389 270.195 352.612 264.206 352.479 257.881C352.479 257.496 352.479 257.116 352.479 256.731C352.518 255.509 352.705 254.326 353.316 253.241C355.446 252.977 356.607 254.056 356.998 256.032C357.499 258.581 358.627 260.711 360.944 262.004C363.927 263.672 365.022 266.144 364.708 269.524C364.494 271.868 364.257 274.379 365.87 276.41C368.104 279.234 368.842 282.388 368.511 285.922C368.357 287.556 368.528 289.219 368.484 290.87C368.423 293.204 368.654 295.329 371.412 296.061C371.879 296.187 372.276 296.463 372.298 296.98C372.386 299.253 373.013 301.708 371.94 303.734C371.015 305.479 370.658 307.048 371.296 308.974C370.405 308.661 369.744 308.43 369.089 308.193V308.204C367.367 304.114 364.356 301.147 360.762 298.698C360.471 298.406 360.179 298.109 359.882 297.817C357.108 294.575 355.903 290.534 354.103 286.775C351.104 280.516 347.625 274.472 344.18 268.439C342.232 265.037 340.036 261.762 337.763 258.559C336.211 256.373 333.459 255.916 331.748 257.386C329.497 259.318 331.693 260.689 332.606 261.993C335.859 266.628 339.348 271.092 343.101 275.342C344.653 277.098 345.407 279.013 344.703 281.49C343.36 281.011 342.364 280.114 341.406 279.151C336.25 273.966 331.291 268.456 325.044 264.608C319.299 261.069 317.361 255.625 315.93 249.68C315.54 248.061 315.375 246.399 316.31 244.88C320.614 237.873 324.626 230.678 329.898 224.315C330.608 223.462 331.704 222.575 330.718 221.21C330.025 218.161 329.86 214.853 326.745 212.976L326.756 212.998C326.772 211.275 326.624 209.651 324.544 209.128L324.554 209.144C324.808 208.203 324.285 207.482 323.883 206.722C323.806 206.651 323.718 206.596 323.624 206.546V206.557Z" fill="#AEAEAE"/>
<path d="M309.046 257.672C306.707 256.362 304.126 255.79 301.55 255.179C298.936 254.557 296.503 254.579 294.362 256.572C293.427 257.447 292.029 258.294 290.917 257.794C289.927 257.348 289.993 255.729 289.954 254.568C289.883 252.366 289.943 250.164 289.927 247.962C289.899 244.186 289.536 243.818 285.859 243.829C282.651 243.84 279.442 243.823 276.239 243.906C274.726 243.944 273.812 243.647 273.823 241.841C273.834 240.113 273.515 238.385 273.41 236.651C273.212 233.342 272.42 232.588 269.184 232.853C268.463 232.913 267.747 233.111 267.037 233.26C264.985 233.684 264.286 233.051 265.089 230.959C265.612 229.599 265.931 228.157 266.316 226.748C266.949 224.436 265.942 223.418 263.675 223.539C262.128 223.627 260.587 223.836 259.046 224.018C257.285 224.221 256.179 223.831 255.733 221.766C255.012 218.442 253.691 218.161 251.38 220.605C250.626 221.398 249.888 222.229 249.283 223.137C247.946 225.141 246.515 224.298 245.084 223.352C243.515 222.311 244.22 221.172 245.023 220.082C246.239 218.425 246.047 216.669 244.858 215.266C243.603 213.779 242.167 214.979 240.89 215.601C236.647 217.671 236.427 217.792 234.335 213.488C232.657 210.036 230.411 208.721 226.586 209.062C222.684 209.414 218.733 209.277 214.809 209.645C213.235 209.794 212.508 210.675 211.919 211.803C210.07 215.381 208.271 218.981 206.515 222.603C205.838 223.996 204.941 224.755 203.301 224.552C198.496 223.957 193.681 223.467 188.887 222.823C187.197 222.598 185.921 221.42 184.743 220.264C180.621 216.229 176.62 212.073 172.635 207.895C169.036 204.113 164.077 201.994 159.729 199.132C154.457 195.658 149.245 192.058 143.747 188.976C139.878 186.813 138.871 183.576 138.777 179.69C138.64 174.103 137.93 168.543 138.177 162.945C138.271 160.765 138.876 159.207 141.199 158.327C152.234 154.149 163.351 150.219 174.616 146.707C178.199 145.589 181.87 145.699 185.475 145.435C197.049 144.587 208.601 143.398 220.208 142.953C223.587 142.821 226.961 142.6 230.345 142.551C232.007 142.529 232.651 143.228 231.947 144.714C227.269 154.545 229.993 164.866 229.872 175C229.844 177.477 230.026 179.949 230.01 182.426C229.993 184.754 230.78 186.615 232.448 188.304C238.375 194.31 244.682 199.875 251.16 205.264C253.438 207.157 256.168 207.405 258.821 207.901C262.277 208.545 264.858 210.179 266.79 213.146C269.184 216.829 271.759 220.396 274.368 223.935C276.151 226.352 277.224 226.247 278.842 223.737C278.991 223.506 279.228 223.302 279.288 223.049C280.659 217.682 284.373 216.961 289.277 217.341C295.546 217.831 301.908 218.579 308.154 217.357C312.397 216.526 316.509 217.038 320.68 217.44C323.344 217.699 325.243 221.365 323.658 223.533C320.521 227.821 317.092 231.873 313.355 235.66C312.403 236.623 311.798 236.788 311.198 235.368C310.185 232.963 308.54 230.981 306.674 229.22C305.623 228.223 305.689 227.309 306.514 226.363C307.494 225.234 308.143 223.935 308.721 222.587C308.974 221.998 309.332 221.332 308.606 220.875C307.995 220.489 307.345 220.737 306.85 221.216C305.793 222.234 304.797 223.313 303.724 224.31C303.041 224.943 302.519 226.027 301.258 225.537C301.066 224.816 301.693 224.585 301.996 224.188C302.414 223.649 302.766 223.11 302.299 222.46C301.787 221.75 301.088 221.717 300.35 222.091C300.026 222.256 299.706 222.443 299.382 222.609C295.419 224.629 295.381 224.662 292.53 221.299C290.609 219.036 288.165 218.133 285.293 217.979C283.141 217.864 282.568 218.97 282.7 220.858C282.816 222.537 282.684 224.359 285.276 224.018C285.909 223.935 286.564 224.018 287.197 223.93C289.717 223.599 291.633 223.847 290.994 227.232C290.752 228.52 291.644 228.873 292.843 228.983C300.009 229.649 304.698 233.876 306.162 241.043C307.274 246.504 308.248 251.992 309.282 257.469C309.211 257.535 309.139 257.601 309.068 257.667L309.046 257.672Z" fill="#AEAEAE"/>
<path d="M296.47 289.978C292.524 289.901 288.974 288.255 285.523 286.709C281.44 284.876 278.198 284.958 275.496 288.767C274.659 289.945 274.005 289.791 272.942 288.855C268.132 284.628 263.179 280.566 258.363 276.349C256.245 274.494 254.065 274.334 251.49 275.122C249.409 275.76 247.197 277.439 245.232 276.696C242.97 275.843 243.851 272.854 243.201 270.856C242.557 268.874 240.884 268.626 239.431 268.07C231.137 264.905 222.596 262.505 214.126 259.891C207.841 257.948 201.49 256.203 195.194 254.309C189.393 252.564 183.504 252.614 177.621 253.478C170.67 254.502 170.621 254.551 170.472 247.45C170.208 234.983 171.303 222.592 172.426 209.513C174.941 212.089 177.384 214.142 179.267 216.62C184.071 222.939 190.516 225.003 198.144 225.218C206.267 225.449 206.256 225.719 209.844 218.519C212.383 213.425 216.586 210.693 222.453 210.322C222.634 210.311 222.822 210.333 223.003 210.3C228.435 209.326 232.596 210.598 234.528 216.405C235.287 218.684 237.01 219.119 239.123 217.825C239.976 217.302 240.923 216.911 241.869 216.575C242.568 216.333 243.306 215.348 244.043 216.223C244.572 216.845 244.522 217.781 244.285 218.601C244.186 218.948 243.983 219.267 243.812 219.586C242.965 221.172 241.6 222.636 244.071 224.199C247.202 226.175 247.89 226.252 250.169 223.841C251.291 222.652 252.436 221.491 253.537 220.346C253.829 220.506 254.06 220.555 254.098 220.665C255.749 225.575 255.094 225.526 261.677 225.074C265.65 224.805 265.683 224.887 264.505 228.696C264.45 228.873 264.379 229.043 264.329 229.214C262.799 234.306 263.586 235.269 268.754 234.107C271.121 233.579 272.029 234.476 272.205 236.59C272.326 238.049 272.276 239.518 272.309 240.983C272.392 244.516 273.151 245.342 276.74 245.32C279.756 245.304 282.772 245.138 285.782 244.94C288 244.797 288.958 245.623 288.842 247.946C288.704 250.687 288.71 253.45 288.892 256.192C289.09 259.164 290.427 259.88 293.118 258.641C293.938 258.261 294.72 257.749 295.435 257.199C296.261 256.56 297.174 256.164 298.176 256.021C302.628 255.377 308.66 258.503 310.796 262.533C308.98 262.742 308.226 263.804 308.605 265.544C309.134 267.949 308.093 269.733 306.624 271.461C305.21 273.118 303.977 274.929 302.524 276.553C301.566 277.626 301.148 278.848 301.583 280.065C302.705 283.197 301.253 285.294 299.128 287.254C298.198 288.112 297.351 289.065 296.464 289.973L296.47 289.978Z" fill="#AEAEAE"/>
<path d="M311.897 263.623C316.916 262.461 320.147 265.786 323.482 268.483C331.396 274.88 338.044 282.514 344.274 290.523C347.389 294.525 347.301 299.606 348.638 304.191C349.651 307.665 351.087 310.857 353.036 313.846C353.443 314.468 353.696 315.448 354.78 315.36C354.665 317.132 355.545 318.987 352.54 319.807C350.058 320.479 350.311 324.916 352.683 326.396C353.614 326.974 354.588 327.574 355.628 327.855C357.67 328.406 358.633 329.903 359.755 331.51C361.274 333.684 360.735 334.84 358.385 335.275C353.828 336.117 351.242 339.343 348.759 342.811C346.905 345.404 344.912 347.903 342.997 350.451C342.26 351.436 341.489 351.668 340.179 351.376C328.798 348.816 317.549 345.728 306.261 342.789C304.472 342.327 303.636 341.506 304.907 339.778C307.709 335.969 306.503 332.539 304.307 328.923C301.891 324.943 299.866 320.727 297.659 316.615C297.169 315.696 297.037 314.732 297.043 313.703C297.065 306.002 297.059 298.307 297.065 290.606C300.114 288.922 302.948 286.423 302.898 283.059C302.838 278.903 304.423 276.096 306.888 273.151C308.479 271.252 311.06 269.408 310.081 266.342C309.442 264.349 310.35 263.893 311.897 263.623Z" fill="#AEAEAE"/>
<path d="M347.625 127.584C348.357 127.584 349.095 127.584 349.827 127.584C353.861 128.096 357.895 128.608 361.929 129.12C362.292 129.153 362.655 129.186 363.024 129.219C364.306 129.301 365.594 129.384 366.877 129.461C367.24 129.566 367.609 129.676 367.972 129.78C369.238 129.874 370.498 129.967 371.764 130.056C372.149 130.144 372.534 130.226 372.92 130.314C374.202 130.463 375.49 130.612 376.772 130.766C377.135 130.799 377.504 130.832 377.867 130.865C380.982 131.2 384.103 131.542 387.218 131.878C387.581 131.911 387.944 131.944 388.313 131.977C389.579 132.07 390.839 132.164 392.105 132.252C392.49 132.34 392.875 132.422 393.261 132.511C394.708 132.615 396.15 132.72 397.597 132.824C397.983 132.907 398.373 132.989 398.759 133.072C400.024 133.166 401.285 133.259 402.551 133.347C402.936 133.435 403.321 133.518 403.706 133.606C405.154 133.711 406.596 133.815 408.043 133.92C408.428 134.002 408.819 134.085 409.204 134.167C410.47 134.261 411.73 134.355 412.996 134.443C413.382 134.531 413.767 134.613 414.152 134.701C415.622 134.855 417.085 135.01 418.555 135.164C418.918 135.197 419.281 135.23 419.65 135.263C420.916 135.356 422.176 135.45 423.442 135.544C423.827 135.632 424.213 135.714 424.598 135.802C426.067 135.956 427.531 136.111 429.001 136.265C429.364 136.298 429.727 136.331 430.096 136.364C431.538 136.474 432.98 136.578 434.427 136.689C434.818 136.766 435.209 136.837 435.594 136.914C436.86 137.008 438.12 137.101 439.386 137.189C439.771 137.277 440.156 137.36 440.542 137.448C442.836 137.25 445.423 139.254 447.393 136.556C448.318 136.397 448.736 135.753 448.962 134.916C449.435 132.004 450.668 129.351 451.686 126.621C451.95 126.235 452.215 125.85 452.479 125.465C452.93 124.837 453.332 124.188 453.288 123.368L453.271 123.34C453.844 123.18 454.124 122.74 454.311 122.217C454.686 121.843 455.06 121.468 455.429 121.094C457.113 120.136 456.419 118.595 456.37 117.213C456.331 116.85 456.293 116.487 456.254 116.118C456.441 114.819 456.155 113.415 457.102 112.281C457.729 111.604 458.356 110.927 458.984 110.25C459.837 109.887 460.563 109.375 460.943 108.483L460.971 108.5C463.42 107.663 465.698 106.43 468.5 106.711C473.849 107.245 477.718 104.261 481.29 100.777L481.317 100.793C482.374 100.678 483.034 100.034 483.491 99.1256L483.519 99.1421C484.63 99.0541 485.197 98.1899 485.869 97.4798C486.177 97.2816 486.491 97.0834 486.799 96.8853C486.986 96.7312 487.168 96.5825 487.355 96.4339C487.696 96.1972 488.032 95.966 488.373 95.7293C489.105 95.3881 489.787 94.9917 490.095 94.1771L490.123 94.1936C491.4 94.5514 492.616 92.3551 493.931 94.089C493.942 95.0082 493.959 95.922 493.97 96.8412C493.832 97.9421 493.695 99.0486 493.552 100.149C493.513 100.694 493.48 101.245 493.442 101.79C493.442 102.159 493.442 102.522 493.442 102.891C493.37 103.315 493.359 103.722 493.711 104.047C493.849 104.674 494.019 105.269 494.856 105.197C494.856 105.197 494.861 105.208 494.867 105.208C494.867 106.403 495.874 106.171 496.551 106.397C496.942 106.469 497.333 106.546 497.723 106.617C498.092 106.617 498.455 106.617 498.824 106.617C499.369 106.584 499.919 106.557 500.464 106.524C503.359 106.315 506.056 105.291 508.802 104.471C510.376 104.003 511.234 103.001 511.069 101.283C511.631 100.381 511.422 99.4339 511.234 98.4871C511.091 96.0981 510.943 93.7147 510.8 91.3257C510.75 90.7753 510.706 90.2303 510.662 89.6799C510.525 88.2101 510.387 86.7404 510.249 85.2707C510.216 84.9074 510.189 84.5386 510.156 84.1753C509.936 82.6671 509.71 81.1589 509.49 79.6451C509.446 79.3203 509.407 78.9956 509.363 78.6708C509.292 77.5699 509.22 76.4635 509.149 75.3626C509.066 74.9773 508.978 74.5864 508.895 74.2011C508.802 73.1222 508.703 72.0379 508.609 70.959C508.609 70.5902 508.609 70.2214 508.609 69.8581C509.215 68.603 509.815 67.348 510.42 66.093C511.168 65.3444 511.911 64.6012 512.654 63.8526C512.99 63.6049 513.326 63.3627 513.662 63.115C514.966 62.4049 515.968 61.4086 516.562 60.027C517.305 58.9481 518.714 58.3096 518.719 56.7463C518.719 56.7463 518.697 56.7133 518.697 56.7077C520.921 54.6931 520.855 54.0215 518.147 51.0821L518.169 51.0436C518.323 49.6124 515.868 47.1299 519.715 47.1684C521.367 47.1684 523.018 47.1684 524.669 47.1684C527.756 47.2895 530.557 48.462 533.364 49.5904L533.397 49.5684C534.283 51.0821 535.874 51.528 537.327 52.183C537.679 52.75 538.29 52.8216 538.857 52.9757C545.125 56.2289 550.865 61.1334 558.747 59.2784C561.13 59.2784 563.513 59.2784 565.896 59.2784C566.413 59.3499 566.936 59.427 567.453 59.4985L567.442 59.4875C568.174 62.3829 568.972 65.2673 569.622 68.1847C570.425 71.7791 570.816 72.1534 574.696 72.4122C575.059 72.4397 575.428 72.4672 575.791 72.4947C576.969 72.5553 578.152 72.7039 579.324 72.6599C581.058 72.5883 582.962 72.8966 584.123 71.058V71.0305C584.712 70.9204 584.987 70.4856 585.208 69.9902C585.549 69.5828 585.89 69.17 586.231 68.7627C586.6 68.7627 586.963 68.7572 587.332 68.7517C587.503 68.9608 587.668 69.17 587.838 69.3792C588.477 70.359 588.642 71.7131 589.985 72.1479C590.007 72.9351 590.381 73.4745 591.107 73.7718C591.107 73.7718 591.085 73.7938 591.091 73.7938C591.201 74.8562 591.845 75.5167 592.747 75.9736L592.725 76.0121C592.687 76.4745 592.869 76.8268 593.243 77.0855C593.468 77.4268 593.7 77.7736 593.925 78.1149C594.244 78.5112 594.558 78.9075 594.877 79.2983C595.174 80.2616 595.835 80.9387 596.611 81.5277C596.897 82.6286 597.756 83.1735 598.719 83.5038C605.351 85.7827 611.993 88.0285 618.631 90.2798L618.609 90.2633C618.856 91.2817 617.7 91.5514 617.513 92.333L617.475 92.311C617.007 92.278 616.655 92.4541 616.418 92.8615C615.813 93.3404 615.956 93.9844 616.033 94.6174C615.95 96.2357 616.033 97.8871 615.736 99.4669C615.356 101.487 615.549 102.852 617.987 103.023C618.774 103.078 619.186 103.749 619.335 104.526C619.451 104.889 619.566 105.258 619.687 105.621C621.217 114.61 622.753 123.604 624.283 132.593C624.398 132.956 624.519 133.325 624.635 133.689C624.701 134.789 624.767 135.896 624.833 136.997C624.817 137.795 624.651 138.544 624.101 139.16C623.391 139.529 622.764 139.986 622.456 140.767L622.433 140.756C620.507 141.494 618.454 141.213 616.473 141.516C615.873 141.428 615.284 141.367 614.773 141.802C613 142.028 611.03 141.681 609.814 143.52L609.786 143.498C609.005 143.52 608.449 143.866 608.163 144.615C608.163 144.615 608.13 144.593 608.13 144.599C605.989 144.918 604.415 146.327 602.676 147.428C602.5 147.428 602.335 147.477 602.181 147.56C600.001 148.694 597.756 149.58 595.23 149.58C593.149 149.58 591.063 149.701 588.983 149.767C588.62 149.806 588.256 149.844 587.888 149.883C587.084 149.663 586.413 150.158 585.681 150.307C584.905 150.263 584.393 150.659 584.03 151.303C582.968 151.842 581.795 152.244 581.217 153.428L581.19 153.406C577.569 154.886 574.189 156.764 571.322 159.477C571.322 159.477 571.284 159.455 571.289 159.455C568.868 160.363 566.474 161.31 565.23 163.842L565.296 163.963L565.219 163.848C563.303 164.558 564.608 165.213 565.252 165.879C565.202 165.989 565.224 166.083 565.318 166.154C565.675 166.87 566.033 167.58 566.391 168.295C565.758 168.67 565.34 169.204 565.18 169.925C565.032 170.106 564.883 170.288 564.734 170.47C564.366 170.855 563.997 171.235 563.628 171.62C563.314 171.598 563.001 171.576 562.687 171.549V171.56C562.676 170.767 562.28 170.244 561.559 169.941L561.581 169.919C561.592 169.149 561.119 168.681 560.557 168.262C560.067 167.106 559.044 166.413 558.207 165.554C556.039 164.404 553.749 165.119 551.509 165.13C550.579 165.13 550.486 165.984 550.271 166.688C549.335 169.71 549.858 170.415 552.984 170.618C554.349 170.706 556.43 169.98 556.853 171.719C557.679 175.116 559.484 178.396 558.659 182.09C558.301 182.271 557.943 182.453 557.585 182.635C553.447 184.231 549.011 185.156 545.478 188.09L545.45 188.106C543.623 189.015 544.564 190.044 545.307 191.084C545.835 191.822 546.947 192.692 544.982 193.022C544.652 192.978 544.327 192.939 543.997 192.901C542.99 192.449 541.994 192.257 541.069 193.088C540.733 193.286 540.398 193.484 540.062 193.682C539.011 194.244 537.695 194.447 537.206 195.785H537.2C534.008 197.161 533.375 198.229 534.135 201.372C534.514 202.941 535.125 204.455 535.61 205.996C535.907 206.932 536.358 207.923 535.103 208.561C534.757 208.66 534.388 208.721 534.058 208.864C517.008 216.212 499.93 223.495 482.935 230.953C471.46 235.99 459.914 240.878 448.736 246.564C446.953 247.473 445.363 248.507 445.043 250.66C444.763 252.559 444.471 254.469 444.433 256.379C444.311 262.819 444.713 263.386 450.883 265.247C452.847 265.836 453.563 266.931 453.194 268.88C452.616 271.951 451.785 274.935 450.321 277.725C449.584 279.129 448.94 279.333 448.114 277.786C447.08 275.843 445.874 276.03 444.455 277.483C443.057 278.909 441.483 280.153 440.052 281.546C438.786 282.779 438.054 282.652 437.713 280.858C437.443 279.421 437.212 277.973 436.81 276.569C435.605 272.386 431.626 271.197 428.291 273.977C427.531 274.61 426.893 275.447 425.682 275.16C423.91 274.742 422.105 274.456 420.338 273.993C417.839 273.338 417.482 272.513 418.902 270.382C420.426 268.087 420.833 265.913 419.771 263.182C418.214 259.175 416.431 255.228 415.137 251.155C413.607 246.35 410.465 243.553 405.897 242.331C401.235 241.082 398.704 238.01 397.24 233.7C396.827 232.489 396.453 231.245 395.88 230.111C393.442 225.311 393.783 221.188 398.472 217.88C399.474 217.176 400.531 216.185 400.217 214.671C399.32 210.378 398.605 206.04 396.816 201.978C396.1 200.359 395.11 199.402 393.233 199.765C391.516 200.15 389.381 198.515 388.071 200.849C387.311 200.849 386.552 200.849 385.792 200.849C385.721 200.387 385.611 199.853 385.071 199.836C381.533 199.754 377.983 199.649 374.483 200.343C373.954 200.447 373.866 200.943 373.811 201.405C373.404 201.405 372.997 201.405 372.595 201.405C372.578 200.464 371.94 200.299 371.191 200.266L370.151 200.288C365.864 200.497 361.566 200.552 357.3 200.987C355.363 201.185 355.154 200.486 355.171 198.928C355.22 193.803 355.121 188.673 355.209 183.549C355.297 178.539 353.063 174.158 351.637 169.556C351.467 169.011 350.999 168.681 350.394 168.615L350.421 168.598C350.641 167.668 350.338 166.941 349.359 166.892C348.495 166.853 348.236 167.585 348.209 168.362C348.225 168.917 348.247 169.473 348.264 170.029C349.386 173.965 349.265 174.141 345.358 175.611C343.773 176.205 341.67 176.035 341.104 178.281C341.087 178.589 341.225 178.727 341.538 178.677C343.806 178.55 346.068 178.374 348.335 178.325C349.304 178.303 350.531 178.281 350.069 179.932C349.629 180.207 349.183 180.488 348.742 180.763C348.33 181.116 347.884 181.451 348.121 182.106L348.143 182.09C347.152 181.66 346.492 182.382 345.738 182.778C345.644 182.855 345.545 182.927 345.446 182.993C345.116 183.136 344.752 183.24 344.455 183.438C343.745 183.912 342.369 183.972 342.468 184.941C342.579 185.971 343.866 185.844 344.725 185.91C346.244 186.02 345.974 186.758 345.49 187.726C344.73 189.246 344.147 190.781 346.481 191.514L346.459 191.503C346.277 192.614 347.042 192.89 347.873 193.115C348.429 193.451 348.99 193.787 349.546 194.123C352.298 194.255 351.979 195.983 351.467 197.816C351.274 198.361 351.081 198.906 350.889 199.451C349.761 200.431 343.492 201.543 342.419 200.965C341.913 200.69 342.094 200.216 342.017 199.792C341.439 196.583 340.779 193.391 339.375 190.424C339.007 189.648 339.023 188.332 337.994 188.293C336.959 188.255 336.349 189.268 335.985 190.248C335.76 190.495 335.534 190.743 335.308 190.991C334.763 191.492 334.318 192.042 334.389 192.846C333.773 192.901 333.399 193.286 333.085 193.77C332.573 194.277 332.188 194.844 332.193 195.598C331.368 196.11 330.906 196.798 331.087 197.811C330.124 198.846 331.142 199.363 331.665 200.013C331.368 201.202 330.372 200.745 329.634 200.86C327.191 201.24 324.758 201.642 322.766 203.293C322.425 203.029 322.089 202.765 321.748 202.501V202.49C321.753 202.022 321.649 201.603 321.236 201.323C320.807 199.655 320.157 198.009 319.975 196.314C319.001 187.193 319.629 178.055 319.75 168.917C319.788 165.923 321.792 163.407 321.247 160.396L321.236 160.407C323.217 159.461 323.613 157.595 323.971 155.707L323.955 155.718C324.4 155.613 324.538 155.299 324.516 154.875V154.886C325.325 154.259 326.024 153.582 325.639 152.409L325.622 152.437C327.262 151.545 328.275 152.635 329.326 153.604L329.348 153.615C329.816 155.442 331.291 154.562 332.292 154.595C335.826 154.699 339.442 154.11 342.628 156.279C342.799 156.477 342.975 156.675 343.145 156.874C343.349 157.38 343.63 157.809 344.197 157.969L344.18 157.997C344.433 159.554 345.143 160.842 346.398 161.811L346.376 161.85C347.383 164.69 349.651 165.406 353.085 163.952C353.778 163.617 354.108 163.066 354.092 162.301C354.163 161.751 354.23 161.2 354.296 160.644C354.4 160.281 354.51 159.912 354.615 159.549C354.615 158.085 354.615 156.615 354.615 155.151C354.532 154.76 354.45 154.375 354.367 153.984C354.158 152.817 354.345 151.518 353.217 150.67C352.507 149.013 350.938 148.099 349.849 146.773C349.485 146.365 349.128 145.953 348.77 145.545C348.572 145.237 348.374 144.929 348.176 144.615C348.022 144.428 347.873 144.246 347.724 144.059C347.559 143.343 347.146 142.804 346.53 142.413C346.431 141.802 346.139 141.373 345.473 141.296C344.945 139.738 344.092 138.406 342.705 137.465L342.722 137.443C342.76 135.648 340.019 134.833 341.049 132.687C342.534 131.211 344.026 129.731 345.512 128.256C346.2 128.002 346.888 127.755 347.576 127.501L347.625 127.584Z" fill="#AEAEAE"/>
<path d="M248.105 454.211C247.775 453.969 247.445 453.722 247.115 453.479C247.269 450.826 245.876 448.432 245.827 445.812C245.876 445.377 245.827 444.975 245.447 444.683C245.254 442.14 245.062 439.597 244.869 437.054L244.858 437.065C245.678 437.125 246.377 436.839 247.004 436.333C247.538 436.184 247.896 435.837 248.089 435.32C248.738 434.968 248.942 434.318 249.178 433.691C249.597 433.443 249.718 433.058 249.696 432.601C251.501 427.795 250.554 426.419 245.623 426.683C245.535 426.683 245.447 426.711 245.353 426.722C244.985 426.491 244.616 426.26 244.247 426.028C243.664 424.371 243.075 422.709 242.492 421.052C242.293 420.436 242.128 419.803 241.473 419.478C238.226 417.683 234.836 416.324 231.099 415.994C229.987 415.278 229.068 415.361 228.452 416.649C228.039 417.634 227.588 418.608 227.219 419.61C226.218 422.362 225.959 425.417 223.917 427.746C223.548 427.746 223.18 427.751 222.811 427.757C218.078 426.788 213.191 426.282 209.168 423.193C209.047 422.456 208.645 421.916 208.001 421.548C207.296 419.869 207.395 418.234 207.929 416.489C208.507 414.584 208.749 412.581 209.14 410.621C209.531 410.335 209.569 409.928 209.52 409.493C209.52 408.392 209.514 407.296 209.509 406.195C208.969 404.495 207.836 403.3 206.317 402.43C205.409 401.841 204.501 401.258 203.593 400.674C203.4 400.498 203.207 400.317 203.015 400.141C203.218 399.243 203.422 398.341 203.626 397.443C203.626 397.443 203.626 397.427 203.62 397.427C204.6 397.025 205.365 396.458 205.277 395.247L205.266 395.23C206.053 394.928 206.52 394.306 206.895 393.59C207.577 393.177 208.122 392.643 208.414 391.884C208.815 391.333 209.212 390.783 209.608 390.232C209.828 389.886 210.048 389.539 210.268 389.192C211.105 388.686 211.507 387.97 211.325 386.974V386.996C212.162 387.067 212.613 386.561 212.943 385.889C213.141 385.565 213.339 385.24 213.537 384.91C214.974 383.93 216.097 382.735 216.366 380.93C218.386 379.19 219.619 376.664 222.277 375.497C223.625 374.902 224.352 374.517 225.034 376.108C225.48 377.148 225.788 378.711 227.225 378.513C228.656 378.315 228.568 376.647 228.744 375.574C229.035 373.796 229.8 373.146 231.633 373.086C234.682 372.981 235.32 372.106 234.621 369.051C234.247 367.422 234.781 367.042 236.19 367.135C238.92 367.306 241.649 367.57 244.385 367.631C248.81 367.73 250.296 366.634 251.682 362.55C252.508 360.112 251.837 359.11 249.277 358.928C248.303 358.857 247.291 359.187 246.339 358.713C248.237 355.614 249.189 355.345 251.903 357.183C252.734 357.745 253.57 358.317 254.33 358.961C255.634 360.073 256.795 360.145 258.232 359.038C261.891 356.22 265.298 353.325 266.498 348.514C267.07 346.229 268.391 344.148 269.123 341.892C270.048 339.057 272.062 338.6 274.511 339.178C277.241 339.816 279.982 339.596 282.717 339.574C284.907 339.558 285.518 338.457 284.384 336.525C283.141 334.4 281.792 332.297 280.218 330.409C277.18 326.765 278.424 323.033 279.679 319.257C279.85 318.745 280.246 318.393 280.807 318.151C283.911 316.797 286.745 317.573 288.798 320.264C290.125 322.004 291.572 323.655 293.02 325.301C293.542 325.895 294.296 326.039 295.034 325.686C295.59 325.422 295.777 324.932 295.645 324.31C294.236 317.672 292.607 310.956 288.743 305.391C285.436 300.624 280.939 296.688 277.004 292.356C276.448 291.745 275.342 291.366 275.865 290.138C276.828 287.87 280.103 286.345 282.502 287.149C286.316 288.432 290.081 289.863 293.928 291.035C295.199 291.421 295.513 292.043 295.447 293.171C295.067 299.496 296.079 305.793 295.87 312.107C295.76 315.42 296.311 318.36 298.215 321.178C300.152 324.051 301.567 327.272 303.41 330.222C305.342 333.316 305.634 336.046 303.388 339.271C301.286 342.288 301.666 342.866 305.342 343.89C314.929 346.559 324.533 349.185 334.164 351.69C342.238 353.787 342.221 353.671 347.268 346.939C350.625 342.459 353.388 337.317 359.783 336.216C361.676 335.892 362.32 336.249 362.425 338C362.623 341.286 362.87 344.567 363.003 347.853C363.355 356.836 360.746 365.671 361.456 374.638C362.249 384.64 359.112 393.662 354.923 402.348C353.03 406.278 352.084 409.966 353.168 414.166C353.305 414.7 353.9 415.316 353.118 415.955C350.763 415.305 349.596 413.951 351.032 411.595C352.849 408.612 351.533 406.68 349.288 404.786C347.994 403.696 346.745 402.761 345.199 404.06C343.768 405.265 342.54 406.658 343.685 408.799C344.059 409.498 345.028 410.473 343.581 411.039C342.21 411.579 341.847 410.731 341.385 409.487C340.333 406.63 338.027 404.731 335.485 403.218C334.379 402.557 332.92 402.397 331.968 403.586C331.093 404.682 331.963 405.64 332.65 406.509C333.162 407.153 333.691 407.781 334.214 408.414C338.446 413.511 343.856 417.05 349.607 420.155C351.219 421.025 352.562 421.955 351.093 424.135C349.822 426.012 350.168 427.9 351.555 429.722C353.498 432.276 355.479 434.775 357.785 437.021C358.979 438.182 360.41 439.052 361.973 438.524C365.463 437.346 368.181 438.645 370.812 440.692C372.326 441.87 373.784 443.18 375.446 444.105C379.359 446.279 379.777 450.017 380.388 454.035C378.897 453.578 377.702 453.122 376.464 452.852C371.252 451.707 367.686 449.12 366.739 443.379C366.25 440.428 363.069 439.261 360.289 440.428C359.139 440.913 358.495 441.645 359.089 442.999C360.581 446.384 362.293 449.665 365.666 451.509C368.633 453.127 371.847 454.294 374.808 455.918C378.743 458.07 383.333 458.978 386.205 463.118C391.428 470.631 396.866 477.98 400.449 486.484L400.261 486.639C399.271 486.011 398.308 485.329 397.273 484.773C396.051 484.112 395.176 484.371 394.874 485.879C394.769 486.385 395.336 487.387 394.191 487.255C393.476 487.173 392.562 486.633 392.716 485.868C393.145 483.771 392.936 482.263 391.076 480.705C390.185 479.956 389.645 479.285 388.489 479.472C385.352 479.973 384.191 481.641 385.22 485.07C387.323 492.072 392.413 497.064 398.148 500.879C404.092 504.831 409.397 509.262 413.987 514.646C414.961 515.785 416.849 516.886 416.073 518.449C415.347 519.919 413.129 519.528 411.604 520.068C411.522 520.095 411.423 520.079 411.329 520.084C410.388 520.15 409.689 519.941 409.711 518.785C409.755 516.022 408.132 516.589 406.635 517.359C405.259 518.069 403.954 518.95 402.705 519.869C401.148 521.014 401.368 521.884 403.239 522.413C404.362 522.726 405.446 523.172 406.976 523.706C404.615 524.24 402.298 525.528 400.9 523.954C398.891 521.691 396.778 519.082 396.585 515.862C396.42 513.099 395.396 511.431 392.793 510.572C389.04 509.328 386.382 507.352 388.159 502.772C388.22 502.613 388.181 502.409 388.17 502.227C388.137 501.732 387.912 501.286 387.438 501.182C386.855 501.049 386.745 501.567 386.574 502.002C385.925 503.692 385.886 505.607 384.786 507.137C382.001 506.301 380.895 503.235 378.209 502.327C377.411 501.528 376.613 500.725 375.815 499.927C375.551 498.683 375.319 497.422 375.006 496.189C374.758 495.237 374.318 494.284 373.14 495.176C371.621 496.321 371.472 501.138 373.008 502.156C379.942 506.752 385.705 512.741 392.094 517.987C392.452 518.647 392.898 519.17 393.756 519.044L393.745 519.016C393.564 519.913 393.998 521.014 392.683 521.499C391.401 521.972 391.676 522.732 392.485 523.508C393.465 524.455 394.4 525.457 395.969 525.088L395.947 525.077C396.046 526.745 397.19 526.816 398.445 526.717L400.124 527.312C400.322 528.077 400.784 528.6 401.549 528.836C406.596 530.405 411.923 530.466 417.025 531.732C417.152 531.825 417.267 531.935 417.361 532.062C417.377 532.453 417.554 532.711 417.955 532.794L417.939 532.778C417.818 533.785 417.741 534.858 418.456 535.623C420.168 537.451 420.47 539.68 420.938 542.025C421.368 544.194 420.278 546.126 420.696 548.174L420.707 548.152C419.48 548.141 419.491 548.95 419.601 549.825L419.612 549.809C419.023 549.968 418.952 550.398 419.034 550.909L419.045 550.887C417.697 550.942 417.856 551.884 417.933 552.781L417.906 552.924C416.926 554.966 418.445 554.73 419.617 554.807L419.595 554.796C419.491 555.291 419.656 555.665 420.102 555.908C420.305 556.089 420.509 556.271 420.713 556.458C420.377 557.185 419.623 556.953 419.062 557.168C418.33 557.141 417.598 557.108 416.866 557.08C415.231 557.014 413.591 556.948 411.957 556.882C411.472 556.381 410.867 556.48 410.267 556.524C408.616 556.364 406.965 556.199 405.314 556.04C404.951 556.023 404.582 556.012 404.219 555.996C402.567 555.935 400.916 555.88 399.265 555.825C398.715 555.698 398.17 555.572 397.62 555.445C395.991 555.385 394.301 555.588 392.744 555.219C387.543 553.992 386.959 555.853 386.514 560.251C385.936 561.01 385.93 561.77 386.519 562.53C386.541 563.785 386.602 565.018 388.231 565.271C388.99 566.35 389.904 567.28 390.999 568.029C391.516 569.074 392.204 570.06 392.21 571.298C392.149 571.898 392.039 572.509 392.568 572.988C392.634 574.26 392.694 575.531 392.76 576.803C392.898 577.166 393.03 577.535 393.167 577.898C393.322 582.753 393.657 583.298 398.632 584.415C401.296 585.01 402.892 586.083 402.782 589.1C402.567 594.962 404.345 600.136 408.511 604.386C408.698 604.744 408.886 605.102 409.073 605.459C409.133 606.918 409.194 608.371 409.254 609.83C408.797 617.305 409.491 624.736 410.173 632.162C408.985 632.525 409.194 633.521 409.166 634.402C409.122 636.125 408.99 637.848 409.062 639.565C409.194 642.659 407.57 643.688 404.763 643.485C404.4 643.518 404.031 643.551 403.668 643.584C402.386 643.738 401.098 643.892 399.816 644.046C399.452 644.068 399.084 644.085 398.72 644.107C397.251 644.272 395.787 644.431 394.318 644.596C393.888 644.541 393.476 644.558 393.178 644.938C391.725 645.009 390.273 645.075 388.82 645.147C388.456 645.169 388.088 645.196 387.724 645.218C386.255 645.378 384.791 645.538 383.322 645.697C382.722 645.637 382.116 645.543 381.638 646.055C380.185 646.116 378.732 646.182 377.273 646.242C376.91 646.27 376.541 646.303 376.178 646.33C374.709 646.485 373.245 646.639 371.775 646.798C371.175 646.738 370.564 646.644 370.091 647.167C368.451 647.228 366.816 647.288 365.176 647.349C364.813 647.376 364.444 647.404 364.081 647.431C362.249 647.585 360.416 647.745 358.578 647.905C357.317 647.844 356.057 647.784 354.797 647.723C354.901 646.099 355 644.481 355.105 642.857C355.132 642.307 355.165 641.756 355.193 641.211C355.259 639.571 355.32 637.936 355.386 636.296C355.886 635.811 355.787 635.206 355.743 634.606C355.809 633.153 355.875 631.699 355.941 630.246C356.316 629.943 356.327 629.531 356.277 629.101C356.349 627.648 356.42 626.195 356.492 624.742C356.866 624.439 356.877 624.026 356.828 623.597C356.982 622.127 357.13 620.657 357.284 619.193C357.317 618.643 357.345 618.092 357.378 617.547C357.444 615.725 357.51 613.903 357.576 612.081C358.214 610.226 358.302 608.371 357.549 606.522C357.372 606.147 357.196 605.768 357.026 605.393C356.839 605.035 356.651 604.678 356.459 604.314C354.345 599.58 352.408 594.759 349.326 590.531C349.249 590.091 349.112 589.694 348.66 589.496C348.121 588.748 347.378 588.456 346.475 588.555C342.447 588.307 338.418 588.307 334.39 588.566C331.462 588.362 328.495 589.694 325.595 588.368C325.419 588.175 325.248 587.982 325.072 587.784C324.885 587.421 324.698 587.063 324.505 586.7C324.439 586.348 324.368 585.995 324.302 585.643C324.544 582.181 325.964 579.027 326.877 575.74C327.185 574.639 328.253 573.109 326.2 572.372V572.361C326.365 571.073 325.408 570.665 324.516 570.208C323.949 569.328 323.228 568.618 322.282 568.15C321.93 567.918 321.572 567.687 321.214 567.456C320.708 566.608 320.047 565.948 319.046 565.717C318.694 565.309 318.407 564.797 317.973 564.511C315.59 562.926 315.65 561.032 316.998 558.775C317.962 557.163 318.699 555.407 319.536 553.717C320.146 553.293 320.047 552.671 319.998 552.065C319.998 547.662 319.998 543.264 319.992 538.86C320.108 537.935 320.047 537.093 318.985 536.724C317.862 536.724 316.844 535.959 315.683 536.284C314.951 536.256 314.219 536.223 313.487 536.196C310.372 536.036 307.252 535.882 304.137 535.728C303.586 535.706 303.041 535.684 302.491 535.662C301.385 535.634 300.691 535.222 300.906 533.961L300.895 533.945C301.638 533.653 302.012 533.113 302.001 532.31L301.99 532.293C302.744 532.012 303.108 531.462 303.102 530.658L303.091 530.642C304.021 530.201 304.654 529.535 304.748 528.456C304.748 528.456 304.742 528.434 304.737 528.434C306.002 527.697 306.685 526.568 306.943 525.148L306.938 525.132C309.855 522.567 310.163 521.532 308.633 519.534C308.149 518.042 306.966 517.161 305.804 516.253C305.127 515.251 305.232 514.128 305.303 513.011C305.694 512.725 305.733 512.317 305.683 511.882C306.476 507.49 307.263 503.092 308.055 498.699C308.451 498.413 308.484 498.005 308.435 497.571C308.655 495.958 308.881 494.345 309.09 492.732C309.31 491.048 308.837 490.002 306.899 489.738C303.95 489.336 301.038 488.686 298.11 488.141C297.824 487.745 297.417 487.718 296.982 487.767C293.889 486.908 290.537 487.096 287.643 485.439C287.466 485.251 287.285 485.064 287.109 484.872C286.25 483.732 285.755 482.285 284.384 481.569L284.395 481.558C284.423 480.903 284.043 480.435 283.675 479.962C283.394 479.197 282.854 478.668 282.167 478.266C281.055 476.433 279.932 476.263 278.804 478.25C278.804 478.25 278.782 478.239 278.787 478.244C278.132 478.195 277.67 478.585 277.197 478.949C276.443 479.252 275.909 479.797 275.507 480.485C274.786 480.809 274.341 481.327 274.335 482.158C274.203 482.307 274.065 482.45 273.928 482.598C271.737 483.303 269.591 483.732 267.879 481.585C266.586 479.934 265.1 478.475 263.477 477.16C262.915 476.263 262.255 475.464 261.297 474.964L261.308 474.953C261.253 474.6 261.198 474.253 261.143 473.901C261.743 473.175 262.337 472.448 262.937 471.721C263.631 471.408 264.126 470.956 264.065 470.114C264.065 470.114 264.043 470.114 264.043 470.109C265.271 470.219 266.157 469.866 266.261 468.463L266.239 468.457C267.379 468.6 268.243 468.182 268.441 467.02C268.639 465.854 268 465.165 266.806 465.039C266.806 465.039 266.784 465.039 266.784 465.044C266.492 464.301 265.953 463.921 265.15 463.932L265.133 463.938C264.819 463.156 264.203 462.677 263.471 462.32C262.552 461.395 261.633 460.47 260.714 459.545C259.58 458.527 258.837 458.703 258.512 460.25C258.331 461.114 258.111 461.973 257.912 462.837C257.544 463.189 257.18 463.542 256.812 463.894C254.44 464.323 252.068 464.753 249.701 465.182C249.266 465.132 248.865 465.176 248.573 465.556C247.868 465.562 247.164 465.573 246.46 465.578L246.465 465.584C246.515 463.233 244.297 460.894 246.443 458.538L246.46 458.544C247.527 458.483 248.309 457.839 249.101 457.233C250.213 456.38 252.266 455.637 251.666 454.178C251.044 452.654 249.31 454.503 248.045 454.228L248.105 454.211Z" fill="#AEAEAE"/>
<path d="M563.689 393.227C563.331 393.216 562.968 393.199 562.605 393.188C561.476 393.023 560.012 392.544 559.55 393.871C559.154 395.005 560.618 395.522 561.399 396.183C561.729 396.463 562.159 396.634 562.544 396.854C563.215 397.878 564.245 398.505 565.202 399.21C563.546 401.104 563.601 402.997 565.202 404.891C565.12 405.094 565.043 405.293 564.96 405.496C564.498 406.074 564.701 406.718 564.795 407.34C565.129 409.516 564.228 410.553 562.093 410.45C561.713 410.357 561.333 410.258 560.948 410.164C560.172 410.015 559.396 409.724 558.626 410.192C558.427 410.269 558.224 410.346 558.026 410.423C557.679 409.14 556.815 409.283 555.868 409.641C555.67 409.718 555.472 409.795 555.274 409.872C555.109 408.634 554.063 408.953 553.309 408.755C552.924 408.656 552.539 408.562 552.153 408.463C551.559 408.326 550.959 408.111 550.381 408.529C550.178 408.612 549.974 408.694 549.77 408.777C547.64 406.515 545.747 408.606 543.766 409.107C542.164 409.729 540.563 410.351 538.956 410.973C537.795 411.304 536.325 411.039 535.835 412.625C535.533 412.344 535.23 412.344 534.933 412.625C532.687 410.384 529.501 410.01 526.854 408.573C525.676 408.111 524.707 407.131 523.326 407.186C521.911 405.612 519.903 404.979 518.169 403.916C517.784 403.542 517.398 403.162 517.013 402.788C517.013 402.617 516.964 402.463 516.865 402.32C516.969 401.803 517.074 401.291 517.178 400.773C517.729 400.234 517.707 399.645 517.338 399.023C517.09 398.258 516.584 397.691 515.94 397.234C515.577 396.827 515.214 396.414 514.85 396.006C513.452 393.876 511.724 392.071 509.589 390.662C508.752 389.01 507.723 388.977 506.54 390.304C505.781 391.157 505.032 392.021 504.278 392.88C502.655 394.228 501.24 395.775 499.98 397.465C498.637 398.72 499.413 400.113 499.677 401.494C499.782 402.039 500.26 402.727 499.424 403.124C497.666 403.953 497.296 405.315 498.312 407.208C498.439 407.715 498.857 407.863 499.281 408.006C499.683 408.243 500.084 408.48 500.486 408.716C500.954 409.173 501.416 409.636 501.884 410.093C501.763 411.848 503.315 414.254 500.079 414.815L500.018 414.837C497.888 412.674 496.837 412.828 495.852 415.625C495.368 416.99 495.192 418.465 494.873 419.885C494.135 421.201 494.674 422.302 495.456 423.364C495.643 423.788 495.874 424.129 496.425 423.98C496.425 423.98 496.425 423.909 496.43 423.903C496.144 424.988 496.667 425.637 497.591 426.072C497.591 426.072 497.58 426.133 497.58 426.127C497.641 426.865 497.982 427.327 498.78 427.322C498.863 427.443 498.973 427.536 499.121 427.591C499.061 429.474 500.365 430.58 501.488 431.797L501.367 431.885C501.367 431.885 501.411 432.028 501.416 432.028C501.416 432.523 501.416 433.024 501.416 433.52C498.703 433.69 499.655 435.942 499.22 437.411C499.22 437.411 499.242 437.334 499.242 437.34C498.307 437.125 497.641 437.34 497.553 438.435C497.553 438.435 497.591 438.435 497.597 438.441C496.661 438.226 495.995 438.441 495.907 439.536C495.907 439.536 495.946 439.536 495.951 439.542C495.016 439.327 494.372 439.564 494.262 440.637H494.306C493.221 440.345 492.616 440.951 492.143 441.804C492.143 441.804 492.077 441.777 492.082 441.782C491.328 441.837 490.767 442.167 490.492 442.905C490.492 442.905 490.437 442.883 490.437 442.888C489.606 442.916 489.083 443.433 488.631 444.055C487.591 444.336 486.738 444.909 486.028 445.712C485.621 445.91 485.28 446.153 485.439 446.692C485.439 446.692 485.516 446.698 485.516 446.703C484.113 446.367 483.266 447.859 481.939 447.788V447.859C481.686 446.808 481.433 445.751 481.18 444.694C480.976 443.923 480.365 443.626 479.688 443.406C479.132 442.745 478.466 442.294 477.558 442.327C477.558 442.327 477.498 442.355 477.492 442.355C474.08 439.393 469.886 437.89 465.841 436.112C465.258 435.892 464.686 435.826 464.13 436.189C463.381 436.426 462.33 436.156 462.181 437.378C461.983 437.301 461.78 437.224 461.582 437.147C460.872 436.646 460.074 436.955 459.314 436.894L459.342 436.922C458.483 434.362 460.294 432.259 460.536 429.887C460.916 429.485 460.899 429.078 460.563 428.659C460.47 428.131 460.376 427.602 460.283 427.074C460.217 426.061 459.699 425.428 458.703 425.202C455.544 426.155 452.391 427.118 449.226 428.054C448.621 428.235 447.955 428.285 447.894 429.122C447.691 429.045 447.487 428.962 447.289 428.885C446.524 428.39 445.742 428.714 444.966 428.841C444.581 428.924 444.196 429.006 443.805 429.089C442.908 429.188 442.011 429.281 441.114 429.375C440.569 429.43 440.019 429.479 439.474 429.529C437.328 429.628 435.17 429.606 433.04 429.859C430.575 430.151 429.733 429.182 430.211 426.832C430.299 426.391 430.288 425.935 430.327 425.489C430.767 424.575 430.685 423.628 430.481 422.681C430.454 420.969 429.166 420.975 427.983 420.848C427.465 420.43 426.871 420.485 426.276 420.579C423.668 420.397 421.054 420.248 418.456 420.694C417.482 420.722 416.524 420.793 415.781 421.547C415.247 421.702 414.807 421.966 414.625 422.533L414.565 422.516C413.959 422.538 413.404 422.681 413.013 423.193C412.628 423.358 412.242 423.529 411.857 423.694C408.594 423.628 405.335 423.562 402.072 423.496C401.345 423.248 400.619 423.248 399.892 423.496C398.357 423.056 396.876 423.738 395.358 423.727C393.206 423.716 392.628 424.735 393.552 426.656C394.097 428.879 395.137 430.867 396.535 432.667C396.75 433.624 397.196 434.412 398.098 434.879L398.071 434.945C398.071 435.551 398.214 436.09 398.764 436.448C399.122 437.345 399.59 438.166 400.338 438.793C400.712 439.778 401.356 440.417 402.468 440.45H402.501C402.837 441.408 404.147 441.821 403.965 443.07C403.36 443.345 402.749 443.621 402.143 443.896C401.07 443.714 400.129 444.006 399.287 444.666C399.105 444.655 398.94 444.705 398.797 444.815C397.68 445.316 396.557 445.817 395.44 446.318C394.587 446.439 393.844 446.797 393.233 447.408C390.85 449.241 393.206 450.441 393.833 451.877C393.949 452.593 394.295 453.171 394.895 453.589C395.066 455.147 395.913 456.699 395.044 458.323C393.8 458.241 393.739 456.798 392.76 456.518C392.661 456.259 392.567 455.995 392.468 455.736C392.132 455.268 391.797 454.795 391.12 454.861C390.938 454.498 390.757 454.134 390.575 453.771C390.63 452.967 390.421 452.378 389.469 452.384H389.48C389.579 451.553 389.359 451.035 388.374 451.266L388.385 451.288C388.522 450.782 388.329 450.589 387.823 450.71L387.851 450.738C388.208 449.532 387.856 448.866 386.502 448.982C386.486 448.85 386.414 448.778 386.277 448.773C386.59 447.248 386.057 446.219 384.521 445.773L384.532 445.784C384.543 444.622 384.196 443.731 382.875 443.571V443.582C383.03 442.531 382.551 442.162 381.555 442.377C381.544 442.25 381.472 442.178 381.345 442.156C381.907 441.022 381.021 440.323 380.548 439.503C380.223 439.305 379.904 439.112 379.579 438.914C379.238 437.136 377.845 436.079 376.789 434.791L376.811 434.813C376.519 434.054 376.106 433.426 375.176 433.399C375.253 432.413 374.923 431.83 373.817 432.028C373.778 431.67 373.822 431.285 373.696 430.966C370.856 424.024 370.058 416.56 369.271 409.294C368.385 401.148 369.595 392.88 372.342 384.97C372.92 383.308 374.026 381.7 373.552 379.768L373.541 379.796C375.209 379.245 375.336 377.924 375.204 376.471L375.193 376.487C376.007 376.432 376.123 376.02 375.765 375.364L375.754 375.414C376.717 375.728 376.811 374.946 376.976 374.374C377.504 372.535 378.12 370.708 378.456 368.831C379.452 363.266 380.344 357.684 381.241 352.102C381.522 350.357 381.989 349.268 384.218 349.829C386.321 350.363 388.544 350.412 390.718 350.622C391.334 350.682 392.127 350.721 392.243 349.868C392.342 349.146 391.962 348.64 391.109 348.756C390.784 348.117 390.421 347.523 389.59 347.495C389.843 345.629 388.33 345.596 387.289 345.635C384.114 345.75 382.215 344.457 381.456 341.313C381.246 340.46 380.944 339.288 379.601 339.266L379.623 339.299C379.783 337.235 379.485 335.374 377.405 334.306L377.432 334.339C378.043 332.237 376.662 330.536 376.293 328.631C394.631 321.838 412.947 314.996 431.312 308.275C440.211 305.017 449.017 301.433 458.621 300.525C463.645 300.046 468.345 298.466 472.853 295.962C478.599 292.769 484.608 289.978 490.827 287.815C494.058 286.692 497.079 285.509 499.804 283.351C509.286 275.848 518.29 267.806 527.134 259.577C530.992 255.988 535.142 252.636 538.207 248.248C538.549 248.221 538.785 248.094 538.758 247.698C540.833 247.753 542.693 246.872 544.635 246.371C545.087 246.355 545.538 246.338 545.989 246.316C547.167 248.502 546.408 250.841 546.523 253.114C546.105 253.836 546.215 254.606 546.287 255.377C546.633 257.303 544.52 259.373 546.628 261.195C546.754 261.779 547.563 262.125 547.2 262.874C546.578 263.072 545.808 263.083 545.791 264.024C545.593 263.947 545.395 263.87 545.191 263.799C542.445 263.634 539.858 264.245 537.382 265.406C536.727 265.742 536.798 266.138 537.283 266.573C538.064 267.591 538.873 268.577 540.046 269.177C540.381 269.738 540.789 270.206 541.482 270.327C541.906 270.685 542.33 271.048 542.748 271.406C543.205 272.056 543.76 272.578 544.52 272.865C545.065 273.283 545.61 273.701 546.154 274.12C546.49 274.356 546.826 274.593 547.162 274.83C547.321 274.984 547.486 275.133 547.646 275.287C547.96 275.474 548.273 275.656 548.593 275.843C549.099 276.531 549.677 277.125 550.502 277.428C550.855 278.083 551.438 278.441 552.109 278.689C552.506 279.002 552.902 279.322 553.293 279.641C553.667 279.944 554.036 280.246 554.41 280.549C554.745 280.802 555.081 281.05 555.417 281.303C555.499 281.468 555.588 281.633 555.67 281.804C555.048 284.364 556.132 285.652 558.609 286.373C561.405 287.182 564.096 288.365 566.826 289.4C568.609 290.077 571.097 290 572.027 291.509C572.99 293.072 571.399 295.108 571.003 296.953C570.568 298.962 570.728 300.574 572.885 301.461C578.031 303.574 583.171 305.71 588.312 307.84L588.449 307.785C588.449 307.785 588.323 307.868 588.328 307.862C588.356 308.551 588.598 309.029 589.396 308.963C589.396 308.963 589.385 308.919 589.385 308.914C589.044 309.596 589.462 310.07 589.842 310.554C590.155 311.363 590.425 312.195 591.19 312.717C591.333 313.323 591.663 313.785 592.236 314.055C592.373 314.451 592.511 314.842 592.648 315.239C593.056 316.323 593.463 317.413 594.349 318.228C594.503 318.794 594.586 319.4 595.141 319.763C596.099 321.646 597.062 323.534 598.02 325.416C598.196 325.923 598.367 326.424 598.543 326.93C598.477 327.459 598.411 327.987 598.35 328.521C596.842 329.82 595.356 331.136 594.354 332.897C593.7 333.321 593.127 333.822 592.863 334.592C591.718 335.737 591.768 336.882 592.846 338.038C592.984 338.225 593.122 338.413 593.254 338.6C593.606 339.536 594.244 340.24 595.02 340.84C595.565 341.451 596.11 342.057 596.649 342.668C596.897 343.598 597.635 344.121 598.317 344.693C599.049 345.469 599.775 346.246 600.507 347.016C600.722 347.666 601.146 348.106 601.779 348.359C602.478 349.218 603.441 349.312 604.448 349.279C605.362 349.323 606.275 349.361 607.189 349.405C608.972 349.477 610.75 349.548 612.533 349.614C613.468 350.374 614.404 351.139 615.339 351.899C616.115 352.923 616.991 353.836 618.102 354.508C618.851 355.256 619.594 356 620.342 356.748C620.76 357.585 621.47 358.355 620.876 359.396C620.672 359.561 620.474 359.732 620.271 359.897C620.095 359.913 619.946 359.996 619.836 360.133C619.06 360.376 618.52 360.926 618.025 361.526C617.535 361.746 617.134 362.06 616.99 362.616V362.627C616.611 362.996 616.066 363.293 615.873 363.744C613.81 368.473 611.801 373.223 609.781 377.968L609.792 378.018C609.478 378.265 609.159 378.513 608.84 378.755C608.108 378.761 607.376 378.766 606.638 378.772C605.917 378.695 605.202 378.618 604.481 378.546C604.101 378.447 603.722 378.353 603.336 378.254C602.56 378.089 601.779 377.803 601.014 378.287C600.816 378.364 600.612 378.442 600.414 378.519C600.084 377.186 599.192 377.407 598.256 377.742C598.058 377.819 597.86 377.891 597.662 377.968C597.48 376.73 596.44 377.065 595.681 376.895C595.301 376.779 594.916 376.669 594.536 376.553C593.479 375.953 592.423 375.353 591.361 374.753C591.047 374.566 590.733 374.374 590.419 374.187C589.979 373.834 589.544 373.482 589.104 373.135C587.998 372.018 586.892 370.9 585.785 369.788C585.356 367.471 584.189 366.888 581.889 367.669C578.284 368.891 574.58 369.816 570.909 370.834C566.589 372.034 566.402 372.26 566.468 376.774C566.479 377.407 566.551 378.045 566.595 378.678C566.644 379.41 566.694 380.137 566.743 380.869C566.732 382.614 566.798 384.326 568.548 385.355C569.242 385.906 569.941 386.462 570.634 387.012C571.152 389.236 569.225 390.551 568.647 392.368C568.295 392.649 567.943 392.929 567.596 393.21C566.308 393.221 565.021 393.232 563.727 393.243L563.689 393.227Z" fill="#AEAEAE"/>
<path d="M151.964 44.163C152.492 43.574 153.015 42.985 153.543 42.396C156.295 42.4951 159.047 42.5887 161.799 42.6877C162.894 42.7318 163.989 42.7758 165.09 42.8198C168.761 42.9685 172.426 43.1116 176.097 43.2602C177.192 43.2987 178.293 43.3318 179.388 43.3703C183.24 43.5189 187.093 43.662 190.94 43.8107C192.035 43.8492 193.136 43.8822 194.231 43.9208C198.084 44.0694 201.936 44.2125 205.783 44.3611C207.065 44.3996 208.342 44.4327 209.624 44.4712C213.477 44.6198 217.329 44.7629 221.176 44.9116C222.459 44.9556 223.736 44.9941 225.018 45.0382C232.706 44.8235 240.153 46.1446 247.439 48.5225C247.747 48.8583 248.056 49.1996 248.364 49.5354C248.364 49.9097 248.375 50.284 248.38 50.6583C248.325 51.2032 248.265 51.7537 248.21 52.2986C247.957 53.9115 247.588 55.5188 247.472 57.1481C247.219 60.7426 247.951 61.5793 251.534 62.2618C253.493 62.6361 255.447 63.0655 257.401 63.4673C257.61 63.5939 257.824 63.7205 258.034 63.8471C258.435 65.2398 257.885 66.4948 257.516 67.7939C257.037 69.4948 257.731 70.4691 259.52 70.3645C261.22 70.2654 262.904 69.9847 264.599 69.7865C265.144 69.7425 265.694 69.6984 266.239 69.6544C266.614 69.6544 266.988 69.6544 267.357 69.6544C268.078 69.8305 268.529 70.2819 268.721 70.9975C268.716 71.5535 268.71 72.1094 268.699 72.6709C268.688 73.3975 268.683 74.1241 268.672 74.8562C268.479 76.8323 269.266 77.7075 271.308 77.2892C272.172 77.113 273.064 77.058 273.939 76.9479C274.302 76.9204 274.665 76.8874 275.028 76.8598C276.718 76.9479 278.408 77.036 280.097 77.124L280.174 77.2892C280.103 77.8561 280.031 78.4231 279.96 78.9901C279.25 79.7662 278.655 80.5864 278.859 81.7313C278.166 81.9845 277.896 82.4139 278.287 83.1185V83.0634C275.876 83.9552 275.799 86.1074 276.316 87.9129C278.155 94.3037 280.257 100.617 282.332 106.931C282.541 107.559 282.524 108.726 283.801 108.483L283.785 108.45C283.267 109.309 283.752 109.859 284.368 110.371C284.577 111.065 285.089 111.247 285.744 111.208C286.245 111.88 286.834 112.27 287.676 111.786H287.626C287.698 113.195 288.507 113.294 289.602 112.887L290.284 113.223C290.207 114.577 290.901 114.88 292.073 114.533L292.056 114.516C292.111 115.331 292.519 115.452 293.179 115.089L293.135 115.072C293.075 116.393 293.774 116.558 294.825 116.179L294.808 116.162C294.858 116.988 295.276 117.092 295.931 116.735L295.881 116.724C295.826 118.05 296.52 118.221 297.576 117.824L297.549 117.808C297.263 118.854 297.929 118.925 298.677 118.909V118.898C298.936 119.58 299.228 119.564 299.541 118.925C299.761 119.03 299.987 119.14 300.207 119.245C300.125 120.582 300.78 120.935 301.974 120.577L301.957 120.56C302.012 121.375 302.425 121.491 303.08 121.133L303.03 121.122C302.975 122.448 303.669 122.613 304.726 122.228L304.698 122.212C304.737 123.654 305.617 123.637 306.657 123.335C306.883 123.45 307.103 123.571 307.329 123.687C307.279 125.024 307.956 125.344 309.128 124.98L309.101 124.964C309.024 126.296 309.761 126.395 310.779 126.081L310.763 126.065C310.818 126.879 311.231 126.995 311.886 126.637H311.831C311.765 127.975 312.464 128.134 313.531 127.733L313.504 127.711C313.432 129.032 314.126 129.208 315.182 128.828L315.155 128.812C315.094 130.116 315.766 130.32 316.833 129.929L316.8 129.907C316.437 130.639 317.037 130.881 317.466 131.217C317.73 131.481 317.995 131.745 318.264 132.015C318.594 132.445 318.837 133.045 319.569 132.681L319.552 132.648C319.007 133.733 319.833 134.525 320.163 135.417C321.908 140.118 323.57 144.819 321.033 149.773C320.576 150.764 319.684 151.54 319.585 152.712C318.985 153.23 318.468 153.775 318.996 154.633L319.018 154.606C317.686 154.523 317.51 155.222 317.901 156.285L317.923 156.252C316.91 155.998 316.685 156.51 316.822 157.38L316.833 157.369C315.314 157.369 315.474 158.998 314.632 159.648L314.549 159.67C314.483 158.189 314.907 156.808 315.292 155.393C316.503 150.929 317.984 146.481 317.318 141.731C317.048 140.762 316.503 140.052 315.479 139.799C313.889 139.055 312.42 138.769 311.583 140.839L311.611 140.806C309.222 140.591 307.72 141.786 307.499 144.037C306.872 150.378 306.894 156.753 307.037 163.127C307.092 165.642 308.077 167.118 310.851 166.732L310.961 167.486C310.719 167.877 310.477 168.273 310.235 168.664C309.596 168.951 309.398 169.308 310.053 169.798C309.629 169.749 309.244 169.76 309.139 170.294C307.389 170.365 307.543 171.659 307.477 172.848C307.323 175.782 307.136 178.716 306.933 182.238C304.478 178.418 303.41 175.066 305.155 171.235C305.672 170.09 306.008 168.818 306.162 167.569C306.322 166.297 306.024 165.114 304.225 165.598L304.263 165.615C304.522 164.877 304.131 164.574 303.487 164.635C302.915 164.69 302.805 165.114 303.058 165.615L303.097 165.604C302.271 165.301 302.023 165.747 301.99 166.468C301.231 166.996 300.515 167.563 300.879 168.67C300.174 169.05 299.464 169.429 298.76 169.809C297.037 170.398 297.109 171.962 297.219 173.239C297.637 178.011 298.897 182.602 300.983 186.912C302.172 189.372 306.118 189.438 307.549 187.143L307.516 187.165C308.787 187.737 309.338 186.758 309.987 186.004C310.257 185.734 310.521 185.47 310.791 185.2C311.66 184.512 312.574 183.846 312.04 182.503C312.166 182.486 312.238 182.415 312.254 182.288C313.063 182.624 313.399 182.046 313.757 181.512C314.208 180.78 314.731 180.075 314.676 179.145C315.298 178.793 315.496 178.16 315.744 177.554C315.942 177.62 316.145 177.681 316.344 177.747V177.714C317.026 179.492 317.213 181.369 317.362 183.246L317.378 183.224C317.131 183.262 316.734 183.218 316.652 183.356C314.621 186.813 312.453 190.237 315.226 194.359C315.76 195.152 315.881 196.22 316.195 197.167C315.452 197.53 314.709 197.877 313.972 198.251C310.213 200.183 310.13 200.882 313.163 203.932C314.175 204.95 315.87 205.831 315.661 207.372C315.177 210.873 317.356 212.04 319.926 213.097C320.422 213.3 320.884 213.642 321.291 214C321.825 214.473 321.88 215.145 321.665 215.778C321.434 216.455 320.735 216.405 320.273 216.262C314.731 214.539 309.216 216.405 303.691 216.367C298.562 216.333 293.388 216.708 288.314 216.163C283.185 215.612 279.899 217.077 278.303 222.091C277.5 224.607 276.14 224.078 274.902 222.399C272.568 219.234 270.119 216.13 268.045 212.794C265.546 208.776 261.974 206.866 257.445 206.37C255.106 206.117 253.097 205.209 251.314 203.624C245.557 198.521 239.866 193.352 234.247 188.095C232.519 186.477 231.562 184.908 231.407 182.497C230.885 174.163 231.27 165.818 230.973 157.485C230.83 153.521 231 149.762 232.97 146.063C234.924 142.391 234.071 141.444 229.877 141.422C215.673 141.334 201.567 143.046 187.418 143.899C182.437 144.202 177.39 144.389 172.536 146.019C161.7 149.657 150.83 153.202 140.236 157.507C138.843 158.074 137.968 157.986 136.851 156.923C120.891 141.67 104.931 126.423 88.8438 111.302C86.147 108.77 83.83 105.748 80.4509 103.981C80.5114 103.232 79.9556 102.968 79.4272 102.682C77.2753 100.458 75.1014 98.2559 72.9716 96.0046C72.2396 95.2284 71.7388 94.2706 72.823 93.4174C73.5494 92.8505 74.3364 91.8927 75.4151 92.911C75.9104 93.3789 75.9655 94.3312 76.9341 94.2651C76.9341 94.2651 76.9561 94.2982 76.9561 94.2927C76.8956 95.2229 77.556 95.4431 78.1779 95.2064C80.1372 94.4578 82.3551 94.1 83.5549 92.0413C83.9731 92.333 84.4024 92.3275 84.8317 92.0578C85.9544 91.7055 86.9561 92.1954 87.9742 92.5312C89.6583 93.8248 91.1663 95.2945 92.4376 96.9954C92.8008 97.4137 93.1695 97.8321 93.5328 98.2504C93.6539 98.933 94.1217 99.3568 94.65 99.7256C95.1948 100.315 95.7452 100.909 96.2901 101.498C97.1156 102.973 98.2823 104.107 99.7188 104.971C101.199 106.804 102.217 106.359 102.96 104.333C103.489 102.896 103.445 101.245 104.589 100.045C105.371 99.5495 106.147 99.0541 106.928 98.5532C107.099 98.5421 107.242 98.4761 107.363 98.3495C107.892 98.2174 108.266 97.9091 108.475 97.4027C109.928 95.1569 108.585 92.6193 109.212 90.2909C110.065 90.2303 110.913 90.1698 111.766 90.1092C112.316 90.1092 112.867 90.1202 113.417 90.1257C113.962 90.0982 114.512 90.0707 115.057 90.0432C116.185 90.0267 117.501 89.8285 117.622 88.601C117.759 87.2249 116.273 87.1643 115.277 86.8671C114.325 86.5808 113.357 86.3606 112.393 86.1129C112.184 86.0359 111.97 85.9533 111.761 85.8762C111.606 85.7827 111.436 85.7221 111.26 85.7001C111.062 85.5735 110.858 85.4469 110.66 85.3258C109.603 84.5551 108.541 83.79 107.484 83.0194C106.444 81.968 105.409 80.9222 104.369 79.8708C104.331 79.3093 104.292 78.7534 104.254 78.1919C104.606 77.8176 104.953 77.4433 105.305 77.069C106.13 74.9442 104.507 74.625 103.136 74.1186C103.136 74.1186 103.076 74.1351 103.076 74.1406C102.812 73.3865 102.256 73.0452 101.48 73.0177H101.452C99.5812 71.0085 97.0936 70.0012 94.705 68.8287C94.3418 68.2838 93.7474 68.1737 93.1806 68.0086C91.7771 66.6379 89.5812 66.4838 88.2384 64.9701C88.8493 64.1444 89.6968 64.5462 90.3297 64.249C90.693 64.2214 91.0562 64.1884 91.4194 64.1609C93.2631 64.0123 95.2829 64.6013 96.7413 62.8673C96.9064 62.9664 97.0661 63.06 97.2312 63.1536C98.5905 64.4141 99.9609 62.9609 101.326 63.1701C101.689 63.082 102.058 62.9884 102.421 62.9004C103.703 62.8013 104.986 62.7022 106.273 62.6031C106.659 62.526 107.049 62.449 107.435 62.3719C108.695 62.2618 109.955 62.1572 111.221 62.0472C111.584 62.0086 111.948 61.9756 112.311 61.9371C113.78 61.7884 115.25 61.6453 116.719 61.4967C117.314 61.5958 117.902 61.6508 118.431 61.271C120.792 61.1609 123.153 61.0508 125.514 60.9462C127.528 60.9462 129.548 60.9462 131.562 60.9462C133.604 60.9022 135.602 61.6839 137.666 61.282C138.155 61.3206 138.645 61.3591 139.141 61.3976C140.627 61.5352 142.113 61.6783 143.593 61.8215C144.127 62.1958 144.716 62.1242 145.31 62.0416C146.455 62.1958 147.616 62.2673 148.739 62.5205C151.039 63.0435 151.909 62.2894 151.237 59.9609C151.188 59.416 151.133 58.8655 151.083 58.3206C150.913 54.1206 150.516 49.9262 151.056 45.7262C151.287 45.3354 151.513 44.9391 151.744 44.5483C151.892 44.4437 151.969 44.3006 151.98 44.1244L151.964 44.163Z" fill="#AEAEAE"/>
<path d="M63.9235 129.345C64.2812 128.96 64.6444 128.575 65.0021 128.189C67.4952 127 69.9553 126.213 72.8612 126.945C74.6388 127.397 76.6036 126.978 76.6807 124.358C76.7467 124.259 76.7412 124.171 76.6641 124.083C78.3427 123.164 78.1556 121.518 78.2767 119.988C78.4143 119.437 78.5519 118.892 78.6894 118.342C78.6894 116.509 78.6894 114.676 78.6894 112.843C78.6564 112.292 78.6234 111.747 78.5904 111.197C78.4693 109.7 78.1996 108.191 78.2822 106.7C78.3427 105.643 77.4181 104.096 79.3058 103.601C79.5865 104.019 79.9663 104.162 80.4506 104.013C80.2524 104.894 80.8964 105.351 81.4137 105.852C87.5997 111.835 93.7526 117.857 99.9991 123.78C111.887 135.048 123.818 146.261 135.756 157.468C136.779 158.431 137.148 159.449 137.126 160.848C137.054 166.259 137.115 171.664 137.126 177.075C137.132 183.064 138.772 187.77 144.594 191.062C153.015 195.823 160.89 201.537 169.074 206.733C170.797 207.829 171.353 209.056 171.143 211.016C169.756 223.836 168.727 236.678 168.969 249.592C168.986 250.417 168.969 251.248 169.096 252.058C169.454 254.359 170.571 255.718 173.169 255.377C177.324 254.837 181.49 254.392 185.651 253.907C187.192 253.731 189.068 253.197 190.015 254.617C191.077 256.214 190.582 258.151 189.531 259.791C189.035 260.562 188.491 261.294 187.94 262.026C184.445 266.7 179.613 269.925 175.348 273.773C170.367 278.265 169.531 281.116 172.871 286.598C175.249 290.501 177.203 294.657 179.355 298.697C184.908 309.118 190.51 319.51 195.986 329.969C196.96 331.829 198.155 332.126 199.982 331.703C201.616 331.323 203.246 330.662 205.513 331.081C203.141 334.328 200.923 337.295 198.782 340.312C196.581 343.411 193.68 345.998 192.062 349.515C191.297 349.515 190.681 349.807 190.593 350.622C190.532 351.233 191.121 351.139 191.517 351.205L189.971 352.801C185.876 352.234 182.244 350.462 178.65 348.557C177.313 347.847 176.218 346.576 174.506 346.686L174.49 346.697C174.209 345.937 173.653 345.585 172.855 345.59L172.838 345.601C171.319 343.444 168.755 342.75 166.774 341.236C165.436 339.635 164.038 338.088 162.376 336.816C160.951 334.923 159.25 333.299 157.467 331.758C156.658 329.881 155.051 328.73 153.587 327.448C152.442 326.176 151.298 324.91 150.158 323.638C148.612 321.558 146.768 319.758 144.792 318.09C143.532 316.428 142.118 314.908 140.412 313.686H140.423C139.834 311.969 139.322 310.213 138.194 308.738C137.759 307.119 137.005 305.655 136.014 304.318C134.859 301.769 133.708 299.22 132.553 296.672C131.98 295.318 131.496 293.909 130.511 292.769C130.472 292.048 130.428 291.332 130.39 290.611C130.39 288.778 130.39 286.94 130.39 285.107C130.417 284.38 130.467 283.659 130.472 282.932C130.527 278.334 128.352 275.375 123.945 274.054C123.565 273.685 123.186 273.322 122.806 272.958C122.41 271.511 122.013 270.063 121.617 268.61C121.606 268.301 121.749 267.828 121.259 267.883C121.028 267.911 120.841 268.357 120.637 268.61C119.713 269.975 118.651 271.263 118.326 272.947L118.331 272.942C111.936 274.098 105.646 275.859 99.1406 276.393C98.7774 276.525 98.4086 276.663 98.0454 276.795C96.7631 276.845 95.4752 276.894 94.1929 276.944C93.4609 276.977 92.729 277.004 91.997 277.037C89.6085 277.384 87.2254 277.384 84.8369 277.037C84.2865 277.01 83.7417 276.988 83.1913 276.96C82.1952 276.844 81.155 276.867 80.2084 276.586C71.6669 274.043 63.1034 271.56 54.6225 268.83C49.7298 267.256 49.7904 267.063 48.8438 271.929C48.7777 272.281 48.7722 272.645 48.7392 273.008C48.7117 273.371 48.6842 273.74 48.6566 274.103C48.9483 275.92 47.5119 277.29 47.3908 278.997L47.4018 279.013C45.9929 279.899 45.261 281.182 45.1894 282.844L45.2004 282.861C42.5312 285.294 41.502 288.597 40.4564 291.872C40.0546 293.121 40.7536 293.534 41.9148 293.413L41.8983 293.391C41.9478 295.329 41.0673 296.793 39.6969 298.103C38.7393 299.017 37.4239 299.617 36.9671 301.009L36.9561 300.998C35.7839 301.274 35.1179 300.387 34.3089 299.831C33.8466 298.472 32.9 297.597 31.5792 297.101C31.0673 295.846 30.0822 295.411 28.8054 295.494H28.8274C28.8494 294.734 28.4476 294.404 27.7212 294.398C25.7014 292.02 22.5038 291.558 20.6051 293.364C20.6051 293.727 20.6051 294.096 20.6051 294.459C20.5721 296.171 19.7245 297.564 18.9595 299.028C17.9689 300.921 15.9821 301.918 14.964 303.756C14.177 303.773 13.6266 304.136 13.3239 304.868L13.3129 304.857C12.7901 304.989 12.1407 304.973 11.7719 305.286C9.2623 307.4 7.8589 306.162 6.42798 303.861C5.44285 302.275 4.71088 300.404 2.96625 299.374L2.97726 299.363C2.96075 298.576 2.59752 298.026 1.86555 297.723C1.86555 297.723 1.87655 297.712 1.87105 297.712C0.896924 295.83 1.3207 294.343 2.99377 293.039C3.82481 292.389 4.4302 291.448 5.13465 290.639C5.92716 290.132 6.65913 289.582 6.82974 288.564C7.90843 287.909 7.90293 286.857 7.95246 285.767C8.013 284.424 7.0829 283.224 7.45714 281.854C7.76534 281.65 8.07904 281.446 8.38724 281.243C11.8049 280.197 12.2893 279.613 11.5188 276.255C11.0179 274.07 10.9629 271.764 9.95025 269.694C9.77964 269.325 9.60903 268.962 9.43842 268.593C8.91008 267.382 8.55785 266.072 7.41311 265.23C7.29204 264.492 6.9233 263.931 6.24086 263.595C5.72903 262.516 4.30361 261.894 4.63383 260.391L4.62282 260.375C6.06475 259.472 7.06639 258.256 7.38009 256.538L7.37459 256.522C8.31019 256.087 8.9431 255.421 9.03115 254.336C9.03115 254.336 9.03115 254.32 9.02565 254.32C9.57601 254.155 9.88971 253.748 10.1154 253.252C10.7538 252.872 11.15 252.327 11.2766 251.584C11.4472 251.215 11.6123 250.852 11.7829 250.483L11.7774 250.467C12.3333 250.307 12.647 249.9 12.8671 249.393C13.0597 249.063 13.2579 248.733 13.4505 248.403C14.0449 247.951 14.5567 247.45 14.5347 246.625L14.5292 246.608C15.6244 246.019 16.3729 245.221 16.1858 243.861V243.883C18.057 243.272 18.7834 241.847 18.932 240.008V240.03C19.686 240.047 20.0162 239.645 20.0272 238.924L20.0217 238.907C20.9463 238.461 21.5957 237.812 21.6783 236.722C21.6783 236.722 21.6728 236.705 21.6728 236.7C22.4158 236.408 22.79 235.869 22.7845 235.065L22.7735 235.049C23.7091 234.614 24.342 233.948 24.4301 232.863L24.4246 232.841C27.2754 230.97 25.3161 229.698 23.8687 228.361L23.8797 228.35C23.8742 227.557 23.511 227.007 22.768 226.709L22.779 226.698C22.8065 226.043 22.4268 225.57 22.0415 225.102C21.249 223.775 20.1978 222.707 18.866 221.915C18.7174 221.816 18.5523 221.766 18.3762 221.755C17.9964 221.392 17.6167 221.029 17.2369 220.671C17.2534 220.148 17.2644 219.625 17.281 219.102C20.4565 217.869 20.7702 216.928 19.3173 212.992C19.3173 212.073 19.3283 211.159 19.3338 210.24C19.5814 209.089 19.7631 207.922 20.0768 206.794C21.304 202.423 21.3095 202.467 25.6849 203.739C26.9397 204.102 28.4642 205.297 29.3667 203.144V203.128C30.4289 202.732 31.0948 201.933 31.5351 200.921C32.2176 200.585 32.5918 200.029 32.7129 199.297C33.0541 198.922 33.3953 198.548 33.7365 198.174C34.4355 197.777 34.9748 197.233 35.261 196.467C36.0755 195.311 38.0898 194.541 36.4883 192.614C36.1416 192.24 35.8004 191.871 35.4536 191.497C35.6243 190.423 35.8004 189.356 35.971 188.282L35.96 188.266C38.7393 186.923 40.2032 184.754 40.1151 181.616C40.1482 181.066 40.1812 180.521 40.2197 179.97C40.3793 178.682 40.5334 177.4 40.6875 176.112C40.7095 175.748 40.726 175.385 40.748 175.016C40.6435 173.299 39.4437 172.413 38.1504 171.592C37.8697 170.315 36.8736 169.638 35.9269 168.912C35.206 167.783 34.4245 166.721 33.2082 166.066C33.0321 165.059 32.3111 164.486 31.5241 163.969C31.7663 162.218 33.6265 161.64 34.2759 160.187C35.3876 159.279 36.6204 158.47 37.0552 156.972C38.4861 155.811 39.818 154.55 40.8691 153.026C41.9919 152.128 43.2081 151.314 43.6539 149.822C45.4921 148.798 46.2406 145.958 48.9538 146.437C53.0099 147.158 56.0094 145.567 58.4034 142.446C60.3296 141.097 61.9312 139.419 63.4006 137.602C64.1986 136.765 64.2317 135.67 64.4353 134.624C64.7985 132.802 63.4336 131.151 63.9345 129.318L63.9235 129.345Z" fill="#AEAEAE"/>
<path d="M189.96 352.796C190.477 352.262 190.989 351.733 191.507 351.2C191.721 350.649 192.327 350.22 192.051 349.504C192.558 349.647 192.965 349.422 193.268 349.064C198.072 343.422 202.668 337.609 206.746 331.411C207.725 329.919 206.938 329.093 205.381 329.165C203.84 329.231 202.255 329.407 200.802 329.886C198.568 330.624 197.307 330.112 196.267 327.893C194.484 324.084 192.338 320.446 190.367 316.725C184.534 305.727 178.716 294.712 172.872 283.72C171.919 281.925 172.063 280.23 172.982 278.485C173.906 276.729 175.337 275.435 176.812 274.219C180.841 270.894 184.765 267.476 188.37 263.683C190.131 261.834 191.677 259.703 191.804 257.27C191.947 254.485 193.191 254.953 194.869 255.454C208.793 259.621 222.712 263.799 236.514 268.356C240.092 269.534 242.563 270.8 242.844 275.127C243.047 278.309 244.324 278.727 247.345 277.753C248.562 277.362 249.789 276.977 250.978 276.503C253.796 275.375 256.085 275.887 258.479 277.918C266.696 284.903 274.968 291.789 282.32 299.738C286.134 303.861 289.811 307.934 291.258 313.587C292.144 317.049 293.795 320.308 294.324 324.552C291.748 322.433 290.427 320.138 288.787 318.123C286.982 315.905 280.84 315.739 279.007 317.837C277.153 319.956 276.476 326.892 278.006 329.292C279.53 331.68 281.225 333.959 282.805 336.321C283.724 337.697 283.504 338.605 281.638 338.462C278.908 338.253 276.167 338.088 273.465 337.675C271.363 337.356 269.948 337.961 268.897 339.8C267.164 342.838 265.898 346.08 264.819 349.372C264.104 351.541 262.992 353.28 261.346 354.827C256.938 358.961 256.944 359.038 251.853 355.62C250.312 354.585 248.875 354.078 247.428 355.515C246.311 356.621 244.302 357.491 244.94 359.412C245.54 361.223 247.478 360.21 248.826 360.469C249.497 360.596 250.642 359.957 250.637 361.399C250.626 364.119 247.637 366.838 244.836 366.403C241.913 365.952 238.991 366.166 236.069 365.985C233.708 365.836 232.701 366.926 233.421 369.117C234.021 370.933 233.658 371.687 231.737 371.671C229.178 371.643 227.61 372.75 227.472 375.48C227.45 375.871 227.219 376.256 226.971 376.972C226.382 375.871 225.97 375.067 225.529 374.286C225.007 373.355 224.297 372.986 223.251 373.515C219.96 375.177 216.872 377.043 215.689 380.869C214.621 381.909 214.341 380.39 213.642 380.236C213.345 379.273 212.701 378.596 211.875 378.062C211.341 377.451 210.813 376.834 210.279 376.223C209.899 375.722 209.525 375.227 209.145 374.731C208.788 374.324 208.43 373.917 208.072 373.509C208.028 373.102 207.874 372.766 207.461 372.612C206.966 372.029 206.465 371.451 205.97 370.867C205.386 370.13 204.803 369.386 204.22 368.649C204.192 368.478 204.115 368.335 203.983 368.22C203.554 367.256 202.816 366.557 202.013 365.913C201.738 364.944 201.017 364.014 200.131 364.427C198.056 365.385 197.615 364.02 197.032 362.665C196.9 361.818 196.581 361.064 195.92 360.491C195.777 360.288 195.634 360.089 195.491 359.886C195.21 358.911 194.555 358.234 193.752 357.673C193.207 356.776 192.783 355.763 191.606 355.493C191.121 355.119 190.637 354.739 190.153 354.365C190.098 353.842 190.043 353.324 189.988 352.801L189.96 352.796Z" fill="#AEAEAE"/>
<path d="M342.375 217.291C342.568 217.137 342.755 216.983 342.947 216.829C343.905 216.625 344.477 216.119 344.389 215.062C344.494 214.93 344.626 214.819 344.78 214.742C347.091 214.599 348.308 213.278 348.737 211.093C349.051 210.653 349.359 210.207 349.673 209.766C350.9 209.799 351.109 209.067 350.949 208.06L350.938 208.082C352.166 208.093 352.177 207.3 352.05 206.414L352.039 206.436C353.31 206.524 353.503 205.506 353.872 204.664C354.136 204.229 354.4 203.794 354.659 203.354C355.237 201.944 356.475 202.11 357.653 202.054C361.252 201.884 364.857 201.686 368.456 201.493C369.243 201.449 370.195 201.631 370.179 200.354C370.526 200.348 370.872 200.337 371.219 200.332C371.131 201.399 371.879 201.427 372.622 201.471C373.03 201.471 373.437 201.471 373.844 201.471C377.823 200.915 381.819 200.854 385.82 200.915C386.579 200.915 387.339 200.915 388.098 200.915C389.815 200.876 391.533 200.838 393.25 200.799C394.383 200.86 395.187 201.053 395.649 202.456C396.365 204.625 396.904 206.854 397.713 208.974C399.452 213.526 398.929 217.241 394.708 220.203C392.941 221.441 392.463 223.269 393.112 225.564C394.185 229.362 395.627 232.995 397.086 236.645C398.379 239.887 400.685 241.847 403.849 242.997C405.137 243.465 406.409 243.977 407.685 244.461C410.008 245.337 411.797 246.729 412.738 249.151C414.554 253.836 416.436 258.492 418.357 263.138C419.342 265.516 419.469 267.685 417.669 269.788C416.629 270.999 416.359 272.518 417.476 273.8C419.667 276.316 423.095 275.6 425.842 276.734C427.168 277.279 427.905 275.87 428.808 275.16C431.648 272.92 434.581 273.767 435.621 277.186C436.045 278.573 436.133 280.059 436.551 281.446C437.344 284.066 438.973 284.529 440.982 282.723C442.275 281.562 443.48 280.301 444.664 279.024C445.693 277.912 446.348 277.72 447.366 279.217C448.868 281.419 450.151 281.248 451.345 278.799C452.226 276.999 453.046 275.122 453.53 273.189C455.638 264.85 455.687 265.412 448.687 263.199C447.245 262.742 446.089 262.076 446.062 260.463C446.012 257.628 446.029 254.788 446.172 251.953C446.271 249.988 447.371 248.799 449.237 247.874C459.798 242.617 470.602 237.894 481.422 233.221C495.847 226.99 510.293 220.825 524.674 214.495C528.411 212.854 532.396 211.693 535.736 209.21C538.323 208.671 540.442 210.141 542.731 210.851C543.122 211.197 543.513 211.544 543.904 211.897C543.937 212.084 543.97 212.265 544.008 212.453C544.036 212.816 544.063 213.185 544.091 213.548C544.091 214.654 544.08 215.755 544.08 216.862C544.052 217.594 544.025 218.326 543.992 219.058C544.047 222.471 543.799 225.829 542.148 228.922C541.119 229.566 541.13 230.766 540.667 231.713C539.506 233.408 540.161 234.669 541.631 235.731C541.977 236.953 542.918 237.658 543.882 238.346C544.102 238.704 544.316 239.056 544.536 239.414C544.476 239.948 544.415 240.476 544.349 241.01C544.008 241.384 543.667 241.759 543.326 242.133C542.082 243.08 540.943 244.131 540.123 245.485C539.132 245.892 538.84 246.751 538.692 247.703C538.719 248.1 538.483 248.226 538.141 248.254C537.178 248.05 536.617 248.689 536.028 249.272C532.775 252.487 529.435 255.602 526.105 258.74C518.191 266.199 510.051 273.404 501.609 280.246C499.017 282.349 496.54 284.837 493.155 285.668C485.516 287.54 478.67 291.228 471.851 294.932C469.088 296.43 466.331 297.751 463.26 298.389C455.803 299.941 448.202 300.475 440.921 303.288C419.469 311.572 397.829 319.372 376.266 327.359C376.084 324.205 375.506 321.013 375.803 317.908C376.414 311.55 375.985 305.198 376.145 298.852C376.178 297.481 376.392 295.736 374.565 294.993L374.576 295.009C374.818 294.096 374.483 293.33 373.789 292.824C372.43 291.833 372.177 290.402 372.237 288.932C372.452 283.813 371.907 278.721 371.004 273.74C370.157 269.089 369.849 264.09 366.299 260.331L366.31 260.347C365.121 255.641 362.391 251.667 360.162 247.461C360.058 247.39 359.964 247.302 359.887 247.192C359.282 246.014 359.26 244.318 357.328 244.324L357.157 244.291C355.418 242.981 354.802 244.995 353.663 245.463C353.465 245.639 353.266 245.821 353.068 245.997C350.768 247.643 353.789 248.65 353.553 250.048L353.366 249.982C352.243 249.938 351.351 249.476 350.564 248.661C349.854 247.929 349.271 246.883 347.972 247.076C347.515 246.581 347.058 246.085 346.596 245.59C346.69 244.214 346.332 243.206 344.703 243.212C344.576 243.113 344.472 242.997 344.389 242.86C344.477 241.599 344.279 240.542 342.689 240.487L342.7 240.509C342.821 239.623 342.793 238.836 341.582 238.847L341.593 238.863C341.698 237.988 341.698 237.184 340.482 237.195L340.493 237.212C338.979 232.252 339.15 227.161 339.431 222.08C339.546 220.038 339.662 217.819 342.369 217.285L342.375 217.291Z" fill="#AEAEAE"/>
</svg>
