<svg id="eJKOE1Bq3oN1" xmlns="http://www.w3.org/2000/svg" xmlns:xlink="http://www.w3.org/1999/xlink" viewBox="0 0 1079 491" shape-rendering="geometricPrecision" text-rendering="geometricPrecision">
<style><![CDATA[
#eJKOE1Bq3oN4_to {animation: eJKOE1Bq3oN4_to__to 600ms linear 1 normal forwards}@keyframes eJKOE1Bq3oN4_to__to { 0% {transform: translate(-257.938786px,576.645507px)} 83.333333% {transform: translate(342.14px,427.51px)} 100% {transform: translate(342.14px,427.51px)}} #eJKOE1Bq3oN5_to {animation: eJKOE1Bq3oN5_to__to 600ms linear 1 normal forwards}@keyframes eJKOE1Bq3oN5_to__to { 0% {transform: translate(1047.13265px,591.469514px)} 83.333333% {transform: translate(919.79px,469.38px)} 100% {transform: translate(919.79px,469.38px)}} #eJKOE1Bq3oN6_to {animation: eJKOE1Bq3oN6_to__to 600ms linear 1 normal forwards}@keyframes eJKOE1Bq3oN6_to__to { 0% {transform: translate(1123.18996px,586.775018px)} 83.333333% {transform: translate(979.74px,474.08px)} 100% {transform: translate(979.74px,474.08px)}} #eJKOE1Bq3oN7_to {animation: eJKOE1Bq3oN7_to__to 600ms linear 1 normal forwards}@keyframes eJKOE1Bq3oN7_to__to { 0% {transform: translate(564.778154px,596.831515px)} 83.333333% {transform: translate(537.27px,464.02px)} 100% {transform: translate(537.27px,464.02px)}} #eJKOE1Bq3oN8_to {animation: eJKOE1Bq3oN8_to__to 600ms linear 1 normal forwards}@keyframes eJKOE1Bq3oN8_to__to { 0% {transform: translate(-32.226185px,600.9165px)} 83.333333% {transform: translate(364.09px,459.94px)} 100% {transform: translate(364.09px,459.94px)}} #eJKOE1Bq3oN9_to {animation: eJKOE1Bq3oN9_to__to 600ms linear 1 normal forwards}@keyframes eJKOE1Bq3oN9_to__to { 0% {transform: translate(1180.70551px,586.775019px)} 100% {transform: translate(1023.27px,476.49px)}} #eJKOE1Bq3oN10_to {animation: eJKOE1Bq3oN10_to__to 600ms linear 1 normal forwards}@keyframes eJKOE1Bq3oN10_to__to { 0% {transform: translate(945.556506px,-230.151495px)} 83.333333% {transform: translate(863.526506px,149.056504px)} 100% {transform: translate(863.526506px,149.056504px)}} #eJKOE1Bq3oN11_to {animation: eJKOE1Bq3oN11_to__to 600ms linear 1 normal forwards}@keyframes eJKOE1Bq3oN11_to__to { 0% {transform: translate(792.366497px,-216.010502px)} 83.333333% {transform: translate(711.591263px,134.068506px)} 100% {transform: translate(711.591263px,134.068506px)}} #eJKOE1Bq3oN12_to {animation: eJKOE1Bq3oN12_to__to 600ms linear 1 normal forwards}@keyframes eJKOE1Bq3oN12_to__to { 0% {transform: translate(985.745002px,-230.151494px)} 83.333333% {transform: translate(902.25px,150.56px)} 100% {transform: translate(902.25px,150.56px)}} #eJKOE1Bq3oN13_to {animation: eJKOE1Bq3oN13_to__to 600ms linear 1 normal forwards}@keyframes eJKOE1Bq3oN13_to__to { 0% {transform: translate(1019.588488px,-236.307505px)} 83.333333% {transform: translate(936.19px,154.31px)} 100% {transform: translate(936.19px,154.31px)}} #eJKOE1Bq3oN14_to {animation: eJKOE1Bq3oN14_to__to 600ms linear 1 normal forwards}@keyframes eJKOE1Bq3oN14_to__to { 0% {transform: translate(899.513015px,-225.456999px)} 83.333333% {transform: translate(808px,144px)} 100% {transform: translate(808px,144px)}} #eJKOE1Bq3oN15_to {animation: eJKOE1Bq3oN15_to__to 600ms linear 1 normal forwards}@keyframes eJKOE1Bq3oN15_to__to { 0% {transform: translate(841.014614px,-220.094999px)} 83.333333% {transform: translate(756.409973px,139px)} 100% {transform: translate(756.409973px,139px)}}
]]></style>
<g clip-path="url(#eJKOE1Bq3oN16)"><g><g id="eJKOE1Bq3oN4_to" transform="translate(-257.938786,576.645507)"><path d="M684.272,350.021L-0.000122,513.153v-18.61L640.431,341.862l43.841,8.159Z" transform="translate(-342.135925,-427.507507)" fill="#2dc6a8"/></g><g id="eJKOE1Bq3oN5_to" transform="translate(1047.13265,591.469514)"><path d="M785.821,368.914l50.47,9.389l217.479,191.55h-83.815L785.81,368.935l.011-.021Z" transform="translate(-919.790009,-469.383514)" fill="#2ee0be"/></g><g id="eJKOE1Bq3oN6_to" transform="translate(1123.18996,586.775018)"><path d="M836.29,378.303l25.866,4.816L1123.19,569.853h-69.42L836.29,378.303Z" transform="translate(-979.73996,-474.078018)" fill="#25c3a5"/></g><g id="eJKOE1Bq3oN7_to" transform="translate(564.778154,596.831515)"><path d="M785.821,368.914l-.011.021L969.956,569.853h-865.371L728.176,358.19l57.645,10.724Z" transform="translate(-537.270485,-464.021515)" fill="#273432"/></g><g id="eJKOE1Bq3oN8_to" transform="translate(-32.226185,600.9165)"><path d="M0,513.153L684.272,350.021l43.904,8.17L104.585,569.854h-104.585v-56.701Z" transform="translate(-364.088013,-459.9375)" fill="#273432"/></g><g id="eJKOE1Bq3oN9_to" transform="translate(1180.70551,586.775019)"><path d="M902.466,390.614L1184.39,569.853h-61.2L862.156,383.118l40.31,7.496Z" transform="translate(-1023.27301,-476.485519)" fill="#273432"/></g><g id="eJKOE1Bq3oN10_to" transform="translate(945.556506,-230.151495)"><path d="M785.821,368.914l.147-.683L888.631,-82h52.623L836.291,378.303l-50.47-9.389Z" transform="translate(-863.537506,-148.151505)" fill="#2ee0be"/></g><g id="eJKOE1Bq3oN11_to" transform="translate(792.366497,-216.010502)"><path d="M684.272,350.021l-43.84-8.159L737.074,-82h45.7L684.272,350.021Z" transform="translate(-711.602997,-134.010498)" fill="#21c2a3"/></g><g id="eJKOE1Bq3oN12_to" transform="translate(985.745002,-230.151494)"><path d="M862.156,383.118l-25.865-4.815L941.254,-82h26.947L862.156,383.118Z" transform="translate(-902.246002,-150.559006)" fill="#25c3a5"/></g><g id="eJKOE1Bq3oN13_to" transform="translate(1019.588488,-236.307505)"><path d="M862.156,383.118L968.201,-82h42.019L902.466,390.615l-40.31-7.497Z" transform="translate(-936.187988,-154.307495)" fill="#273432"/></g><g id="eJKOE1Bq3oN14_to" transform="translate(899.513015,-225.456999)"><path d="M888.63,-82L785.968,368.231l-.147.683-57.645-10.724L828.548,-82h60.082Z" transform="translate(-808.403015,-143.457001)" fill="#273432"/></g><g id="eJKOE1Bq3oN15_to" transform="translate(841.014614,-220.094999)"><path d="M684.272,350.021L782.774,-82h45.774L728.176,358.19l-43.904-8.169Z" transform="translate(-756.409973,-138.095001)" fill="#273432"/></g></g><clipPath id="eJKOE1Bq3oN16"><rect width="1079" height="491" rx="0" ry="0" transform="matrix(-1 0 0 1 1079 0)" fill="#fff"/></clipPath></g></svg>
