<svg width="61" height="60" viewBox="0 0 61 60" fill="none" xmlns="http://www.w3.org/2000/svg">
<mask id="mask0_33_3980" style="mask-type:alpha" maskUnits="userSpaceOnUse" x="0" y="0" width="61" height="60">
<path d="M60.5 30C60.5 46.5685 47.0685 60 30.5 60C13.9315 60 0.5 46.5685 0.5 30C0.5 13.4315 13.9315 0 30.5 0C47.0685 0 60.5 13.4315 60.5 30Z" fill="#F3F3F3"/>
</mask>
<g mask="url(#mask0_33_3980)">
<path d="M60.5 30C60.5 46.5685 47.0685 60 30.5 60C13.9315 60 0.5 46.5685 0.5 30C0.5 13.4315 13.9315 0 30.5 0C47.0685 0 60.5 13.4315 60.5 30Z" fill="#F3F3F3"/>
<path d="M9.5 18C9.5 15.5147 11.5147 13.5 14 13.5H47C49.4853 13.5 51.5 15.5147 51.5 18V22.5H9.5V18Z" fill="#508FF6"/>
<path d="M9.5 22.5H51.5V61.5H9.5V22.5Z" fill="#EDF5FF"/>
<path d="M17 12C17 11.1716 17.6716 10.5 18.5 10.5C19.3284 10.5 20 11.1716 20 12V16.5C20 17.3284 19.3284 18 18.5 18C17.6716 18 17 17.3284 17 16.5V12Z" fill="#757D82"/>
<path d="M41 12C41 11.1716 41.6716 10.5 42.5 10.5C43.3284 10.5 44 11.1716 44 12V16.5C44 17.3284 43.3284 18 42.5 18C41.6716 18 41 17.3284 41 16.5V12Z" fill="#757D82"/>
<path d="M29.75 28.5C29.75 28.0858 30.0858 27.75 30.5 27.75C30.9142 27.75 31.25 28.0858 31.25 28.5V31.5C31.25 31.9142 30.9142 32.25 30.5 32.25C30.0858 32.25 29.75 31.9142 29.75 31.5V28.5Z" fill="#FDD557"/>
<path d="M29.75 49.5C29.75 49.0858 30.0858 48.75 30.5 48.75C30.9142 48.75 31.25 49.0858 31.25 49.5V52.5C31.25 52.9142 30.9142 53.25 30.5 53.25C30.0858 53.25 29.75 52.9142 29.75 52.5V49.5Z" fill="#FDD557"/>
<path d="M42.5 39.75C42.9142 39.75 43.25 40.0858 43.25 40.5C43.25 40.9142 42.9142 41.25 42.5 41.25L39.5 41.25C39.0858 41.25 38.75 40.9142 38.75 40.5C38.75 40.0858 39.0858 39.75 39.5 39.75L42.5 39.75Z" fill="#FDD557"/>
<path d="M21.5 39.75C21.9142 39.75 22.25 40.0858 22.25 40.5C22.25 40.9142 21.9142 41.25 21.5 41.25L18.5 41.25C18.0858 41.25 17.75 40.9142 17.75 40.5C17.75 40.0858 18.0858 39.75 18.5 39.75L21.5 39.75Z" fill="#FDD557"/>
<path d="M39.5156 48.4547C39.8085 48.7475 39.8085 49.2224 39.5156 49.5153C39.2227 49.8082 38.7478 49.8082 38.4549 49.5153L36.3336 47.394C36.0407 47.1011 36.0407 46.6262 36.3336 46.3333C36.6265 46.0404 37.1014 46.0404 37.3942 46.3333L39.5156 48.4547Z" fill="#FDD557"/>
<path d="M24.6663 33.6054C24.9592 33.8983 24.9592 34.3732 24.6663 34.6661C24.3734 34.959 23.8986 34.959 23.6057 34.6661L21.4843 32.5448C21.1915 32.2519 21.1915 31.777 21.4843 31.4841C21.7772 31.1912 22.2521 31.1912 22.545 31.4841L24.6663 33.6054Z" fill="#FDD557"/>
<path d="M22.546 49.5152C22.2531 49.8081 21.7782 49.8081 21.4853 49.5152C21.1924 49.2223 21.1924 48.7474 21.4853 48.4545L23.6066 46.3332C23.8995 46.0403 24.3744 46.0403 24.6673 46.3332C24.9602 46.6261 24.9602 47.101 24.6673 47.3939L22.546 49.5152Z" fill="#FDD557"/>
<path d="M37.3952 34.666C37.1023 34.9589 36.6274 34.9589 36.3345 34.666C36.0416 34.3731 36.0416 33.8982 36.3345 33.6053L38.4559 31.484C38.7487 31.1911 39.2236 31.1911 39.5165 31.484C39.8094 31.7769 39.8094 32.2517 39.5165 32.5446L37.3952 34.666Z" fill="#FDD557"/>
<path d="M36.5 40.5C36.5 43.8137 33.8137 46.5 30.5 46.5C27.1863 46.5 24.5 43.8137 24.5 40.5C24.5 37.1863 27.1863 34.5 30.5 34.5C33.8137 34.5 36.5 37.1863 36.5 40.5Z" fill="#FDD557"/>
</g>
</svg>
