<svg width="303" height="215" viewBox="0 0 303 215" fill="none" xmlns="http://www.w3.org/2000/svg">
<path style="mix-blend-mode:multiply" opacity="0.45" d="M299.363 103.583C303.131 105.755 303.149 109.284 299.417 111.447L123.89 213.371C120.149 215.543 114.062 215.543 110.294 213.371L2.85329 151.395C-0.914666 149.223 -0.932781 145.693 2.79895 143.53L178.326 41.6071C182.067 39.435 188.154 39.435 191.921 41.6071L299.354 103.583H299.363Z" fill="url(#paint0_linear_33_4520)"/>
<path d="M289.454 94.9127L289.436 99.5283L176.696 34.4845L176.705 29.8779L289.454 94.9127Z" fill="#484848"/>
<path d="M176.705 29.8779L176.696 34.4845L12.7441 129.684L12.7623 125.068L176.705 29.8779Z" fill="#686868"/>
<mask id="mask0_33_4520" style="mask-type:luminance" maskUnits="userSpaceOnUse" x="64" y="160" width="1" height="5">
<path d="M64.8071 164.708C64.8071 163.169 64.8071 161.631 64.8162 160.101C64.8162 161.64 64.8162 163.178 64.8071 164.708Z" fill="white"/>
</mask>
<g mask="url(#mask0_33_4520)">
<path d="M65.6947 161.323V165.929C65.6857 165.486 65.3868 165.042 64.798 164.699C64.6622 164.617 64.5173 164.554 64.3633 164.49V159.884C64.5263 159.947 64.6712 160.011 64.8071 160.092C65.3958 160.427 65.6857 160.879 65.6857 161.323" fill="#464646"/>
</g>
<mask id="mask1_33_4520" style="mask-type:luminance" maskUnits="userSpaceOnUse" x="60" y="160" width="1" height="4">
<path d="M60.6043 160.092C60.6043 161.26 60.6043 162.427 60.5952 163.595C60.5952 162.427 60.5952 161.26 60.5952 160.092H60.6043Z" fill="white"/>
</mask>
<g mask="url(#mask1_33_4520)">
<path d="M61.2563 159.812V164.418C61.0117 164.49 60.7853 164.59 60.586 164.708C60.577 164.708 60.5589 164.726 60.5498 164.726V160.119C60.5498 160.119 60.586 160.101 60.5951 160.101C60.7944 159.983 61.0117 159.893 61.2472 159.812" fill="#616161"/>
</g>
<mask id="mask2_33_4520" style="mask-type:luminance" maskUnits="userSpaceOnUse" x="59" y="159" width="6" height="7">
<path d="M60.5956 164.708C60.0159 165.043 59.7261 165.477 59.7261 165.921V161.314C59.7442 160.88 60.025 160.436 60.6047 160.101C60.6047 161.64 60.6047 163.169 60.5956 164.708C60.5956 163.169 60.5956 161.64 60.6047 160.101C61.764 159.432 63.648 159.432 64.8164 160.101C64.8164 161.64 64.8164 163.178 64.8074 164.708C63.639 164.038 61.755 164.038 60.5956 164.708Z" fill="white"/>
</mask>
<g mask="url(#mask2_33_4520)">
<path d="M65.6952 161.323V165.93C65.6862 165.486 65.3873 165.043 64.7985 164.699C64.6627 164.618 64.5177 164.554 64.3638 164.491V159.884C64.5268 159.948 64.6717 160.011 64.8076 160.092C65.3963 160.427 65.6862 160.88 65.6862 161.323" fill="#464646"/>
<path d="M64.3909 159.893V164.5C64.2641 164.455 64.1373 164.409 64.0195 164.373V159.767C64.1554 159.803 64.2822 159.839 64.3909 159.884" fill="#494949"/>
<path d="M64.0282 159.766V164.373C63.9105 164.346 63.8108 164.318 63.7021 164.3V159.694C63.8199 159.712 63.9286 159.739 64.0282 159.766Z" fill="#4C4C4C"/>
<path d="M63.7113 159.694V164.3C63.6026 164.282 63.503 164.264 63.4033 164.246V159.64C63.512 159.658 63.6116 159.667 63.7113 159.694Z" fill="#4E4E4E"/>
<path d="M63.4215 159.64V164.246C63.3128 164.237 63.2131 164.219 63.1226 164.21V159.604C63.2312 159.604 63.3309 159.622 63.4215 159.64Z" fill="#515151"/>
<path d="M63.1317 159.613V164.219C63.023 164.219 62.9234 164.21 62.8237 164.201V159.595C62.9324 159.595 63.0321 159.595 63.1317 159.613Z" fill="#545454"/>
<path d="M62.8419 159.595V164.201C62.7242 164.201 62.6245 164.201 62.5249 164.201V159.595C62.6427 159.595 62.7423 159.595 62.8419 159.595Z" fill="#565656"/>
<path d="M62.5341 159.595V164.201C62.4073 164.201 62.2986 164.21 62.1899 164.219V159.613C62.3167 159.604 62.4254 159.595 62.5341 159.595Z" fill="#595959"/>
<path d="M62.1986 159.613V164.219C62.0536 164.228 61.9268 164.246 61.8091 164.274V159.667C61.9449 159.649 62.0718 159.631 62.1986 159.613Z" fill="#5C5C5C"/>
<path d="M61.8272 159.667V164.273C61.6189 164.31 61.4287 164.355 61.2476 164.409V159.803C61.4378 159.748 61.628 159.694 61.8272 159.658" fill="#5E5E5E"/>
<path d="M61.2568 159.812V164.418C61.0122 164.49 60.7858 164.59 60.5865 164.708C60.5775 164.708 60.5594 164.726 60.5503 164.726V160.119C60.5503 160.119 60.5865 160.101 60.5956 160.101C60.7949 159.983 61.0122 159.893 61.2477 159.812" fill="#616161"/>
<path d="M60.5682 160.12V164.726C60.4142 164.817 60.2874 164.907 60.1787 165.007V160.4C60.2965 160.301 60.4233 160.21 60.5682 160.12Z" fill="#5E5E5E"/>
<path d="M60.188 160.4V165.006C60.1065 165.07 60.0431 165.133 59.9888 165.206V160.599C60.0522 160.527 60.1156 160.463 60.188 160.4Z" fill="#5C5C5C"/>
<path d="M60.007 160.599V165.206C59.9436 165.26 59.9073 165.323 59.8711 165.387V160.78C59.9164 160.717 59.9617 160.662 60.007 160.599Z" fill="#595959"/>
<path d="M59.8889 160.771V165.378C59.8436 165.432 59.8165 165.486 59.7983 165.55V160.943C59.8346 160.889 59.8617 160.825 59.8889 160.771Z" fill="#565656"/>
<path d="M59.8075 160.943V165.549C59.7713 165.604 59.7532 165.658 59.7441 165.721V161.115C59.7713 161.061 59.7804 161.006 59.8075 160.943Z" fill="#545454"/>
<path d="M59.7623 161.115V165.721C59.7351 165.776 59.7351 165.839 59.7261 165.893V161.287C59.7442 161.232 59.7442 161.169 59.7623 161.115Z" fill="#515151"/>
<path d="M59.7351 161.278V165.884C59.7351 165.884 59.7261 165.902 59.7261 165.912V161.305C59.7261 161.305 59.7351 161.287 59.7351 161.278Z" fill="#4E4E4E"/>
</g>
<mask id="mask3_33_4520" style="mask-type:luminance" maskUnits="userSpaceOnUse" x="64" y="160" width="2" height="6">
<path d="M65.6857 165.938C65.6857 165.495 65.3959 165.052 64.8071 164.708C64.8071 163.169 64.8071 161.631 64.8162 160.101C65.4049 160.436 65.6948 160.888 65.6948 161.332C65.6948 162.717 65.6857 164.563 65.6857 165.938Z" fill="white"/>
</mask>
<g mask="url(#mask3_33_4520)">
<path d="M65.6947 161.323V165.929C65.6857 165.486 65.3868 165.042 64.798 164.699C64.6622 164.617 64.5173 164.554 64.3633 164.49V159.884C64.5263 159.947 64.6712 160.011 64.8071 160.092C65.3958 160.427 65.6857 160.879 65.6857 161.323" fill="#464646"/>
</g>
<mask id="mask4_33_4520" style="mask-type:luminance" maskUnits="userSpaceOnUse" x="59" y="161" width="7" height="7">
<path d="M65.695 161.323V165.929C65.6769 166.364 65.3961 166.807 64.8164 167.142C63.6571 167.812 61.7731 167.812 60.6047 167.142C60.0159 166.807 59.7261 166.355 59.7261 165.911V161.305C59.7351 161.748 60.034 162.192 60.6228 162.536C61.7912 163.205 63.6752 163.205 64.8346 162.536C65.4142 162.201 65.7041 161.766 65.7041 161.323H65.695Z" fill="white"/>
</mask>
<g mask="url(#mask4_33_4520)">
<path d="M65.6951 161.323V165.929C65.6951 165.929 65.686 165.947 65.686 165.956V161.35C65.686 161.35 65.6951 161.332 65.6951 161.323Z" fill="#737373"/>
<path d="M65.6949 161.35V165.957C65.6768 166.011 65.6768 166.074 65.6587 166.129V161.522C65.6859 161.468 65.6859 161.404 65.6949 161.35Z" fill="#777777"/>
<path d="M65.6767 161.522V166.129C65.6495 166.183 65.6405 166.237 65.6133 166.3V161.694C65.6495 161.64 65.6676 161.585 65.6767 161.522Z" fill="#7B7B7B"/>
<path d="M65.6316 161.685V166.291C65.5954 166.345 65.5682 166.409 65.541 166.463V161.856C65.5863 161.802 65.6135 161.748 65.6316 161.685Z" fill="#7F7F7F"/>
<path d="M65.5499 161.857V166.464C65.5046 166.527 65.4594 166.581 65.4141 166.644V162.038C65.4775 161.984 65.5137 161.92 65.5499 161.857Z" fill="#838383"/>
<path d="M65.4322 162.038V166.644C65.3688 166.717 65.3054 166.78 65.2329 166.843V162.237C65.3144 162.173 65.3778 162.11 65.4322 162.038Z" fill="#878787"/>
<path d="M65.2513 162.237V166.843C65.1335 166.943 65.0067 167.033 64.8618 167.124V162.517C65.0158 162.427 65.1426 162.336 65.2513 162.237Z" fill="#8B8B8B"/>
<path d="M64.8708 162.518V167.124C64.8708 167.124 64.8345 167.142 64.8255 167.142C64.6262 167.26 64.4088 167.35 64.1733 167.432V162.825C64.4179 162.753 64.6443 162.653 64.8436 162.536C64.8527 162.536 64.8708 162.518 64.8798 162.518" fill="#8F8F8F"/>
<path d="M64.1822 162.825V167.432C63.992 167.486 63.8018 167.54 63.6025 167.577V162.97C63.8109 162.934 64.0011 162.889 64.1822 162.825Z" fill="#8B8B8B"/>
<path d="M63.6116 162.961V167.568C63.4758 167.586 63.349 167.604 63.2222 167.622V163.015C63.3671 163.006 63.4939 162.988 63.6116 162.961Z" fill="#878787"/>
<path d="M63.2314 163.015V167.622C63.1046 167.631 62.9959 167.64 62.8872 167.64V163.033C63.014 163.033 63.1227 163.024 63.2314 163.015Z" fill="#838383"/>
<path d="M62.9054 163.042V167.649C62.7877 167.649 62.688 167.649 62.5884 167.649V163.042C62.7061 163.042 62.8058 163.042 62.9054 163.042Z" fill="#7F7F7F"/>
<path d="M62.5975 163.043V167.649C62.4888 167.649 62.3892 167.649 62.2896 167.631V163.024C62.3982 163.024 62.4979 163.033 62.5975 163.043Z" fill="#7B7B7B"/>
<path d="M62.3077 163.024V167.631C62.199 167.631 62.0994 167.612 62.0088 167.594V162.988C62.1175 162.997 62.2171 163.015 62.3077 163.024Z" fill="#777777"/>
<path d="M62.0174 162.988V167.594C61.9087 167.576 61.8091 167.567 61.7095 167.54V162.934C61.8182 162.952 61.9178 162.97 62.0174 162.988Z" fill="#737373"/>
<path d="M61.7187 162.943V167.55C61.6009 167.531 61.4922 167.504 61.3926 167.477V162.871C61.5103 162.898 61.61 162.925 61.7187 162.943Z" fill="#6F6F6F"/>
<path d="M61.4109 162.861V167.468C61.2751 167.432 61.1482 167.395 61.0396 167.35V162.744C61.1664 162.789 61.2932 162.834 61.4109 162.87" fill="#6B6B6B"/>
<path d="M61.0485 162.744V167.35C60.8854 167.287 60.7405 167.224 60.6047 167.142C60.0159 166.807 59.7261 166.355 59.7261 165.911V161.305C59.7351 161.748 60.034 162.192 60.6228 162.536C60.7586 162.617 60.9036 162.68 61.0575 162.744" fill="#676767"/>
</g>
<path d="M64.8164 160.101C65.9848 160.771 65.9939 161.866 64.8345 162.536C63.6751 163.206 61.7912 163.206 60.6227 162.536C59.4543 161.866 59.4452 160.771 60.6046 160.101C61.764 159.432 63.648 159.432 64.8164 160.101Z" fill="white"/>
<path d="M289.454 94.9126L289.436 99.5282L125.493 194.718L125.502 190.112L289.454 94.9126Z" fill="#999999"/>
<path d="M289.454 94.9127L125.502 190.112L12.7622 125.068L176.705 29.8779L289.454 94.9127Z" fill="url(#paint1_radial_33_4520)"/>
<path d="M125.502 190.112L125.493 194.718L12.7441 129.683L12.7623 125.068L125.502 190.112Z" fill="#6A6A6A"/>
<path d="M299.363 86.0887C303.131 88.2607 303.149 91.7903 299.417 93.9533L123.89 195.877C120.149 198.049 114.062 198.049 110.294 195.877L2.85329 133.901C-0.914666 131.729 -0.932781 128.199 2.79895 126.036L178.326 24.1129C182.067 21.9409 188.154 21.9409 191.921 24.1129L299.354 86.0887H299.363ZM125.511 190.112L289.454 94.9126L176.705 29.8689L12.7623 125.068L125.511 190.112ZM60.6226 162.536C61.791 163.205 63.675 163.205 64.8344 162.536C65.9938 161.866 65.9847 160.771 64.8253 160.101C63.6569 159.432 61.7729 159.432 60.6136 160.101C59.4542 160.771 59.4632 161.866 60.6317 162.536" fill="#FCFF56"/>
<path d="M302.179 90.3332C302.179 90.4328 302.161 90.5324 302.143 90.6319C302.125 90.7134 302.107 90.7948 302.08 90.8763C302.053 90.9758 302.034 91.0663 301.998 91.1659C301.971 91.2473 301.935 91.3197 301.899 91.4012C301.853 91.5007 301.808 91.6003 301.763 91.6998C301.727 91.7722 301.681 91.8446 301.636 91.917C301.563 92.0256 301.491 92.1433 301.41 92.2519C301.364 92.3153 301.31 92.3786 301.256 92.4419C301.129 92.5868 300.993 92.7406 300.848 92.8763C300.794 92.9306 300.748 92.985 300.685 93.0302C300.594 93.1117 300.495 93.1931 300.386 93.2746C300.295 93.347 300.214 93.4194 300.114 93.4827C300.006 93.5642 299.888 93.6366 299.77 93.709C299.652 93.7904 299.535 93.8719 299.408 93.9443L123.881 195.868C123.591 196.031 123.292 196.184 122.975 196.329C122.884 196.374 122.794 196.411 122.703 196.447C122.459 196.546 122.205 196.646 121.951 196.727C121.861 196.755 121.77 196.791 121.671 196.827C121.508 196.881 121.345 196.927 121.182 196.972C121.055 197.008 120.928 197.044 120.801 197.071C120.629 197.117 120.448 197.153 120.267 197.189C120.149 197.216 120.031 197.243 119.904 197.261C119.542 197.325 119.18 197.379 118.808 197.415C118.691 197.424 118.582 197.433 118.464 197.442C118.247 197.46 118.029 197.479 117.812 197.488C117.676 197.488 117.531 197.488 117.395 197.497C117.223 197.497 117.042 197.497 116.87 197.497C116.725 197.497 116.58 197.497 116.426 197.488C116.263 197.488 116.1 197.47 115.937 197.46C115.792 197.451 115.638 197.433 115.493 197.424C115.33 197.406 115.176 197.388 115.013 197.37C114.868 197.352 114.723 197.334 114.579 197.307C114.406 197.279 114.234 197.252 114.071 197.216C113.935 197.189 113.809 197.162 113.673 197.135C113.474 197.089 113.274 197.044 113.075 196.99C112.966 196.963 112.858 196.936 112.749 196.899C112.396 196.8 112.051 196.682 111.716 196.546C111.671 196.528 111.626 196.51 111.58 196.492C111.128 196.311 110.684 196.103 110.276 195.868L2.85313 133.901C0.951033 132.806 0.00904304 131.367 0.00904304 129.937V134.543C-0.00907215 135.973 0.941975 137.412 2.83501 138.507L110.267 200.483C110.675 200.719 111.119 200.927 111.571 201.108C111.599 201.117 111.626 201.135 111.653 201.144C111.671 201.144 111.689 201.153 111.707 201.162C112.042 201.289 112.387 201.406 112.74 201.515C112.767 201.515 112.794 201.533 112.821 201.542C112.903 201.569 112.984 201.578 113.066 201.605C113.265 201.66 113.464 201.705 113.664 201.75C113.718 201.759 113.772 201.777 113.827 201.786C113.908 201.805 113.99 201.814 114.062 201.832C114.234 201.868 114.397 201.895 114.569 201.922C114.642 201.931 114.705 201.949 114.778 201.958C114.85 201.967 114.932 201.977 115.004 201.986C115.167 202.004 115.321 202.022 115.484 202.04C115.566 202.04 115.638 202.058 115.72 202.067C115.792 202.067 115.865 202.067 115.937 202.076C116.1 202.085 116.263 202.094 116.426 202.103C116.508 202.103 116.589 202.112 116.671 202.112C116.734 202.112 116.798 202.112 116.87 202.112C117.042 202.112 117.223 202.112 117.395 202.112C117.486 202.112 117.568 202.112 117.658 202.112C117.712 202.112 117.758 202.112 117.812 202.103C118.029 202.094 118.247 202.076 118.464 202.058C118.555 202.058 118.636 202.058 118.727 202.04C118.754 202.04 118.781 202.04 118.808 202.031C119.18 201.995 119.542 201.94 119.904 201.877C119.923 201.877 119.941 201.877 119.959 201.877C120.067 201.859 120.167 201.832 120.267 201.814C120.439 201.777 120.62 201.741 120.792 201.705C120.919 201.678 121.046 201.642 121.172 201.605C121.335 201.56 121.508 201.515 121.662 201.461C121.698 201.452 121.734 201.443 121.77 201.434C121.825 201.415 121.879 201.388 121.942 201.37C122.196 201.28 122.45 201.189 122.694 201.081C122.785 201.044 122.875 201.008 122.966 200.963C123.283 200.818 123.582 200.673 123.872 200.501L299.399 98.578C299.399 98.578 299.48 98.5327 299.516 98.5056C299.607 98.4513 299.68 98.397 299.761 98.3427C299.879 98.2703 299.997 98.1888 300.105 98.1164C300.196 98.044 300.286 97.9716 300.377 97.9083C300.477 97.8268 300.576 97.7454 300.676 97.6639C300.694 97.6458 300.721 97.6277 300.739 97.6187C300.775 97.5825 300.803 97.5463 300.839 97.5101C300.984 97.3653 301.12 97.2205 301.246 97.0756C301.274 97.0394 301.31 97.0123 301.337 96.9761C301.364 96.9399 301.382 96.9127 301.4 96.8765C301.482 96.7679 301.554 96.6503 301.627 96.5417C301.654 96.4964 301.699 96.4512 301.717 96.3969C301.736 96.3697 301.736 96.3516 301.754 96.3245C301.808 96.2249 301.853 96.1254 301.89 96.0258C301.917 95.9715 301.953 95.9082 301.971 95.8539C301.971 95.8358 301.98 95.8177 301.989 95.7905C302.025 95.691 302.044 95.6005 302.071 95.5009C302.089 95.4376 302.116 95.3742 302.125 95.3108C302.125 95.2927 302.125 95.2746 302.125 95.2565C302.143 95.157 302.152 95.0575 302.161 94.9579C302.161 94.8946 302.179 94.8312 302.179 94.7588C302.179 94.7316 302.179 94.7045 302.179 94.6773V90.0708C302.188 90.1613 302.179 90.2609 302.17 90.3514L302.179 90.3332Z" fill="url(#paint2_linear_33_4520)"/>
<path d="M60.6226 162.536C61.7911 163.205 63.675 163.205 64.8344 162.536C65.9938 161.866 65.9847 160.771 64.8253 160.101C63.6569 159.432 61.7729 159.432 60.6136 160.101C59.4542 160.771 59.4633 161.866 60.6317 162.536M299.363 86.0887C303.131 88.2607 303.149 91.7903 299.417 93.9533L123.89 195.877C120.149 198.049 114.062 198.049 110.294 195.877L2.85329 133.901C-0.914666 131.729 -0.932781 128.199 2.79895 126.036L178.326 24.1129C182.067 21.9409 188.154 21.9409 191.921 24.1129L299.354 86.0887H299.363ZM125.511 190.112L289.454 94.9126L176.705 29.8689L12.7623 125.068L125.511 190.112Z" stroke="url(#paint3_linear_33_4520)" stroke-width="0.26" stroke-miterlimit="10"/>
<path d="M126.906 147.911L126.888 156.689L110.566 166.165L110.584 157.395L126.906 147.911Z" fill="#FAEF6A"/>
<path d="M110.584 157.395L110.566 166.165L54.6445 133.91L54.6717 125.131L110.584 157.395Z" fill="#A2A536"/>
<path d="M126.906 147.911L110.584 157.395L54.6719 125.131L70.9937 115.656L126.906 147.911Z" fill="#FCFF56"/>
<path d="M202.202 74.5314C207.22 77.4275 207.247 82.1155 202.265 85.0116C197.284 87.9076 189.177 87.9076 184.159 85.0116C179.141 82.1155 179.114 77.4275 184.096 74.5314C189.077 71.6354 197.184 71.6354 202.202 74.5314Z" fill="url(#paint4_linear_33_4520)"/>
<path d="M183.598 85.3283C189.866 88.9394 189.893 94.8039 183.67 98.415L180.264 100.388L157.575 87.3013L160.981 85.3283C167.212 81.7083 177.33 81.7083 183.598 85.3283Z" fill="url(#paint5_linear_33_4520)"/>
<path d="M211.73 71.78C226.259 80.1605 226.331 93.7901 211.902 102.171C197.474 110.551 173.915 110.551 159.387 102.171C144.858 93.7901 144.786 80.1605 159.214 71.78C173.643 63.3995 197.202 63.3995 211.73 71.78ZM160.156 101.727C174.25 109.863 197.12 109.863 211.133 101.727C225.136 93.591 225.063 80.3596 210.97 72.2235C196.867 64.0873 174.006 64.0873 160.002 72.2235C145.99 80.3596 146.063 93.591 160.166 101.727" fill="url(#paint6_linear_33_4520)"/>
<g opacity="0.75">
<path d="M201.369 17.0357C231.168 34.2311 231.331 62.2053 201.731 79.3916C193.081 84.4145 182.366 88.1794 170.745 90.2881L170.401 89.6455C181.831 87.573 192.383 83.8534 200.898 78.912C230.045 61.9881 229.891 34.4393 200.553 17.5154C171.216 0.591528 123.618 0.591528 94.4708 17.5154C65.3144 34.4483 65.4684 61.9881 94.8059 78.912L93.9817 79.3916C64.1822 62.1962 64.0192 34.2221 93.6284 17.0357C123.229 -0.150586 171.56 -0.150586 201.369 17.0357Z" fill="white"/>
<path d="M193.588 21.5517C219.067 36.2492 219.203 60.1689 193.887 74.8664C168.571 89.5639 127.241 89.5639 101.762 74.8664C90.866 68.5765 84.1271 60.2503 82.7866 51.4083L87.7864 51.164C89.0273 59.3272 95.2499 67.0199 105.304 72.8211C128.817 86.3873 166.959 86.3873 190.327 72.8211C213.687 59.2548 213.56 37.1814 190.047 23.6151C166.533 10.0489 128.392 10.0489 105.032 23.6151L101.472 21.5607C126.788 6.86322 168.118 6.86322 193.597 21.5607L193.588 21.5517Z" fill="white"/>
<path d="M205.218 14.8002C189.748 5.87666 169.223 0.962402 147.413 0.962402C125.611 0.962402 105.132 5.87666 89.761 14.8002C121.58 -3.44505 173.181 -3.436 205.01 14.9178C236.829 33.2716 237.001 63.1373 205.381 81.5001C173.77 99.854 122.16 99.863 90.3407 81.5001C76.7362 73.6536 68.3126 63.2459 66.646 52.1956C68.0318 63.2911 76.4825 73.7441 90.1323 81.6178C105.603 90.5413 126.127 95.4555 147.947 95.4555C169.749 95.4555 190.228 90.5413 205.599 81.6178C220.969 72.6943 229.393 60.8295 229.32 48.2044C229.239 35.5885 220.688 23.7237 205.218 14.7911V14.8002Z" fill="white"/>
<path d="M176.252 31.6152C192.112 40.765 192.193 55.6526 176.442 64.7933C160.691 73.943 134.968 73.943 119.108 64.7933C103.248 55.6435 103.166 40.7559 118.917 31.6152C134.669 22.4655 160.392 22.4655 176.252 31.6152ZM119.542 64.5399C135.158 73.5448 160.483 73.5539 175.998 64.5399C191.505 55.5349 191.423 40.8736 175.817 31.8686C160.202 22.8637 134.868 22.8637 119.361 31.8686C103.846 40.8826 103.936 55.5349 119.542 64.5399Z" fill="white"/>
<path d="M171.261 34.5208L167.72 36.5751C156.597 30.1586 138.554 30.1586 127.504 36.5751C116.445 42.9917 116.508 53.4357 127.631 59.8523C138.754 66.2689 156.796 66.2689 167.847 59.8523L171.406 61.9067C158.399 69.4545 137.178 69.4636 124.089 61.9067C111.001 54.3588 110.929 42.0686 123.935 34.5208C136.942 26.9729 158.164 26.9729 171.252 34.5208H171.261Z" fill="white"/>
<path d="M188.38 24.8188L182.928 27.9864L182.484 27.733L187.946 24.5654L188.38 24.8188Z" fill="white"/>
<path d="M180.727 21.0722L176.307 24.7465L175.799 24.5384L180.219 20.873L180.727 21.0722Z" fill="white"/>
<path d="M172.068 18.158L168.825 22.2125L168.254 22.0587L171.506 17.9951L172.068 18.158Z" fill="white"/>
<path d="M162.666 16.1398L160.682 20.4658L160.084 20.3753L162.068 16.0493L162.666 16.1398Z" fill="white"/>
<path d="M152.811 15.0989L152.159 19.5697L151.534 19.5335L152.195 15.0718L152.811 15.0989Z" fill="white"/>
<path d="M142.794 15.0718L143.482 19.5335L142.866 19.5607L142.178 15.0989L142.794 15.0718Z" fill="white"/>
<path d="M132.93 16.0493L134.95 20.3753L134.352 20.4658L132.332 16.1398L132.93 16.0493Z" fill="white"/>
<path d="M123.51 17.9951L126.798 22.0587L126.236 22.2125L122.948 18.158L123.51 17.9951Z" fill="white"/>
<path d="M114.823 20.873L119.289 24.5384L118.782 24.7465L114.325 21.0722L114.823 20.873Z" fill="white"/>
<path d="M112.632 27.7423L112.197 27.9957L106.708 24.8281L107.143 24.5747L112.632 27.7423Z" fill="white"/>
<path d="M107.043 31.5615L106.681 31.8601L100.34 29.2808L100.694 28.9912L107.043 31.5615Z" fill="white"/>
<path d="M102.687 35.8871L102.424 36.2129L95.4043 34.3214L95.667 33.9956L102.687 35.8871Z" fill="white"/>
<path d="M99.6976 40.5933L99.5436 40.9372L92.062 39.7787L92.216 39.4258L99.6976 40.5933Z" fill="white"/>
<path d="M98.1667 45.5256L98.1123 45.8786L90.4043 45.4894L90.4586 45.1274L98.1667 45.5256Z" fill="white"/>
<path d="M98.1394 50.5396L98.2028 50.9016L90.4948 51.2817L90.4404 50.9287L98.1394 50.5396Z" fill="white"/>
<path d="M99.6249 55.481L99.7879 55.8339L92.3154 56.9833L92.1523 56.6394L99.6249 55.481Z" fill="white"/>
<path d="M102.56 60.2051L102.831 60.5309L95.8208 62.4224L95.5581 62.0966L102.56 60.2051Z" fill="white"/>
<path d="M106.88 64.5581L107.224 64.8567L100.911 67.427L100.549 67.1284L106.88 64.5581Z" fill="white"/>
<path d="M112.858 68.6763L107.405 71.8438L106.971 71.5904L112.414 68.4229L112.858 68.6763Z" fill="white"/>
<path d="M119.552 71.88L115.132 75.5454L114.625 75.3372L119.045 71.6719L119.552 71.88Z" fill="white"/>
<path d="M127.096 74.3594L123.854 78.4139L123.283 78.2691L126.535 74.2056L127.096 74.3594Z" fill="white"/>
<path d="M135.276 76.0431L133.283 80.3691L132.694 80.2786L134.66 75.9526L135.276 76.0431Z" fill="white"/>
<path d="M143.817 76.8848L143.165 81.3466L142.549 81.3104L143.192 76.8486L143.817 76.8848Z" fill="white"/>
<path d="M152.476 76.8574L153.182 81.3101L152.557 81.3463L151.86 76.8846L152.476 76.8574Z" fill="white"/>
<path d="M160.999 75.9526L163.028 80.2786L162.43 80.3691L160.401 76.0431L160.999 75.9526Z" fill="white"/>
<path d="M169.115 74.2056L172.403 78.2691L171.841 78.4139L168.553 74.3594L169.115 74.2056Z" fill="white"/>
<path d="M176.569 71.6719L181.035 75.3372L180.527 75.5454L176.062 71.88L176.569 71.6719Z" fill="white"/>
<path d="M188.643 71.5904L188.208 71.8438L182.719 68.6763L183.154 68.4229L188.643 71.5904Z" fill="white"/>
<path d="M195.019 67.1284L194.666 67.427L188.308 64.8567L188.661 64.5581L195.019 67.1284Z" fill="white"/>
<path d="M199.947 62.0966L199.684 62.4224L192.665 60.5309L192.936 60.2051L199.947 62.0966Z" fill="white"/>
<path d="M203.289 56.6394L203.135 56.9833L195.653 55.8339L195.807 55.481L203.289 56.6394Z" fill="white"/>
<path d="M204.946 50.9287L204.892 51.2817L197.184 50.9016L197.238 50.5396L204.946 50.9287Z" fill="white"/>
<path d="M204.856 45.1274L204.91 45.4894L197.211 45.8786L197.148 45.5256L204.856 45.1274Z" fill="white"/>
<path d="M203.036 39.4258L203.199 39.7787L195.735 40.9372L195.563 40.5842L203.036 39.4258Z" fill="white"/>
<path d="M199.53 33.9956L199.793 34.3214L192.791 36.2129L192.529 35.8871L199.53 33.9956Z" fill="white"/>
<path d="M194.449 28.9912L194.811 29.2808L188.48 31.8511L188.126 31.5615L194.449 28.9912Z" fill="white"/>
</g>
<defs>
<linearGradient id="paint0_linear_33_4520" x1="0.00920871" y1="127.484" x2="302.198" y2="127.484" gradientUnits="userSpaceOnUse">
<stop stop-color="#4795D6"/>
<stop offset="1" stop-color="#3D63A8"/>
</linearGradient>
<radialGradient id="paint1_radial_33_4520" cx="0" cy="0" r="1" gradientUnits="userSpaceOnUse" gradientTransform="translate(171.596 96.7528) scale(143.554 97.5369)">
<stop stop-color="#A9FFFF"/>
<stop offset="1" stop-color="#1FC2A2"/>
</radialGradient>
<linearGradient id="paint2_linear_33_4520" x1="-1.45563e-05" y1="146.082" x2="302.197" y2="146.082" gradientUnits="userSpaceOnUse">
<stop stop-color="#1471AF"/>
<stop offset="0.2" stop-color="#1471AF"/>
<stop offset="0.43" stop-color="#38E0FF"/>
<stop offset="0.61" stop-color="#1D54A3"/>
<stop offset="1" stop-color="#1D54A3"/>
</linearGradient>
<linearGradient id="paint3_linear_33_4520" x1="-0.10854" y1="109.99" x2="302.325" y2="109.99" gradientUnits="userSpaceOnUse">
<stop stop-color="#4795D6" stop-opacity="0"/>
<stop offset="0.3" stop-color="#A8CDEB" stop-opacity="0.53"/>
<stop offset="0.56" stop-color="white"/>
<stop offset="1" stop-color="#3D63A8" stop-opacity="0"/>
</linearGradient>
<linearGradient id="paint4_linear_33_4520" x1="157.575" y1="86.3781" x2="205.988" y2="86.3781" gradientUnits="userSpaceOnUse">
<stop stop-color="#2D5AC9"/>
<stop offset="0.16" stop-color="#2851AE"/>
<stop offset="0.39" stop-color="#23478F"/>
<stop offset="0.61" stop-color="#1F4078"/>
<stop offset="0.82" stop-color="#1D3C6A"/>
<stop offset="1" stop-color="#1D3B66"/>
</linearGradient>
<linearGradient id="paint5_linear_33_4520" x1="157.575" y1="86.3782" x2="205.988" y2="86.3782" gradientUnits="userSpaceOnUse">
<stop stop-color="#2D5AC9"/>
<stop offset="0.16" stop-color="#2851AE"/>
<stop offset="0.39" stop-color="#23478F"/>
<stop offset="0.61" stop-color="#1F4078"/>
<stop offset="0.82" stop-color="#1D3C6A"/>
<stop offset="1" stop-color="#1D3B66"/>
</linearGradient>
<linearGradient id="paint6_linear_33_4520" x1="148.445" y1="86.9753" x2="222.681" y2="86.9753" gradientUnits="userSpaceOnUse">
<stop stop-color="#2D5AC9"/>
<stop offset="0.16" stop-color="#2851AE"/>
<stop offset="0.39" stop-color="#23478F"/>
<stop offset="0.61" stop-color="#1F4078"/>
<stop offset="0.82" stop-color="#1D3C6A"/>
<stop offset="1" stop-color="#1D3B66"/>
</linearGradient>
</defs>
</svg>
