<svg width="80" height="100" viewBox="0 0 80 100" fill="none" xmlns="http://www.w3.org/2000/svg">
<path d="M77.8402 99.63H2.67022C1.17022 99.63 0.310215 97.92 1.20022 96.71L13.2702 80.47C13.6102 80.01 14.1602 79.73 14.7402 79.73H65.7702C66.3502 79.73 66.8902 80 67.2402 80.47L79.3102 96.71C80.2102 97.92 79.3502 99.63 77.8402 99.63Z" fill="url(#paint0_linear_33_4088)"/>
<path style="mix-blend-mode:screen" opacity="0.6" d="M13.2701 80.47L1.20006 96.71C1.14006 96.79 1.11006 96.88 1.06006 96.96C1.36006 97.47 1.93006 97.84 2.66006 97.84H77.8401C78.5701 97.84 79.1501 97.47 79.4401 96.96C79.4001 96.88 79.3601 96.79 79.3001 96.71L67.2301 80.47C66.8901 80.01 66.3401 79.73 65.7601 79.73H14.7401C14.1601 79.73 13.6201 80 13.2701 80.47Z" fill="url(#paint1_linear_33_4088)"/>
<path style="mix-blend-mode:multiply" opacity="0.6" d="M13.2701 80.47L1.20006 96.71C1.14006 96.79 1.11006 96.88 1.06006 96.96C1.36006 97.47 1.93006 97.84 2.66006 97.84H77.8401C78.5701 97.84 79.1501 97.47 79.4401 96.96C79.4001 96.88 79.3601 96.79 79.3001 96.71L67.2301 80.47C66.8901 80.01 66.3401 79.73 65.7601 79.73H14.7401C14.1601 79.73 13.6201 80 13.2701 80.47Z" fill="url(#paint2_linear_33_4088)"/>
<path d="M16.8201 85.9198C17.3901 85.7798 35.4901 4.97984 35.4901 4.97984C35.4901 4.97984 36.3001 0.139835 41.4701 0.279835C45.6501 0.389835 46.4601 4.69983 46.4601 4.69983L63.7001 87.0598C63.7001 87.0598 66.7901 92.0898 37.9101 91.9998C15.2501 91.4298 16.8201 85.9198 16.8201 85.9198Z" fill="url(#paint3_linear_33_4088)"/>
<path d="M33.85 12.2997C33.09 15.6597 32.12 19.9897 31.02 24.8697C38.73 24.6597 50.64 24.8497 50.68 24.8497L48.05 12.2897C42.37 11.5797 33.87 12.2097 33.85 12.2997Z" fill="url(#paint4_linear_33_4088)"/>
<path d="M28.2102 37.29C27.1302 42.06 26.0102 47 24.9102 51.81C27.1902 52.57 49.9202 53.72 56.3702 52.04L53.2702 37.21C53.0402 37.25 36.6702 37.4 28.2102 37.29Z" fill="url(#paint5_linear_33_4088)"/>
<path d="M21.9202 64.8301C20.6902 70.1701 19.5802 74.9101 18.7202 78.5501C22.6602 82.2301 33.3102 82.6801 37.5302 82.8001C46.3202 83.0401 59.9002 82.3701 62.0802 79.3101L59.1002 65.0601C53.9302 68.3201 24.7602 66.7501 21.9302 64.8501L21.9202 64.8301Z" fill="url(#paint6_linear_33_4088)"/>
<g style="mix-blend-mode:multiply" opacity="0.6">
<path d="M77.8401 97.6799H2.67016C1.97016 97.6799 1.42016 97.3399 1.11016 96.8799C0.390156 98.0699 1.23016 99.6399 2.67016 99.6399H77.8401C79.2802 99.6399 80.1102 98.0799 79.4002 96.8799C79.0902 97.3499 78.5401 97.6799 77.8401 97.6799Z" fill="#722000"/>
</g>
<g opacity="0.6">
<path opacity="0.09" d="M17.7203 87.8901C17.7203 87.8901 17.8803 87.9601 18.1203 88.1401C18.4003 88.2701 18.7503 88.5501 19.2803 88.7801C20.3003 89.3001 21.9003 89.8201 23.9303 90.2501C27.9803 91.1201 33.7503 91.5701 40.1003 91.5601C46.4603 91.5301 52.2203 91.2401 56.3403 90.6501C58.3903 90.3301 60.0403 90.0001 61.1203 89.5901C62.2203 89.2301 62.7603 88.8801 62.7903 88.9301C62.8303 88.9801 62.3403 89.4401 61.2403 89.9101C60.1603 90.4201 58.5003 90.8601 56.4403 91.2601C52.2903 92.0201 46.5003 92.4101 40.1003 92.4401C33.7003 92.4501 27.8903 91.9001 23.7903 90.8601C21.7403 90.3501 20.1303 89.7301 19.1203 89.0901C18.6003 88.8101 18.2603 88.4701 18.0103 88.2901C17.8003 88.0601 17.7003 87.9201 17.7203 87.9001V87.8901Z" fill="#8C2F00"/>
<path opacity="0.18" d="M19.5901 89.1201C19.5901 89.1201 19.7401 89.1401 20.0001 89.2401C20.2701 89.3201 20.6601 89.4401 21.1501 89.6101C21.6501 89.7701 22.2801 89.9101 22.9901 90.1101C23.7201 90.2501 24.5501 90.4401 25.4701 90.5901C29.1701 91.1901 34.3601 91.6101 40.1001 91.5801C45.8401 91.5501 51.0501 91.3201 54.7801 90.8801C56.6501 90.6701 58.1401 90.4101 59.1701 90.2001C59.6801 90.0801 60.0801 90.0001 60.3601 89.9501C60.6301 89.8801 60.7701 89.8501 60.7801 89.8801C60.8401 90.0201 58.6101 90.8801 54.8601 91.4401C51.1101 92.0201 45.8801 92.3501 40.1101 92.3801C34.3301 92.4101 29.1001 91.9001 25.3701 91.1501C21.6301 90.4201 19.5101 89.2301 19.5901 89.1201Z" fill="#8C2F00"/>
<path opacity="0.27" d="M21.6802 89.9499C21.6802 89.9499 22.2102 90.0099 23.1202 90.2299C23.5802 90.3199 24.1502 90.4299 24.8002 90.5499C25.4502 90.6799 26.2102 90.7599 27.0402 90.8899C30.3602 91.3199 34.9902 91.6699 40.1202 91.6299C45.2502 91.6199 49.8902 91.4299 53.2302 91.1099C56.5702 90.8199 58.6102 90.3999 58.6402 90.5099C58.6502 90.5599 58.1502 90.7099 57.2302 90.9399C56.7702 91.0699 56.2002 91.1599 55.5402 91.2699C54.8802 91.3799 54.1202 91.5199 53.2802 91.6099C49.9302 92.0599 45.2702 92.3299 40.1202 92.3399C34.9702 92.3699 30.3002 91.9499 26.9702 91.3799C26.1402 91.2199 25.3802 91.0999 24.7302 90.9299C24.0802 90.7599 23.5202 90.6099 23.0602 90.4899C22.1602 90.1899 21.6802 89.9799 21.6902 89.9399L21.6802 89.9499Z" fill="#8C2F00"/>
<path opacity="0.36" d="M23.8402 90.54C23.8402 90.54 24.3102 90.56 25.1202 90.7C25.9502 90.78 27.1202 91.01 28.5902 91.13C31.5202 91.45 35.6002 91.72 40.1002 91.67C44.6102 91.67 48.6902 91.48 51.6302 91.3C54.5802 91.1 56.3902 90.84 56.4002 90.94C56.4002 90.98 55.9602 91.09 55.1402 91.25C54.3302 91.43 53.1302 91.57 51.6602 91.74C48.7102 92.04 44.6102 92.3 40.0902 92.3C35.5602 92.34 31.4602 92 28.5202 91.57C27.0502 91.39 25.8702 91.09 25.0602 90.94C24.2602 90.72 23.8202 90.58 23.8302 90.54H23.8402Z" fill="#8C2F00"/>
<path opacity="0.45" d="M26.05 90.98C26.05 90.98 26.45 90.98 27.16 91.06C27.87 91.15 28.9 91.21 30.16 91.35C32.7 91.52 36.21 91.79 40.1 91.72C41.07 91.72 42.02 91.71 42.94 91.7C43.86 91.68 44.74 91.65 45.58 91.63C47.27 91.61 48.78 91.51 50.05 91.46C52.59 91.32 54.17 91.19 54.18 91.27C54.18 91.31 53.8 91.38 53.09 91.49C52.38 91.58 51.36 91.76 50.08 91.84C48.81 91.94 47.29 92.08 45.6 92.13C44.76 92.16 43.87 92.2 42.95 92.23C42.03 92.23 41.08 92.25 40.1 92.26C36.2 92.33 32.66 92 30.12 91.73C28.85 91.55 27.82 91.42 27.12 91.27C26.42 91.12 26.04 91.02 26.04 90.98H26.05Z" fill="#8C2F00"/>
<path opacity="0.55" d="M28.27 91.32C28.28 91.24 29.6 91.41 31.74 91.52C32.81 91.58 34.08 91.68 35.5 91.7C36.21 91.72 36.95 91.75 37.72 91.78C38.49 91.78 39.29 91.78 40.11 91.77C41.75 91.76 43.3 91.76 44.72 91.71C46.14 91.67 47.41 91.66 48.48 91.6C49.55 91.56 50.41 91.53 51.02 91.51C51.62 91.48 51.95 91.47 51.95 91.51C51.95 91.54 51.63 91.6 51.03 91.69C50.43 91.75 49.56 91.83 48.5 91.92C47.43 92.02 46.15 92.07 44.73 92.13C43.31 92.2 41.75 92.22 40.11 92.23C39.29 92.23 38.49 92.25 37.72 92.23C36.95 92.19 36.2 92.16 35.49 92.13C34.07 92.08 32.79 91.95 31.72 91.85C30.65 91.76 29.79 91.63 29.19 91.53C28.6 91.43 28.27 91.36 28.27 91.33V91.32Z" fill="#8C2F00"/>
<path opacity="0.64" d="M30.5103 91.5799C30.5103 91.5799 30.7803 91.5499 31.2703 91.5699C31.7603 91.5899 32.4603 91.6299 33.3303 91.6699C34.2003 91.7299 35.2303 91.7299 36.3803 91.7799C37.5303 91.8399 38.7903 91.8299 40.1103 91.8099C42.7603 91.8099 45.1603 91.7299 46.9003 91.7099C48.6403 91.6599 49.7103 91.6199 49.7203 91.6699C49.7203 91.6999 49.4603 91.7399 48.9703 91.7899C48.4903 91.8399 47.7803 91.9199 46.9203 91.9699C45.1803 92.0599 42.7803 92.1799 40.1203 92.1799C38.7903 92.1999 37.5303 92.1999 36.3703 92.1199C35.2203 92.0499 34.1803 92.0299 33.3203 91.9299C32.4603 91.8399 31.7603 91.7699 31.2703 91.7099C30.7903 91.6499 30.5203 91.6099 30.5203 91.5799H30.5103Z" fill="#8C2F00"/>
<path opacity="0.73" d="M32.75 91.7503C32.75 91.7003 33.58 91.7702 34.91 91.7802C36.24 91.8102 38.08 91.9002 40.11 91.8402C41.13 91.8402 42.09 91.8403 42.97 91.8303C43.85 91.8103 44.64 91.8002 45.31 91.7802C45.97 91.7802 46.51 91.7802 46.89 91.7802C47.26 91.7802 47.47 91.7902 47.47 91.8102C47.47 91.8602 46.65 91.9102 45.32 91.9902C44.65 92.0202 43.86 92.0602 42.98 92.1002C42.1 92.1102 41.13 92.1202 40.11 92.1302C38.07 92.1802 36.23 92.0603 34.9 91.9803C34.23 91.9403 33.7 91.9002 33.33 91.8502C32.96 91.8002 32.76 91.7703 32.76 91.7503H32.75Z" fill="#8C2F00"/>
<path opacity="0.82" d="M34.9902 91.8901C34.9902 91.8901 35.1302 91.8701 35.3902 91.8701C35.6502 91.8701 36.0202 91.8701 36.4902 91.8801C36.9502 91.8901 37.5002 91.9001 38.1102 91.9201C38.7202 91.9201 39.3902 91.9001 40.1002 91.9001C41.5102 91.8801 42.7902 91.9001 43.7102 91.8801C44.1702 91.8801 44.5402 91.8801 44.8102 91.8801C45.0702 91.8801 45.2102 91.8901 45.2102 91.9001C45.2102 91.9101 45.0702 91.9301 44.8102 91.9501C44.5502 91.9701 44.1802 91.9901 43.7202 92.0201C42.8002 92.0801 41.5202 92.0801 40.1002 92.1001C39.3902 92.1001 38.7202 92.1001 38.1102 92.1001C37.5002 92.0901 36.9502 92.0501 36.4802 92.0201C36.0202 91.9901 35.6502 91.9601 35.3902 91.9401C35.1302 91.9201 34.9902 91.9001 34.9902 91.8901Z" fill="#8C2F00"/>
<path opacity="0.91" d="M37.2402 91.9799C37.2402 91.9799 37.5602 91.9799 38.0802 91.9699C38.6002 91.9699 39.3102 91.9499 40.1102 91.9399C40.9002 91.9399 41.6202 91.9399 42.1402 91.9399C42.4002 91.9399 42.6102 91.9399 42.7502 91.9499C42.9002 91.9499 42.9802 91.9599 42.9802 91.9699C42.9802 91.9699 42.9002 91.9899 42.7602 91.9899C42.6102 91.9899 42.4002 91.9999 42.1502 92.0099C41.6302 92.0099 40.9102 92.0299 40.1202 92.0399C39.3302 92.0399 38.6102 92.0399 38.0902 92.0399C37.8302 92.0399 37.6202 92.0099 37.4802 92.0099C37.3402 91.9999 37.2602 91.9899 37.2602 91.9799H37.2402Z" fill="#8C2F00"/>
<path d="M39.4902 91.9903C39.4902 91.9903 39.7702 91.9803 40.1102 91.9703C40.4502 91.9603 40.7302 91.9703 40.7302 91.9703C40.7302 91.9703 40.4502 91.9803 40.1102 91.9903C39.7702 91.9903 39.4902 91.9903 39.4902 91.9903Z" fill="#8C2F00"/>
</g>
<defs>
<linearGradient id="paint0_linear_33_4088" x1="81.4202" y1="96.58" x2="18.5902" y2="87.4" gradientUnits="userSpaceOnUse">
<stop stop-color="#FF671F"/>
<stop offset="0.18" stop-color="#FF6C26"/>
<stop offset="0.62" stop-color="#FF7835"/>
<stop offset="1" stop-color="#FF7C3A"/>
</linearGradient>
<linearGradient id="paint1_linear_33_4088" x1="13.4301" y1="76.71" x2="30.9701" y2="86.91" gradientUnits="userSpaceOnUse">
<stop/>
<stop offset="0.16" stop-color="#020202"/>
<stop offset="0.25" stop-color="#090909"/>
<stop offset="0.31" stop-color="#171717"/>
<stop offset="0.36" stop-color="#2A2A2A"/>
<stop offset="0.41" stop-color="#424242"/>
<stop offset="0.46" stop-color="#606060"/>
<stop offset="0.5" stop-color="#848484"/>
<stop offset="0.54" stop-color="#ACACAC"/>
<stop offset="0.56" stop-color="#C8C8C8"/>
<stop offset="0.65" stop-color="#D4D4D4"/>
<stop offset="0.82" stop-color="#F5F5F5"/>
<stop offset="0.86" stop-color="white"/>
<stop offset="0.87" stop-color="#FAFAFA"/>
<stop offset="0.89" stop-color="#EBEBEB"/>
<stop offset="0.91" stop-color="#D4D4D4"/>
<stop offset="0.93" stop-color="#B3B3B3"/>
<stop offset="0.95" stop-color="#888888"/>
<stop offset="0.97" stop-color="#545454"/>
<stop offset="0.99" stop-color="#181818"/>
<stop offset="1"/>
</linearGradient>
<linearGradient id="paint2_linear_33_4088" x1="42.6601" y1="90.89" x2="60.2601" y2="80.73" gradientUnits="userSpaceOnUse">
<stop offset="0.08" stop-color="white"/>
<stop offset="0.15" stop-color="#FDFAFA"/>
<stop offset="0.25" stop-color="#FAECEB"/>
<stop offset="0.34" stop-color="#F5D5D4"/>
<stop offset="0.45" stop-color="#EEB5B3"/>
<stop offset="0.55" stop-color="#E58C88"/>
<stop offset="0.66" stop-color="#DA5A54"/>
<stop offset="0.78" stop-color="#CD2018"/>
<stop offset="0.82" stop-color="#C80900"/>
<stop offset="0.89" stop-color="#C80900"/>
</linearGradient>
<linearGradient id="paint3_linear_33_4088" x1="56.7101" y1="44.6698" x2="23.4301" y2="48.6598" gradientUnits="userSpaceOnUse">
<stop stop-color="#FF3E1F"/>
<stop offset="0.19" stop-color="#FF5027"/>
<stop offset="0.49" stop-color="#FF6831"/>
<stop offset="0.77" stop-color="#FF7737"/>
<stop offset="1" stop-color="#FF7C3A"/>
</linearGradient>
<linearGradient id="paint4_linear_33_4088" x1="49.27" y1="17.7197" x2="34.15" y2="19.5397" gradientUnits="userSpaceOnUse">
<stop stop-color="#DED4D1"/>
<stop offset="0.07" stop-color="#DBCEC9"/>
<stop offset="0.24" stop-color="#D6C2BA"/>
<stop offset="0.39" stop-color="#E2D4CF"/>
<stop offset="0.63" stop-color="#F2ECE9"/>
<stop offset="0.84" stop-color="#FBFAF9"/>
<stop offset="1" stop-color="white"/>
</linearGradient>
<linearGradient id="paint5_linear_33_4088" x1="54.4402" y1="43.28" x2="30.2602" y2="46.18" gradientUnits="userSpaceOnUse">
<stop stop-color="#DED4D1"/>
<stop offset="0.07" stop-color="#DBCEC9"/>
<stop offset="0.24" stop-color="#D6C2BA"/>
<stop offset="0.39" stop-color="#E2D4CF"/>
<stop offset="0.63" stop-color="#F2ECE9"/>
<stop offset="0.84" stop-color="#FBFAF9"/>
<stop offset="1" stop-color="white"/>
</linearGradient>
<linearGradient id="paint6_linear_33_4088" x1="59.8502" y1="70.8301" x2="26.5702" y2="74.8201" gradientUnits="userSpaceOnUse">
<stop stop-color="#DED4D1"/>
<stop offset="0.07" stop-color="#DBCEC9"/>
<stop offset="0.24" stop-color="#D6C2BA"/>
<stop offset="0.39" stop-color="#E2D4CF"/>
<stop offset="0.63" stop-color="#F2ECE9"/>
<stop offset="0.84" stop-color="#FBFAF9"/>
<stop offset="1" stop-color="white"/>
</linearGradient>
</defs>
</svg>
